SplineFontDB: 3.2
FontName: Touchscreen-Regular
FullName: Touchscreen Regular
FamilyName: Touchscreen
Weight: Regular
Copyright: Copyright 2023 The Touchscreen Project Authors (github.com/SED4906/touchscreen)
UComments: "2023-8-31: Created with FontForge (http://fontforge.org)"
Version: 001.000
ItalicAngle: 0
UnderlinePosition: -4
UnderlineWidth: 1
Ascent: 44
Descent: 12
InvalidEm: 0
LayerCount: 2
Layer: 0 0 "Back" 1
Layer: 1 0 "Fore" 0
XUID: [1021 454 -1839852526 15378]
FSType: 0
OS2Version: 0
OS2_WeightWidthSlopeOnly: 0
OS2_UseTypoMetrics: 1
CreationTime: 1693533866
ModificationTime: 1710701950
PfmFamily: 49
TTFWeight: 400
TTFWidth: 5
LineGap: 0
VLineGap: 5
Panose: 2 0 5 9 0 0 0 0 0 0
OS2TypoAscent: 57
OS2TypoAOffset: 0
OS2TypoDescent: -16
OS2TypoDOffset: 0
OS2TypoLinegap: 0
OS2WinAscent: 57
OS2WinAOffset: 0
OS2WinDescent: 0
OS2WinDOffset: 1
HheadAscent: 57
HheadAOffset: 0
HheadDescent: -16
HheadDOffset: 0
OS2Vendor: 'PfEd'
MarkAttachClasses: 1
DEI: 91125
LangName: 1033 "" "" "" "" "" "" "" "" "" "" "" "" "" "This Font Software is licensed under the SIL Open Font License, Version 1.1." "http://scripts.sil.org/OFL"
Encoding: UnicodeBmp
UnicodeInterp: none
NameList: AGL For New Fonts
DisplaySize: -48
AntiAlias: 1
FitToEm: 0
WinInfo: 0 19 14
BeginPrivate: 1
isFixedPitch 1 1
EndPrivate
TeXData: 1 0 0 674085 337042 224695 468114 1048576 224695 783286 444596 497025 792723 393216 433062 380633 303038 157286 324010 404750 52429 2506097 1059062 262144
BeginChars: 65537 372

StartChar: exclam
Encoding: 33 33 33
Width: 35
Flags: W
HStem: 1 8<14 22> 21 20G<14 22>
VStem: 14 8<1 9 13 41>
LayerCount: 2
Back
Fore
SplineSet
14 9 m 25
 22 9 l 25
 22 1 l 25
 14 1 l 25
 14 9 l 25
14 41 m 25
 22 41 l 25
 22 13 l 25
 14 13 l 25
 14 41 l 25
EndSplineSet
Validated: 1
EndChar

StartChar: quotedbl
Encoding: 34 34 34
Width: 35
Flags: W
HStem: 29 12<6 14 22 30>
VStem: 6 8<29 41> 22 8<29 41>
LayerCount: 2
Back
Fore
SplineSet
22 29 m 25
 22 41 l 25
 30 41 l 25
 30 29 l 25
 22 29 l 25
6 29 m 25
 6 41 l 25
 14 41 l 25
 14 29 l 25
 6 29 l 25
EndSplineSet
Validated: 1
EndChar

StartChar: numbersign
Encoding: 35 35 35
Width: 35
Flags: W
HStem: 13 4<5 6 13 18 22 22 26 28> 21 4<8 10 14 14 18 23 30 31>
DStem2: 4 5 8 5 0.242536 0.970143<0.970143 8.24621> 14 25 18 25 0.242536 0.970143<0.970143 8.24621> 16 5 20 5 0.242536 0.970143<0.970143 8.24621> 26 25 30 25 0.242536 0.970143<0.970143 8.24621>
LayerCount: 2
Back
Fore
SplineSet
23 21 m 25
 14 21 l 1
 13 17 l 1
 22 17 l 1
 23 21 l 25
14 25 m 25
 16 33 l 1
 20 33 l 25
 18 25 l 25
 26 25 l 25
 28 33 l 25
 32 33 l 25
 30 25 l 1
 32 25 l 1
 31 21 l 1
 27 21 l 1
 26 17 l 1
 29 17 l 1
 28 13 l 1
 22 13 l 25
 20 5 l 25
 16 5 l 25
 18 13 l 25
 10 13 l 25
 8 5 l 25
 4 5 l 25
 6 13 l 25
 4 13 l 1
 5 17 l 1
 9 17 l 1
 10 21 l 1
 7 21 l 25
 8 25 l 1
 14 25 l 25
EndSplineSet
Validated: 1
EndChar

StartChar: dollar
Encoding: 36 36 36
Width: 35
Flags: W
HStem: 1 21G<16 20> 5 4<8 16 20 28> 21 20G<16 20> 21 4<8 16 20 28> 33 4<8 16 20 28>
VStem: 4 4<9 13 25 33> 16 4<1 5 9 21 25 33 37 41> 28 4<9 21 29 33>
CounterMasks: 1 07
LayerCount: 2
Back
Fore
SplineSet
20 21 m 25x27
 20 9 l 25
 28 9 l 25
 28 21 l 25x57
 20 21 l 25x27
16 25 m 25
 16 33 l 25
 8 33 l 25x1f
 8 25 l 25
 16 25 l 25
32 29 m 25
 28 29 l 25
 28 33 l 25
 20 33 l 25
 20 25 l 25
 28 25 l 25
 32 21 l 25
 32 9 l 25
 28 5 l 25
 20 5 l 25x5f
 20 1 l 25
 16 1 l 25x87
 16 5 l 25
 8 5 l 25
 4 9 l 25
 4 13 l 25
 8 13 l 25
 8 9 l 25
 16 9 l 25
 16 21 l 25x67
 8 21 l 25
 4 25 l 25
 4 33 l 25
 8 37 l 25
 16 37 l 25x1f
 16 41 l 25
 20 41 l 25x27
 20 37 l 25
 28 37 l 25
 32 33 l 25
 32 29 l 25
EndSplineSet
Validated: 1
EndChar

StartChar: percent
Encoding: 37 37 37
Width: 35
Flags: W
HStem: 1 4<24 28> 9 4<24 28> 29 4<10 14> 37 4<10 14>
VStem: 6 4<33 37> 14 4<33 37> 20 4<5 9> 28 4<5 9>
DStem2: 6 1 10 1 0.410365 0.911922<1.64146 43.8634>
LayerCount: 2
Back
Fore
SplineSet
28 9 m 29
 24 9 l 25
 24 5 l 25
 28 5 l 25
 28 9 l 29
20 9 m 25
 22 13 l 25
 30 13 l 25
 32 9 l 25
 32 5 l 25
 30 1 l 25
 22 1 l 25
 20 5 l 25
 20 9 l 25
14 37 m 25
 10 37 l 25
 10 33 l 25
 14 33 l 25
 14 37 l 25
6 33 m 25
 6 37 l 25
 8 41 l 25
 16 41 l 25
 18 37 l 25
 18 33 l 25
 16 29 l 25
 8 29 l 25
 6 33 l 25
6 1 m 25
 24 41 l 25
 28 41 l 25
 10 1 l 25
 6 1 l 25
EndSplineSet
Validated: 1
EndChar

StartChar: ampersand
Encoding: 38 38 38
Width: 35
Flags: W
HStem: 1 4<10 22> 9 4<26 28> 37 4<14 18>
VStem: 6 4<5 13> 10 4<33 37> 18 4<33 37> 26 4<1 5> 28 4<15.432 17>
DStem2: 6 13 10 13 0.447214 0.894427<1.78885 10.7331> 18 29 18 21 0.447214 -0.894427<7.15542 16.0997>
LayerCount: 2
Back
Fore
SplineSet
18 33 m 25xec
 18 37 l 25
 14 37 l 25
 14 33 l 25
 18 33 l 25xec
22 5 m 25
 22 13 l 25
 18 21 l 25
 14 21 l 25xec
 10 13 l 25
 10 5 l 25xf4
 22 5 l 25
12 29 m 1
 10 33 l 1
 10 37 l 25
 12 41 l 25
 20 41 l 25
 22 37 l 25
 22 33 l 1
 20 29 l 1
 18 29 l 5
 26 13 l 1xee
 28 13 l 1
 28 17 l 25
 32 17 l 25xe5
 30 9 l 25
 26 9 l 25
 30 5 l 25
 30 1 l 25
 26 1 l 25
 26 5 l 25
 22 1 l 25
 10 1 l 25xee
 6 5 l 25
 6 13 l 1xf4
 14 29 l 1
 12 29 l 1
EndSplineSet
Validated: 1
EndChar

StartChar: quotesingle
Encoding: 39 39 39
Width: 35
Flags: W
HStem: 25 16
VStem: 12 10
DStem2: 12 25 16 25 0.351123 0.936329<1.40449 17.088>
LayerCount: 2
Back
Fore
SplineSet
12 25 m 29
 18 41 l 29
 22 41 l 29
 16 25 l 29
 12 25 l 29
EndSplineSet
Validated: 1
EndChar

StartChar: parenleft
Encoding: 40 40 40
Width: 35
Flags: W
HStem: 1 4<20 24> 37 4<20 24>
VStem: 10 4<17 25>
DStem2: 10 25 14 25 0.447214 0.894427<1.78885 13.4164> 14 17 10 17 0.447214 -0.894427<0 11.6276>
LayerCount: 2
Back
Fore
SplineSet
20 37 m 29
 14 25 l 25
 14 17 l 25
 20 5 l 25
 24 5 l 1
 24 1 l 25
 20 1 l 25
 16 5 l 25
 10 17 l 25
 10 25 l 25
 16 37 l 25
 20 41 l 25
 24 41 l 25
 24 37 l 1
 20 37 l 29
EndSplineSet
Validated: 1
EndChar

StartChar: parenright
Encoding: 41 41 41
Width: 35
Flags: W
HStem: 1 4<12 16> 37 4<12 16>
VStem: 22 4<17 25>
DStem2: 20 37 16 37 0.447214 -0.894427<0 11.6276> 16 5 20 5 0.447214 0.894427<1.78885 13.4164>
LayerCount: 2
Back
Fore
SplineSet
12 41 m 29
 16 41 l 25
 20 37 l 25
 26 25 l 25
 26 17 l 25
 20 5 l 25
 16 1 l 25
 12 1 l 25
 12 5 l 25
 16 5 l 25
 22 17 l 25
 22 25 l 25
 16 37 l 25
 12 37 l 25
 12 41 l 29
EndSplineSet
Validated: 1
EndChar

StartChar: asterisk
Encoding: 42 42 42
Width: 35
Flags: W
HStem: 17 4<6 14 22 30>
DStem2: 14 29 10 29 0.447214 -0.894427<0 7.15542> 10 9 14 9 0.447214 0.894427<1.78885 8.94427> 18 21 22 21 0.447214 0.894427<1.78885 8.94427> 22 17 18 17 0.447214 -0.894427<0 7.15542>
LayerCount: 2
Back
Fore
SplineSet
14 21 m 29
 10 29 l 25
 14 29 l 25
 18 21 l 25
 22 29 l 25
 26 29 l 25
 22 21 l 25
 30 21 l 25
 30 17 l 25
 22 17 l 25
 26 9 l 25
 22 9 l 25
 18 17 l 25
 14 9 l 25
 10 9 l 25
 14 17 l 25
 6 17 l 25
 6 21 l 25
 14 21 l 29
EndSplineSet
Validated: 1
EndChar

StartChar: plus
Encoding: 43 43 43
Width: 35
Flags: W
HStem: 17 4<6 16 20 30>
VStem: 16 4<9 17 21 29>
LayerCount: 2
Back
Fore
SplineSet
16 21 m 29
 16 29 l 29
 20 29 l 29
 20 21 l 29
 30 21 l 29
 30 17 l 29
 20 17 l 29
 20 9 l 29
 16 9 l 29
 16 17 l 29
 6 17 l 29
 6 21 l 29
 16 21 l 29
EndSplineSet
Validated: 1
EndChar

StartChar: comma
Encoding: 44 44 44
Width: 35
Flags: W
HStem: -7 21G<16 22> 1 8<14 18>
VStem: 14 8<1 9> 16 4<-7 -5.432>
LayerCount: 2
Back
Fore
SplineSet
14 9 m 29x60
 22 9 l 25
 22 1 l 25x60
 20 -7 l 25
 16 -7 l 25x90
 18 1 l 25
 14 1 l 25
 14 9 l 29x60
EndSplineSet
Validated: 1
EndChar

StartChar: hyphen
Encoding: 45 45 45
Width: 35
Flags: W
HStem: 17 4<6 30>
LayerCount: 2
Back
Fore
SplineSet
6 21 m 29
 30 21 l 29
 30 17 l 29
 6 17 l 29
 6 21 l 29
EndSplineSet
Validated: 1
EndChar

StartChar: period
Encoding: 46 46 46
Width: 35
Flags: W
HStem: 1 8<14 22>
VStem: 14 8<1 9>
LayerCount: 2
Back
Fore
SplineSet
14 1 m 29
 14 9 l 29
 22 9 l 29
 22 1 l 29
 14 1 l 29
EndSplineSet
Validated: 1
EndChar

StartChar: slash
Encoding: 47 47 47
Width: 35
Flags: W
HStem: 1 21G<8 21> 21 20G<17 30>
DStem2: 8 1 12 1 0.410365 0.911922<1.64146 43.8634>
LayerCount: 2
Back
Fore
SplineSet
8 1 m 29x80
 26 41 l 25
 30 41 l 25x40
 12 1 l 25
 8 1 l 29x80
EndSplineSet
Validated: 1
EndChar

StartChar: zero
Encoding: 48 48 48
Width: 35
Flags: W
HStem: 1 4<12 24> 37 4<12 24>
VStem: 6 4<9 33> 26 4<9 33>
LayerCount: 2
Back
Fore
SplineSet
24 37 m 29
 12 37 l 25
 10 33 l 25
 10 9 l 25
 12 5 l 25
 24 5 l 25
 26 9 l 25
 26 33 l 25
 24 37 l 29
12 41 m 25
 24 41 l 25
 28 37 l 25
 30 33 l 25
 30 9 l 25
 28 5 l 25
 24 1 l 25
 12 1 l 25
 8 5 l 25
 6 9 l 25
 6 33 l 25
 8 37 l 25
 12 41 l 25
EndSplineSet
Validated: 1
EndChar

StartChar: one
Encoding: 49 49 49
Width: 35
Flags: W
HStem: 1 21G<20 24> 21 20G<12 24>
VStem: 20 4<1 35>
DStem2: 12 33 15 30 0.707107 0.707107<0 7.07107>
LayerCount: 2
Back
Fore
SplineSet
20 1 m 5xa0
 20 35 l 5
 15 30 l 5
 12 33 l 5
 20 41 l 29
 24 41 l 29x60
 24 1 l 29
 20 1 l 5xa0
EndSplineSet
Validated: 1
EndChar

StartChar: two
Encoding: 50 50 50
Width: 35
Flags: W
HStem: 1 4<10 30> 37 4<12 24>
VStem: 6 4<5 9 29 33> 26 4<29 33>
DStem2: 6 9 10 9 0.447214 0.894427<1.78885 8.94427> 14 21 24 21 0.948683 0.316228<0 6.32456>
LayerCount: 2
Back
Fore
SplineSet
30 1 m 29
 6 1 l 29
 6 9 l 29
 10 17 l 29
 14 21 l 5
 20 23 l 5
 24 25 l 5
 26 29 l 5
 26 33 l 5
 24 37 l 5
 12 37 l 5
 10 33 l 29
 10 29 l 29
 6 29 l 29
 6 33 l 29
 8 37 l 29
 12 41 l 29
 24 41 l 29
 28 37 l 29
 30 33 l 29
 30 29 l 29
 28 25 l 5
 24 21 l 5
 18 19 l 5
 14 17 l 5
 10 9 l 13
 10 5 l 29
 30 5 l 29
 30 1 l 29
EndSplineSet
Validated: 1
EndChar

StartChar: three
Encoding: 51 51 51
Width: 35
Flags: W
HStem: 1 4<10 26> 21 4<14 26> 37 4<10 26>
VStem: 6 4<5 9 33 37> 28 4<9 17 29 33>
LayerCount: 2
Back
Fore
SplineSet
6 33 m 29
 6 37 l 29
 10 41 l 29
 26 41 l 29
 30 37 l 29
 32 33 l 29
 32 29 l 29
 30 25 l 29
 28 23 l 29
 30 21 l 29
 32 17 l 29
 32 9 l 29
 30 5 l 29
 26 1 l 29
 10 1 l 29
 6 5 l 29
 6 9 l 29
 10 9 l 29
 10 5 l 29
 26 5 l 29
 28 9 l 29
 28 17 l 29
 26 21 l 29
 14 21 l 29
 14 25 l 29
 26 25 l 29
 28 29 l 29
 28 33 l 29
 26 37 l 29
 10 37 l 29
 10 33 l 29
 6 33 l 29
EndSplineSet
Validated: 1
EndChar

StartChar: four
Encoding: 52 52 52
Width: 35
Flags: W
HStem: 1 21G<24 28> 17 4<14 24 28 32> 21 20G<8 28>
VStem: 24 4<1 17 21 31>
DStem2: 4 17 14 21 0.707107 0.707107<9.89949 24.0416>
LayerCount: 2
Back
Fore
SplineSet
14 21 m 5x50
 24 21 l 5
 24 31 l 5
 14 21 l 5x50
28 1 m 29x90
 24 1 l 29x90
 24 17 l 29
 4 17 l 29x50
 28 41 l 29x30
 28 21 l 29
 32 21 l 29
 32 17 l 29
 28 17 l 29x50
 28 1 l 29x90
EndSplineSet
Validated: 1
EndChar

StartChar: five
Encoding: 53 53 53
Width: 35
Flags: W
HStem: 1 4<10 26> 25 4<10 26> 37 4<10 30>
VStem: 6 4<5 9 29 37> 28 4<9 21>
LayerCount: 2
Back
Fore
SplineSet
6 41 m 29
 30 41 l 25
 30 37 l 25
 10 37 l 25
 10 29 l 25
 26 29 l 25
 30 25 l 25
 32 21 l 25
 32 9 l 25
 30 5 l 25
 26 1 l 25
 10 1 l 25
 6 5 l 25
 6 9 l 25
 10 9 l 25
 10 5 l 25
 26 5 l 25
 28 9 l 25
 28 21 l 25
 26 25 l 25
 6 25 l 25
 6 41 l 29
EndSplineSet
Validated: 1
EndChar

StartChar: six
Encoding: 54 54 54
Width: 35
Flags: W
HStem: 1 4<10 26> 21 4<8 28> 37 4<10 26>
VStem: 4 4<9 21 25 33> 26 4<33 37> 28 4<9 21>
LayerCount: 2
Back
Fore
SplineSet
28 21 m 25xf4
 8 21 l 25
 8 9 l 25
 10 5 l 25
 26 5 l 25xf8
 28 9 l 25
 28 21 l 25xf4
30 33 m 29
 26 33 l 25
 26 37 l 25xf8
 10 37 l 25
 8 33 l 25
 8 25 l 25
 28 25 l 25
 32 21 l 25
 32 9 l 25xf4
 30 5 l 25
 26 1 l 25
 10 1 l 25
 6 5 l 25
 4 9 l 25
 4 33 l 25
 6 37 l 25
 10 41 l 25
 26 41 l 25
 30 37 l 25
 30 33 l 29
EndSplineSet
Validated: 1
EndChar

StartChar: seven
Encoding: 55 55 55
Width: 35
Flags: W
HStem: 1 21G<14 18> 37 4<6 24>
VStem: 14 4<1 17>
DStem2: 14 17 18 17 0.447214 0.894427<1.78885 22.3607>
LayerCount: 2
Back
Fore
SplineSet
6 41 m 29
 30 41 l 25
 18 17 l 25
 18 1 l 25
 14 1 l 25
 14 17 l 25
 24 37 l 25
 6 37 l 25
 6 41 l 29
EndSplineSet
Validated: 1
EndChar

StartChar: eight
Encoding: 56 56 56
Width: 35
Flags: W
HStem: 1 4<10 26> 21 4<10 26> 37 4<10 26>
VStem: 4 4<9 17 29 33> 28 4<9 17 29 33>
LayerCount: 2
Back
Fore
SplineSet
7 23 m 29
 4 29 l 25
 4 33 l 25
 6 37 l 25
 10 41 l 25
 26 41 l 25
 30 37 l 25
 32 33 l 25
 32 29 l 25
 29 23 l 25
 32 17 l 25
 32 9 l 25
 30 5 l 25
 26 1 l 25
 10 1 l 25
 6 5 l 25
 4 9 l 25
 4 17 l 25
 7 23 l 29
10 21 m 25
 8 17 l 25
 8 9 l 25
 10 5 l 25
 26 5 l 25
 28 9 l 25
 28 17 l 25
 26 21 l 25
 10 21 l 25
10 25 m 25
 26 25 l 25
 28 29 l 25
 28 33 l 25
 26 37 l 25
 10 37 l 25
 8 33 l 25
 8 29 l 25
 10 25 l 25
EndSplineSet
Validated: 1
EndChar

StartChar: nine
Encoding: 57 57 57
Width: 35
Flags: W
HStem: 1 4<14 26> 17 4<8 28> 37 4<10 26>
VStem: 4 4<21 33> 28 4<9 17 21 33>
LayerCount: 2
Back
Fore
SplineSet
8 21 m 25
 28 21 l 25
 28 33 l 25
 26 37 l 25
 10 37 l 25
 8 33 l 25
 8 21 l 25
6 9 m 1
 10 9 l 25
 14 5 l 25
 26 5 l 25
 28 9 l 25
 28 17 l 25
 8 17 l 25
 4 21 l 25
 4 33 l 25
 6 37 l 1
 10 41 l 29
 26 41 l 1
 30 37 l 25
 32 33 l 25
 32 9 l 25
 30 5 l 25
 26 1 l 1
 12 1 l 1
 6 7 l 1
 6 9 l 1
EndSplineSet
Validated: 1
EndChar

StartChar: colon
Encoding: 58 58 58
Width: 35
Flags: W
HStem: 1 8<14 22> 21 8<14 22>
VStem: 14 8<1 9 21 29>
LayerCount: 2
Back
Fore
SplineSet
14 9 m 29
 22 9 l 29
 22 1 l 29
 14 1 l 29
 14 9 l 29
14 21 m 29
 14 29 l 29
 22 29 l 29
 22 21 l 29
 14 21 l 29
EndSplineSet
Validated: 1
EndChar

StartChar: semicolon
Encoding: 59 59 59
Width: 35
Flags: W
HStem: -7 21G<16 22> 1 8<14 18> 21 8<14 22>
VStem: 14 8<1 9 21 29>
LayerCount: 2
Back
Fore
SplineSet
14 9 m 29x70
 22 9 l 29
 22 1 l 29x70
 20 -7 l 29
 16 -7 l 29xb0
 18 1 l 29
 14 1 l 29
 14 9 l 29x70
14 29 m 25
 22 29 l 25
 22 21 l 25
 14 21 l 25
 14 29 l 25
EndSplineSet
Validated: 1
EndChar

StartChar: less
Encoding: 60 60 60
Width: 35
Flags: W
HStem: 1 21G<6 27>
DStem2: 12 19 6 19 0.707107 -0.707107<0 21.2132> 6 19 12 19 0.707107 0.707107<4.24264 25.4558>
LayerCount: 2
Back
Fore
SplineSet
27 34 m 5
 12 19 l 5
 27 4 l 5
 24 1 l 5
 6 19 l 5
 24 37 l 5
 27 34 l 5
EndSplineSet
Validated: 1
EndChar

StartChar: equal
Encoding: 61 61 61
Width: 35
Flags: W
HStem: 13 4<6 30> 21 4<6 30>
LayerCount: 2
Back
Fore
SplineSet
6 17 m 29
 30 17 l 25
 30 13 l 25
 6 13 l 25
 6 17 l 29
6 25 m 25
 30 25 l 25
 30 21 l 25
 6 21 l 25
 6 25 l 25
EndSplineSet
Validated: 1
EndChar

StartChar: greater
Encoding: 62 62 62
Width: 35
Flags: W
HStem: 1 21G<9 30>
DStem2: 12 37 9 34 0.707107 -0.707107<0 21.2132> 9 4 12 1 0.707107 0.707107<0 21.2132>
LayerCount: 2
Back
Fore
SplineSet
12 37 m 5
 30 19 l 29
 12 1 l 5
 9 4 l 5
 24 19 l 5
 9 34 l 5
 12 37 l 5
EndSplineSet
Validated: 1
EndChar

StartChar: question
Encoding: 63 63 63
Width: 35
Flags: W
HStem: 1 4<16 20> 25 21G<6 10> 37 4<14 22>
VStem: 6 4<25 33> 16 4<1 5 9 13> 26 4<25 33>
CounterMasks: 1 1c
LayerCount: 2
Back
Fore
SplineSet
16 9 m 5xdc
 16 15 l 5
 20 17 l 5
 24 21 l 5
 26 25 l 29xdc
 26 33 l 5
 22 37 l 5
 14 37 l 5xbc
 10 33 l 5
 10 25 l 29
 6 25 l 29xdc
 6 33 l 29
 8 37 l 29
 12 41 l 29
 24 41 l 29
 28 37 l 29xbc
 30 33 l 29
 30 25 l 5
 28 19 l 5
 24 15 l 5
 20 13 l 5
 20 9 l 29
 16 9 l 5xdc
16 5 m 29
 20 5 l 29
 20 1 l 29
 16 1 l 29
 16 5 l 29
EndSplineSet
Validated: 1
EndChar

StartChar: at
Encoding: 64 64 64
Width: 35
Flags: W
HStem: 1 4<12 28> 13 4<16 20> 25 4<16 20> 37 4<12 24>
VStem: 4 4<13 29> 12 4<17 25> 20 4<21 25> 28 4<17 29>
DStem2: 4 29 8 29 0.447214 0.894427<1.78885 8.94427> 8 13 4 13 0.447214 -0.894427<0 7.15542> 28 37 24 37 0.447214 -0.894427<0 7.15542>
LayerCount: 2
Back
Fore
SplineSet
20 17 m 25
 20 25 l 25
 16 25 l 25
 16 17 l 25
 20 17 l 25
20 13 m 5
 16 13 l 1
 12 17 l 25
 12 25 l 25
 16 29 l 25
 20 29 l 25
 24 25 l 25
 24 21 l 25
 28 17 l 25
 28 29 l 25
 24 37 l 25
 12 37 l 25
 8 29 l 25
 8 13 l 25
 12 5 l 25
 28 5 l 25
 28 1 l 25
 12 1 l 25
 8 5 l 25
 4 13 l 25
 4 29 l 25
 8 37 l 25
 12 41 l 25
 24 41 l 25
 28 37 l 25
 32 29 l 25
 32 17 l 25
 28 13 l 1
 24 17 l 1
 20 13 l 5
EndSplineSet
Validated: 1
EndChar

StartChar: A
Encoding: 65 65 65
Width: 35
Flags: W
HStem: 1 21G<4 8 28 32> 13 4<8 28> 37 4<14 22>
VStem: 4 4<1 13 17 25> 28 4<1 13 17 25>
DStem2: 4 25 8 25 0.447214 0.894427<1.78885 13.4164> 26 37 22 37 0.447214 -0.894427<0 11.6276>
LayerCount: 2
Back
Fore
SplineSet
28 17 m 29x78
 28 25 l 29
 22 37 l 29
 14 37 l 29
 8 25 l 29
 8 17 l 29
 28 17 l 29x78
4 1 m 29xb8
 4 25 l 29
 10 37 l 29
 14 41 l 29
 22 41 l 29
 26 37 l 29
 32 25 l 29
 32 1 l 29
 28 1 l 29xb8
 28 13 l 29
 8 13 l 29x78
 8 1 l 29
 4 1 l 29xb8
EndSplineSet
Validated: 1
EndChar

StartChar: B
Encoding: 66 66 66
Width: 35
Flags: W
HStem: 1 4<8 28> 21 4<8 28> 37 4<8 28>
VStem: 4 4<5 21 25 37> 28 4<5 21 25 37>
LayerCount: 2
Back
Fore
SplineSet
28 25 m 25
 28 37 l 25
 8 37 l 25
 8 25 l 25
 28 25 l 25
28 5 m 25
 28 21 l 25
 8 21 l 25
 8 5 l 25
 28 5 l 25
4 1 m 25
 4 41 l 25
 28 41 l 25
 32 37 l 25
 32 25 l 1
 30 23 l 29
 32 21 l 1
 32 5 l 25
 28 1 l 25
 4 1 l 25
EndSplineSet
Validated: 1
EndChar

StartChar: C
Encoding: 67 67 67
Width: 35
Flags: W
HStem: 1 4<12 24> 37 4<12 24>
VStem: 4 4<13 29> 26 4<9 13 29 33>
DStem2: 4 29 8 29 0.447214 0.894427<1.78885 8.94427> 8 13 4 13 0.447214 -0.894427<0 7.15542>
LayerCount: 2
Back
Fore
SplineSet
30 29 m 29
 26 29 l 29
 26 33 l 29
 24 37 l 29
 12 37 l 29
 8 29 l 29
 8 13 l 29
 12 5 l 29
 24 5 l 5
 26 9 l 29
 26 13 l 5
 30 13 l 29
 30 9 l 29
 28 5 l 29
 24 1 l 29
 12 1 l 29
 8 5 l 29
 4 13 l 29
 4 29 l 29
 8 37 l 29
 12 41 l 29
 24 41 l 29
 28 37 l 29
 30 33 l 29
 30 29 l 29
EndSplineSet
Validated: 1
EndChar

StartChar: D
Encoding: 68 68 68
Width: 35
Flags: W
HStem: 1 4<8 24> 37 4<8 24>
VStem: 4 4<5 37> 28 4<9 33>
DStem2: 24 41 24 37 0.707107 -0.707107<2.82843 8.48528> 24 5 24 1 0.707107 0.707107<0 5.65685>
LayerCount: 2
Back
Fore
SplineSet
8 5 m 29
 24 5 l 29
 28 9 l 29
 28 33 l 29
 24 37 l 29
 8 37 l 29
 8 5 l 29
4 1 m 29
 4 41 l 29
 24 41 l 29
 32 33 l 29
 32 9 l 29
 24 1 l 29
 4 1 l 29
EndSplineSet
Validated: 1
EndChar

StartChar: E
Encoding: 69 69 69
Width: 35
Flags: W
HStem: 1 4<8 32> 21 4<8 24> 37 4<8 32>
VStem: 4 4<5 21 25 37>
LayerCount: 2
Back
Fore
SplineSet
4 1 m 29
 4 41 l 29
 32 41 l 29
 32 37 l 29
 8 37 l 29
 8 25 l 29
 24 25 l 29
 24 21 l 29
 8 21 l 29
 8 5 l 29
 32 5 l 29
 32 1 l 29
 4 1 l 29
EndSplineSet
Validated: 1
EndChar

StartChar: F
Encoding: 70 70 70
Width: 35
Flags: W
HStem: 1 21G<4 8> 21 4<8 24> 37 4<8 32>
VStem: 4 4<1 21 25 37>
LayerCount: 2
Back
Fore
SplineSet
4 1 m 25xb0
 4 41 l 25
 32 41 l 25
 32 37 l 25
 8 37 l 25
 8 25 l 25
 24 25 l 25
 24 21 l 29
 8 21 l 25x70
 8 1 l 25
 4 1 l 25xb0
EndSplineSet
Validated: 1
EndChar

StartChar: G
Encoding: 71 71 71
Width: 35
Flags: W
HStem: 1 4<12 24> 17 4<20 28> 37 4<12 24>
VStem: 4 4<13 29> 26 4<29 33> 28 4<13 17>
DStem2: 4 29 8 29 0.447214 0.894427<1.78885 8.94427> 8 13 4 13 0.447214 -0.894427<0 7.15542> 24 5 28 5 0.447214 0.894427<1.78885 8.94427>
LayerCount: 2
Back
Fore
SplineSet
20 21 m 29xf4
 32 21 l 29
 32 13 l 29
 28 5 l 29
 24 1 l 29
 12 1 l 29
 8 5 l 29
 4 13 l 29
 4 29 l 29
 8 37 l 29
 12 41 l 29
 24 41 l 29
 28 37 l 29xf4
 30 33 l 29
 30 29 l 29
 26 29 l 29
 26 33 l 29xf8
 24 37 l 29
 12 37 l 29
 8 29 l 29
 8 13 l 29
 12 5 l 29
 24 5 l 29
 28 13 l 29
 28 17 l 29
 20 17 l 29
 20 21 l 29xf4
EndSplineSet
Validated: 1
EndChar

StartChar: H
Encoding: 72 72 72
Width: 35
Flags: W
HStem: 1 21G<4 8 28 32> 21 20G<4 8 28 32> 21 4<8 28>
VStem: 4 4<1 21 25 41> 28 4<1 21 25 41>
LayerCount: 2
Back
Fore
SplineSet
4 41 m 29x58
 8 41 l 29x58
 8 25 l 29
 28 25 l 29x38
 28 41 l 29
 32 41 l 29x58
 32 1 l 29
 28 1 l 29x98
 28 21 l 29
 8 21 l 29x58
 8 1 l 29
 4 1 l 29x98
 4 41 l 29x58
EndSplineSet
Validated: 1
EndChar

StartChar: I
Encoding: 73 73 73
Width: 35
Flags: W
HStem: 1 4<8 16 20 28> 37 4<8 16 20 28>
VStem: 16 4<5 37>
LayerCount: 2
Back
Fore
SplineSet
8 41 m 29
 28 41 l 29
 28 37 l 29
 20 37 l 29
 20 5 l 29
 28 5 l 29
 28 1 l 29
 8 1 l 29
 8 5 l 29
 16 5 l 29
 16 37 l 29
 8 37 l 29
 8 41 l 29
EndSplineSet
Validated: 1
EndChar

StartChar: J
Encoding: 74 74 74
Width: 35
Flags: W
HStem: 1 4<12 24> 21 20G<26 30>
VStem: 6 4<9 13> 26 4<9 41>
LayerCount: 2
Back
Fore
SplineSet
26 41 m 29
 30 41 l 25
 30 9 l 25
 28 5 l 25
 24 1 l 25
 12 1 l 25
 8 5 l 25
 6 9 l 25
 6 13 l 25
 10 13 l 25
 10 9 l 25
 12 5 l 25
 24 5 l 25
 26 9 l 25
 26 41 l 29
EndSplineSet
Validated: 1
EndChar

StartChar: K
Encoding: 75 75 75
Width: 35
Flags: W
HStem: 1 21G<4 8 8 31> 21 20G<4 8 8 27>
VStem: 4 4<1 21 25 41>
DStem2: 8 25 12 23 0.707107 0.707107<1.41421 22.6274> 12 23 8 21 0.707107 -0.707107<0 26.8701>
LayerCount: 2
Back
Fore
SplineSet
4 41 m 29x60
 8 41 l 29
 8 25 l 5
 24 41 l 5x60
 27 38 l 5
 12 23 l 5
 31 4 l 5
 28 1 l 5xa0
 8 21 l 29x60
 8 1 l 29
 4 1 l 29xa0
 4 41 l 29x60
EndSplineSet
Validated: 1
EndChar

StartChar: L
Encoding: 76 76 76
Width: 35
Flags: W
HStem: 1 4<8 32> 21 20G<4 8>
VStem: 4 4<5 41>
LayerCount: 2
Back
Fore
SplineSet
4 41 m 29
 8 41 l 29
 8 5 l 29
 32 5 l 29
 32 1 l 29
 4 1 l 29
 4 41 l 29
EndSplineSet
Validated: 1
EndChar

StartChar: M
Encoding: 77 77 77
Width: 35
Flags: W
HStem: 1 21G<4 8 28 32> 21 20G<4 18 18 32>
VStem: 4 4<1 35> 16 4<21 27> 28 4<1 35>
DStem2: 8 41 8 35 0.707107 -0.707107<4.24264 14.1421> 18 31 20 27 0.707107 0.707107<0 9.89949>
CounterMasks: 1 38
LayerCount: 2
Back
Fore
SplineSet
4 1 m 29xb8
 4 41 l 29
 8 41 l 29
 18 31 l 29
 28 41 l 29
 32 41 l 29x78
 32 1 l 29
 28 1 l 29xb8
 28 35 l 29
 20 27 l 29
 20 21 l 29
 16 21 l 29x78
 16 27 l 29
 8 35 l 29
 8 1 l 29
 4 1 l 29xb8
EndSplineSet
Validated: 1
EndChar

StartChar: N
Encoding: 78 78 78
Width: 35
Flags: W
HStem: 1 21G<4 8 24 32> 21 20G<4 12 28 32>
VStem: 4 4<1 29> 28 4<17 41>
DStem2: 12 33 8 29 0.707107 -0.707107<0 22.6274>
LayerCount: 2
Back
Fore
SplineSet
4 1 m 29xb0
 4 41 l 29
 8 41 l 29
 12 33 l 29
 28 17 l 29
 28 41 l 29
 32 41 l 29x70
 32 1 l 29
 28 1 l 29
 24 13 l 29
 8 29 l 29
 8 1 l 29
 4 1 l 29xb0
EndSplineSet
Validated: 1
EndChar

StartChar: O
Encoding: 79 79 79
Width: 35
Flags: W
HStem: 1 4<8 28> 37 4<8 28>
VStem: 4 4<5 37> 28 4<5 37>
LayerCount: 2
Back
Fore
SplineSet
28 37 m 29
 8 37 l 29
 8 5 l 29
 28 5 l 29
 28 37 l 29
4 37 m 29
 8 41 l 29
 28 41 l 29
 32 37 l 29
 32 5 l 29
 28 1 l 29
 8 1 l 29
 4 5 l 29
 4 37 l 29
EndSplineSet
Validated: 1
EndChar

StartChar: P
Encoding: 80 80 80
Width: 35
Flags: W
HStem: 1 21G<4 8> 21 4<8 28> 37 4<8 28>
VStem: 4 4<1 21 25 37> 28 4<25 37>
LayerCount: 2
Back
Fore
SplineSet
8 25 m 29x78
 28 25 l 29
 28 37 l 29
 8 37 l 29
 8 25 l 29x78
4 1 m 29xb8
 4 41 l 29
 28 41 l 29
 32 37 l 29
 32 25 l 29
 28 21 l 29
 8 21 l 29x78
 8 1 l 29
 4 1 l 29xb8
EndSplineSet
Validated: 1
EndChar

StartChar: Q
Encoding: 81 81 81
Width: 35
Flags: W
HStem: 1 4<8 20> 37 4<8 28>
VStem: 4 4<5 37> 28 4<5 37>
DStem2: 20 13 16 9 0.707107 -0.707107<0 5.65685 14.1421 16.9706>
LayerCount: 2
Back
Fore
SplineSet
28 5 m 1
 28 37 l 1
 8 37 l 25
 8 5 l 1
 20 5 l 1
 16 9 l 1
 16 13 l 1
 20 13 l 5
 28 5 l 1
4 5 m 25
 4 37 l 25
 8 41 l 25
 28 41 l 25
 32 37 l 25
 32 5 l 25
 30 3 l 25
 32 1 l 25
 32 -3 l 1
 28 -3 l 1
 24 1 l 1
 8 1 l 1
 4 5 l 25
EndSplineSet
Validated: 1
EndChar

StartChar: R
Encoding: 82 82 82
Width: 35
Flags: W
HStem: 1 21G<4 8 8 32> 21 4<16 28> 37 4<8 28>
VStem: 4 4<1 21 25 37> 28 4<25 37>
DStem2: 16 21 8 21 0.707107 -0.707107<0 22.6274>
LayerCount: 2
Back
Fore
SplineSet
8 25 m 29x78
 28 25 l 29
 28 37 l 29
 8 37 l 29
 8 25 l 29x78
4 1 m 29xb8
 4 41 l 29
 28 41 l 29
 32 37 l 29
 32 25 l 29
 28 21 l 29
 16 21 l 29x78
 32 5 l 29
 32 1 l 29
 28 1 l 29xb8
 8 21 l 29x78
 8 1 l 29
 4 1 l 29xb8
EndSplineSet
Validated: 1
EndChar

StartChar: S
Encoding: 83 83 83
Width: 35
Flags: W
HStem: 1 4<10 26> 21 4<10 26> 37 4<10 26>
VStem: 4 4<29 33> 6 4<5 9> 26 4<33 37> 28 4<9 17>
LayerCount: 2
Back
Fore
SplineSet
30 33 m 29xec
 26 33 l 29
 26 37 l 29
 10 37 l 29xec
 8 33 l 29
 8 29 l 29xf0
 10 25 l 29
 26 25 l 29
 30 21 l 29xec
 32 17 l 29
 32 9 l 29xe2
 30 5 l 29
 26 1 l 29
 10 1 l 29
 6 5 l 29
 6 9 l 29
 10 9 l 29
 10 5 l 29
 26 5 l 29xec
 28 9 l 29
 28 17 l 29xe2
 26 21 l 29
 10 21 l 29
 6 25 l 29xec
 4 29 l 29
 4 33 l 29xf0
 6 37 l 29
 10 41 l 29
 26 41 l 29
 30 37 l 29
 30 33 l 29xec
EndSplineSet
Validated: 1
EndChar

StartChar: T
Encoding: 84 84 84
Width: 35
Flags: W
HStem: 1 21G<16 20> 37 4<4 16 20 32>
VStem: 16 4<1 37>
LayerCount: 2
Back
Fore
SplineSet
16 1 m 29
 16 37 l 29
 4 37 l 29
 4 41 l 29
 32 41 l 29
 32 37 l 29
 20 37 l 29
 20 1 l 29
 16 1 l 29
EndSplineSet
Validated: 1
EndChar

StartChar: U
Encoding: 85 85 85
Width: 35
Flags: W
HStem: 1 4<10 26> 21 20G<4 8 28 32>
VStem: 4 4<9 41> 28 4<9 41>
LayerCount: 2
Back
Fore
SplineSet
4 41 m 29
 8 41 l 29
 8 9 l 29
 10 5 l 29
 26 5 l 29
 28 9 l 29
 28 41 l 29
 32 41 l 29
 32 9 l 29
 30 5 l 29
 26 1 l 29
 10 1 l 29
 6 5 l 29
 4 9 l 29
 4 41 l 29
EndSplineSet
Validated: 1
EndChar

StartChar: V
Encoding: 86 86 86
Width: 35
Flags: W
HStem: 1 21G<6 30> 21 20G<4 8 28 32>
VStem: 4 4<25 41> 28 4<25 41>
DStem2: 8 25 4 25 0.447214 -0.894427<0 22.3607> 18 5 20 1 0.447214 0.894427<0 22.3607>
LayerCount: 2
Back
Fore
SplineSet
8 41 m 29x70
 8 25 l 25
 18 5 l 25
 28 25 l 25
 28 41 l 25
 32 41 l 25x70
 32 25 l 25
 20 1 l 25
 16 1 l 25xb0
 4 25 l 25
 4 41 l 25
 8 41 l 29x70
EndSplineSet
Validated: 1
EndChar

StartChar: W
Encoding: 87 87 87
Width: 35
Flags: W
HStem: 1 21G<4 18 18 32> 21 20G<4 8 28 32>
VStem: 4 4<7 41> 16 4<15 21> 28 4<7 41>
DStem2: 8 7 8 1 0.707107 0.707107<0 9.89949> 20 15 18 11 0.707107 -0.707107<1.41421 11.3137>
CounterMasks: 1 38
LayerCount: 2
Back
Fore
SplineSet
4 41 m 29x78
 8 41 l 29
 8 7 l 29
 16 15 l 29
 16 21 l 29
 20 21 l 29
 20 15 l 29
 28 7 l 29
 28 41 l 29
 32 41 l 29x78
 32 1 l 29
 28 1 l 29
 18 11 l 29
 8 1 l 29
 4 1 l 29xb8
 4 41 l 29x78
EndSplineSet
Validated: 1
EndChar

StartChar: X
Encoding: 88 88 88
Width: 35
Flags: W
HStem: 1 21G<4 18 18 32> 21 20G<6 18 18 30>
DStem2: 4 3 8 1 0.447214 0.894427<0 22.3607> 10 41 6 39 0.447214 -0.894427<0 17.8885> 18 25 22 23 0.447214 0.894427<0 17.8885> 22 23 18 21 0.447214 -0.894427<0 22.3607>
LayerCount: 2
Back
Fore
SplineSet
14 23 m 1x80
 6 39 l 1
 10 41 l 1
 18 25 l 1
 26 41 l 1x40
 30 39 l 1
 22 23 l 5
 32 3 l 1
 28 1 l 1x80
 18 21 l 9x40
 8 1 l 1
 4 3 l 1
 14 23 l 1x80
EndSplineSet
Validated: 1
EndChar

StartChar: Y
Encoding: 89 89 89
Width: 35
Flags: W
HStem: 1 21G<16 20> 21 20G<6 18 18 30>
VStem: 16 4<1 21>
DStem2: 10 41 6 41 0.447214 -0.894427<0 17.8885> 18 25 20 21 0.447214 0.894427<0 17.8885>
LayerCount: 2
Back
Fore
SplineSet
10 41 m 29x60
 18 25 l 29
 26 41 l 29
 30 41 l 29
 20 21 l 29x60
 20 1 l 29
 16 1 l 29xa0
 16 21 l 29
 6 41 l 29
 10 41 l 29x60
EndSplineSet
Validated: 1
EndChar

StartChar: Z
Encoding: 90 90 90
Width: 35
Flags: W
HStem: 1 4<12 30> 37 4<4 22>
DStem2: 6 1 12 5 0.406138 0.913812<6.09208 39.3954>
LayerCount: 2
Back
Fore
SplineSet
4 41 m 29
 28 41 l 29
 12 5 l 29
 30 5 l 29
 30 1 l 29
 6 1 l 29
 22 37 l 29
 4 37 l 29
 4 41 l 29
EndSplineSet
Validated: 1
EndChar

StartChar: bracketleft
Encoding: 91 91 91
Width: 35
Flags: W
HStem: 1 4<16 24> 37 4<16 24>
VStem: 12 12<1 5 37 41> 12 4<5 37>
LayerCount: 2
Back
Fore
SplineSet
24 41 m 29xe0
 24 37 l 25xe0
 16 37 l 25
 16 5 l 25xd0
 24 5 l 25
 24 1 l 25
 12 1 l 25
 12 41 l 25
 24 41 l 29xe0
EndSplineSet
Validated: 1
EndChar

StartChar: backslash
Encoding: 92 92 92
Width: 35
Flags: W
HStem: 1 21G<15 28> 21 20G<6 19>
DStem2: 10 41 6 41 0.410365 -0.911922<0 42.222>
LayerCount: 2
Back
Fore
SplineSet
6 41 m 29x40
 10 41 l 25x40
 28 1 l 25
 24 1 l 25x80
 6 41 l 29x40
EndSplineSet
Validated: 1
EndChar

StartChar: bracketright
Encoding: 93 93 93
Width: 35
Flags: W
HStem: 1 4<12 20> 37 4<12 20>
VStem: 12 12<1 5 37 41> 20 4<5 37>
LayerCount: 2
Back
Fore
SplineSet
12 41 m 29xe0
 24 41 l 25
 24 1 l 25
 12 1 l 25
 12 5 l 25xe0
 20 5 l 25
 20 37 l 25xd0
 12 37 l 25
 12 41 l 29xe0
EndSplineSet
Validated: 1
EndChar

StartChar: asciicircum
Encoding: 94 94 94
Width: 35
Flags: W
HStem: 21 20G<8 28>
DStem2: 8 21 12 21 0.447214 0.894427<1.78885 15.2053> 18 41 18 33 0.447214 -0.894427<7.15542 20.5718>
LayerCount: 2
Back
Fore
SplineSet
8 21 m 29
 18 41 l 29
 28 21 l 29
 24 21 l 29
 18 33 l 29
 12 21 l 29
 8 21 l 29
EndSplineSet
Validated: 1
EndChar

StartChar: underscore
Encoding: 95 95 95
Width: 35
Flags: W
HStem: -7 4<4 32>
LayerCount: 2
Back
Fore
SplineSet
4 -3 m 29
 32 -3 l 25
 32 -7 l 25
 4 -7 l 25
 4 -3 l 29
EndSplineSet
Validated: 1
EndChar

StartChar: grave
Encoding: 96 96 96
Width: 35
Flags: W
HStem: 25 16
VStem: 12 10
DStem2: 16 41 12 41 0.351123 -0.936329<0 15.6835>
LayerCount: 2
Back
Fore
SplineSet
16 41 m 29
 22 25 l 25
 18 25 l 25
 12 41 l 25
 16 41 l 29
EndSplineSet
Validated: 1
EndChar

StartChar: a
Encoding: 97 97 97
Width: 35
Flags: W
HStem: 1 4<10 26 30 32> 13 4<10 26> 21 4<8 26>
VStem: 6 4<5 13> 26 4<5 13 17 21>
LayerCount: 2
Back
Fore
SplineSet
26 13 m 29
 10 13 l 29
 10 5 l 29
 26 5 l 29
 26 13 l 29
8 25 m 29
 28 25 l 29
 30 21 l 29
 30 5 l 29
 32 5 l 29
 32 1 l 29
 8 1 l 29
 6 5 l 29
 6 13 l 29
 10 17 l 29
 26 17 l 29
 26 21 l 29
 8 21 l 29
 8 25 l 29
EndSplineSet
Validated: 1
EndChar

StartChar: b
Encoding: 98 98 98
Width: 35
Flags: W
HStem: 1 4<10 26> 21 20G<6 10> 21 4<10 26>
VStem: 6 4<5 21 25 41> 26 4<5 21>
LayerCount: 2
Back
Fore
SplineSet
26 21 m 29xb8
 10 21 l 25xd8
 10 5 l 25
 26 5 l 25
 26 21 l 29xb8
6 41 m 25
 10 41 l 25xd8
 10 25 l 25
 26 25 l 25
 30 21 l 25xb8
 30 5 l 25
 26 1 l 25
 6 1 l 25
 6 41 l 25
EndSplineSet
Validated: 1
EndChar

StartChar: c
Encoding: 99 99 99
Width: 35
Flags: W
HStem: 1 4<10 26> 21 4<10 26>
VStem: 6 4<5 21> 26 4<5 9 17 21>
LayerCount: 2
Back
Fore
SplineSet
30 17 m 29
 26 17 l 29
 26 21 l 29
 10 21 l 29
 10 5 l 29
 26 5 l 29
 26 9 l 29
 30 9 l 29
 30 5 l 29
 26 1 l 29
 10 1 l 29
 6 5 l 29
 6 21 l 29
 10 25 l 29
 26 25 l 29
 30 21 l 29
 30 17 l 29
EndSplineSet
Validated: 1
EndChar

StartChar: d
Encoding: 100 100 100
Width: 35
Flags: W
HStem: 1 4<10 26 30 32> 21 20G<26 30> 21 4<10 26>
VStem: 6 4<5 21> 26 4<5 21 25 41>
LayerCount: 2
Back
Fore
SplineSet
26 21 m 29xd8
 10 21 l 29xb8
 10 5 l 29
 26 5 l 29
 26 21 l 29xd8
26 25 m 29
 26 41 l 29
 30 41 l 29xd8
 30 5 l 29
 32 5 l 29
 32 1 l 29
 8 1 l 29
 6 5 l 29
 6 21 l 29
 10 25 l 29
 26 25 l 29
EndSplineSet
Validated: 1
EndChar

StartChar: e
Encoding: 101 101 101
Width: 35
Flags: W
HStem: 1 4<10 30> 13 4<10 26> 21 4<10 26>
VStem: 6 4<5 13 17 21> 26 4<17 21>
LayerCount: 2
Back
Fore
SplineSet
10 21 m 29
 10 17 l 29
 26 17 l 29
 26 21 l 29
 10 21 l 29
6 21 m 29
 10 25 l 29
 26 25 l 29
 30 21 l 29
 30 13 l 29
 10 13 l 29
 10 5 l 29
 30 5 l 29
 30 1 l 29
 10 1 l 29
 6 5 l 29
 6 21 l 29
EndSplineSet
Validated: 1
EndChar

StartChar: f
Encoding: 102 102 102
Width: 35
Flags: W
HStem: 1 21G<14 18> 21 4<6 14 18 26> 37 4<18 26>
VStem: 14 4<1 21 25 37> 26 4<33 37>
LayerCount: 2
Back
Fore
SplineSet
14 1 m 29xb8
 14 21 l 29
 6 21 l 29
 6 25 l 29
 14 25 l 29
 14 37 l 29
 18 41 l 29
 26 41 l 29
 30 37 l 29
 30 33 l 29
 26 33 l 29
 26 37 l 29
 18 37 l 29
 18 25 l 29
 26 25 l 29
 26 21 l 29
 18 21 l 29x78
 18 1 l 29
 14 1 l 29xb8
EndSplineSet
Validated: 1
EndChar

StartChar: g
Encoding: 103 103 103
Width: 35
Flags: W
HStem: -19 20G<6 12> -7 4<12 26> 5 4<10 26> 21 4<10 26>
VStem: 6 4<9 21> 26 4<-3 5 9 21>
LayerCount: 2
Back
Fore
SplineSet
10 9 m 29x3c
 26 9 l 29
 26 21 l 29
 10 21 l 29
 10 9 l 29x3c
6 1 m 5xbc
 8 1 l 5xbc
 12 -3 l 5
 26 -3 l 5
 26 5 l 29
 10 5 l 29
 6 9 l 29
 6 21 l 29
 10 25 l 29
 26 25 l 29
 30 21 l 29
 30 -3 l 29
 26 -7 l 29
 10 -7 l 29
 6 -3 l 29x7c
 6 1 l 5xbc
EndSplineSet
Validated: 1
EndChar

StartChar: h
Encoding: 104 104 104
Width: 35
Flags: W
HStem: 1 21G<6 10 26 30> 21 20G<6 10> 21 4<10 26>
VStem: 6 4<1 21 25 41> 26 4<1 21>
LayerCount: 2
Back
Fore
SplineSet
6 41 m 29x58
 10 41 l 29x58
 10 25 l 29
 26 25 l 29
 30 21 l 29x38
 30 1 l 29
 26 1 l 29x98
 26 21 l 29x38
 10 21 l 29x58
 10 1 l 29
 6 1 l 29x98
 6 41 l 29x58
EndSplineSet
Validated: 1
EndChar

StartChar: i
Encoding: 105 105 105
Width: 35
Flags: W
HStem: 1 4<10 16 20 26> 21 4<12 16> 29 4<16 20>
VStem: 12 8<21 25> 16 4<5 21 29 33>
LayerCount: 2
Back
Fore
SplineSet
16 29 m 29xe8
 16 33 l 29
 20 33 l 29
 20 29 l 29
 16 29 l 29xe8
12 25 m 29xf0
 20 25 l 29xf0
 20 5 l 29
 26 5 l 29
 26 1 l 29
 10 1 l 29
 10 5 l 29
 16 5 l 29
 16 21 l 29xe8
 12 21 l 29
 12 25 l 29xf0
EndSplineSet
Validated: 1
EndChar

StartChar: j
Encoding: 106 106 106
Width: 35
Flags: W
HStem: -19 20G<8 12> -7 4<12 20> 21 4<18 22> 29 4<22 26>
VStem: 8 4<-3 1> 18 8<21 25> 22 4<1 21 29 33>
LayerCount: 2
Back
Fore
SplineSet
18 25 m 29xbc
 26 25 l 29xbc
 26 1 l 29xba
 24 -3 l 29
 20 -7 l 29
 12 -7 l 29
 8 -3 l 29x7a
 8 1 l 29
 12 1 l 29xba
 12 -3 l 29
 20 -3 l 29x7a
 22 1 l 29
 22 21 l 29xba
 18 21 l 29
 18 25 l 29xbc
22 29 m 25x3a
 22 33 l 25
 26 33 l 25
 26 29 l 25
 22 29 l 25x3a
EndSplineSet
Validated: 1
EndChar

StartChar: k
Encoding: 107 107 107
Width: 35
Flags: W
HStem: 1 21G<8 12 12 27> 21 20G<8 12>
VStem: 8 4<1 13 17 41>
DStem2: 12 17 16 15 0.707107 0.707107<1.41421 16.9706> 16 15 12 13 0.707107 -0.707107<0 15.5563>
LayerCount: 2
Back
Fore
SplineSet
8 1 m 29xa0
 8 41 l 29
 12 41 l 29x60
 12 17 l 29
 24 29 l 29
 27 26 l 29
 16 15 l 29
 27 4 l 29
 24 1 l 29
 12 13 l 29
 12 1 l 29
 8 1 l 29xa0
EndSplineSet
Validated: 1
EndChar

StartChar: l
Encoding: 108 108 108
Width: 35
Flags: W
HStem: 1 4<8 16 20 28> 37 4<12 16>
VStem: 12 8<37 41> 16 4<5 37>
LayerCount: 2
Back
Fore
SplineSet
12 41 m 29xe0
 20 41 l 29xe0
 20 5 l 29
 28 5 l 29
 28 1 l 29
 8 1 l 29
 8 5 l 29
 16 5 l 29
 16 37 l 29xd0
 12 37 l 29
 12 41 l 29xe0
EndSplineSet
Validated: 1
EndChar

StartChar: m
Encoding: 109 109 109
Width: 35
Flags: W
HStem: 1 21G<4 8 16 20 28 32> 21 4<8 16 20 28>
VStem: 4 4<1 21> 16 4<1 21> 28 4<1 21>
CounterMasks: 1 38
LayerCount: 2
Back
Fore
SplineSet
4 1 m 29xb8
 4 25 l 25
 28 25 l 25
 32 21 l 25x78
 32 1 l 25
 28 1 l 25xb8
 28 21 l 25
 20 21 l 25x78
 20 1 l 25
 16 1 l 25xb8
 16 21 l 25
 8 21 l 25x78
 8 1 l 25
 4 1 l 29xb8
EndSplineSet
Validated: 1
EndChar

StartChar: n
Encoding: 110 110 110
Width: 35
Flags: W
HStem: 1 21G<6 10 26 30> 21 4<4 6 10 26>
VStem: 6 4<1 21> 26 4<1 21>
LayerCount: 2
Back
Fore
SplineSet
4 25 m 29x70
 28 25 l 29
 30 21 l 29x70
 30 1 l 29
 26 1 l 29xb0
 26 21 l 29
 10 21 l 29x70
 10 1 l 29
 6 1 l 29xb0
 6 21 l 29
 4 21 l 29
 4 25 l 29x70
EndSplineSet
Validated: 1
EndChar

StartChar: o
Encoding: 111 111 111
Width: 35
Flags: W
HStem: 1 4<10 26> 21 4<10 26>
VStem: 6 4<5 21> 26 4<5 21>
LayerCount: 2
Back
Fore
SplineSet
26 21 m 29
 10 21 l 29
 10 5 l 29
 26 5 l 29
 26 21 l 29
6 21 m 29
 10 25 l 29
 26 25 l 29
 30 21 l 29
 30 5 l 29
 26 1 l 29
 10 1 l 29
 6 5 l 29
 6 21 l 29
EndSplineSet
Validated: 1
EndChar

StartChar: p
Encoding: 112 112 112
Width: 35
Flags: W
HStem: -7 21G<6 10> 5 4<10 26> 21 4<10 26>
VStem: 6 4<-7 5 9 21> 26 4<9 21>
LayerCount: 2
Back
Fore
SplineSet
10 9 m 29x78
 26 9 l 29
 26 21 l 29
 10 21 l 29
 10 9 l 29x78
6 -7 m 29xb8
 6 25 l 29
 26 25 l 29
 30 21 l 29
 30 9 l 29
 26 5 l 29
 10 5 l 29x78
 10 -7 l 29
 6 -7 l 29xb8
EndSplineSet
Validated: 1
EndChar

StartChar: q
Encoding: 113 113 113
Width: 35
Flags: W
HStem: -7 21G<26 30> 5 4<10 26> 21 4<10 26>
VStem: 6 4<9 21> 26 4<-7 5 9 21>
LayerCount: 2
Back
Fore
SplineSet
10 21 m 29x78
 10 9 l 25
 26 9 l 25
 26 21 l 25
 10 21 l 29x78
6 21 m 25
 10 25 l 25
 30 25 l 25
 30 -7 l 25
 26 -7 l 25xb8
 26 5 l 25
 10 5 l 25
 6 9 l 25
 6 21 l 25
EndSplineSet
Validated: 1
EndChar

StartChar: r
Encoding: 114 114 114
Width: 35
Flags: W
HStem: 1 21G<6 10> 21 4<14 26>
VStem: 6 4<1 17 21 25> 26 4<17 21>
LayerCount: 2
Back
Fore
SplineSet
6 1 m 29xb0
 6 25 l 29
 10 25 l 29
 10 21 l 29
 14 25 l 29
 26 25 l 29
 30 21 l 29
 30 17 l 29
 26 17 l 29
 26 21 l 29
 14 21 l 29x70
 10 17 l 29
 10 1 l 29
 6 1 l 29xb0
EndSplineSet
Validated: 1
EndChar

StartChar: s
Encoding: 115 115 115
Width: 35
Flags: W
HStem: 1 4<6 26> 13 4<10 26> 21 4<10 28>
VStem: 6 4<17 21> 26 4<5 13>
LayerCount: 2
Back
Fore
SplineSet
28 25 m 25
 28 21 l 25
 10 21 l 25
 10 17 l 29
 28 17 l 29
 30 13 l 29
 30 5 l 29
 26 1 l 29
 6 1 l 29
 6 5 l 29
 26 5 l 29
 26 13 l 29
 8 13 l 29
 6 17 l 29
 6 21 l 25
 8 25 l 25
 28 25 l 25
EndSplineSet
Validated: 1
EndChar

StartChar: t
Encoding: 116 116 116
Width: 35
Flags: W
HStem: 1 4<18 26> 21 20G<14 18> 25 4<6 14 18 26>
VStem: 14 4<5 25 29 41> 26 4<5 9>
LayerCount: 2
Back
Fore
SplineSet
14 41 m 29xd8
 18 41 l 29xd8
 18 29 l 29
 26 29 l 29
 26 25 l 29
 18 25 l 29
 18 5 l 29
 26 5 l 29
 26 9 l 29
 30 9 l 29
 30 5 l 29
 26 1 l 29
 18 1 l 29
 14 5 l 29
 14 25 l 29
 6 25 l 29
 6 29 l 29
 14 29 l 29xb8
 14 41 l 29xd8
EndSplineSet
Validated: 1
EndChar

StartChar: u
Encoding: 117 117 117
Width: 35
Flags: W
HStem: 1 4<10 26 30 32> 5 20G<6 10 26 30>
VStem: 6 4<5 25> 26 4<5 25>
LayerCount: 2
Back
Fore
SplineSet
6 25 m 29x70
 10 25 l 29x70
 10 5 l 29
 26 5 l 29xb0
 26 25 l 29
 30 25 l 29x70
 30 5 l 29
 32 5 l 29
 32 1 l 29
 8 1 l 29xb0
 6 5 l 29
 6 25 l 29x70
EndSplineSet
Validated: 1
EndChar

StartChar: v
Encoding: 118 118 118
Width: 35
Flags: W
HStem: 1 21G<8 28> 5 20G<6 18 18 30>
DStem2: 10 25 6 25 0.447214 -0.894427<0 17.8885> 18 9 18 1 0.447214 0.894427<0 17.8885>
LayerCount: 2
Back
Fore
SplineSet
10 25 m 29x40
 18 9 l 25
 26 25 l 25
 30 25 l 25x40
 18 1 l 25x80
 6 25 l 25
 10 25 l 29x40
EndSplineSet
Validated: 1
EndChar

StartChar: w
Encoding: 119 119 119
Width: 35
Flags: W
HStem: 1 21G<4 18 18 32> 5 20G<4 8 28 32>
VStem: 4 4<13 25> 16 4<13 17> 28 4<13 25>
DStem2: 8 13 4 13 0.447214 -0.894427<0 8.94427> 12 5 14 1 0.447214 0.894427<0 6.26099> 20 13 18 9 0.447214 -0.894427<2.68328 8.94427> 24 5 26 1 0.447214 0.894427<0 8.94427>
CounterMasks: 1 38
LayerCount: 2
Back
Fore
SplineSet
4 25 m 29x78
 8 25 l 29
 8 13 l 29
 12 5 l 29
 16 13 l 29
 16 17 l 29
 20 17 l 29
 20 13 l 29
 24 5 l 29
 28 13 l 29
 28 25 l 29
 32 25 l 29x78
 32 13 l 29
 26 1 l 29
 22 1 l 29
 18 9 l 29
 14 1 l 29
 10 1 l 29xb8
 4 13 l 29
 4 25 l 29x78
EndSplineSet
Validated: 1
EndChar

StartChar: x
Encoding: 120 120 120
Width: 35
Flags: W
HStem: 1 21G<6 18 18 30> 5 20G<6 18 18 30>
DStem2: 9 25 6 22 0.707107 -0.707107<0 12.7279 16.9706 29.6985> 6 4 9 1 0.707107 0.707107<0 12.7279 16.9706 29.6985>
LayerCount: 2
Back
Fore
SplineSet
6 22 m 1x80
 9 25 l 1
 18 16 l 1
 27 25 l 1x40
 30 22 l 1
 21 13 l 1
 30 4 l 1
 27 1 l 1
 18 10 l 1
 9 1 l 1
 6 4 l 1
 15 13 l 1
 6 22 l 1x80
EndSplineSet
Validated: 1
EndChar

StartChar: y
Encoding: 121 121 121
Width: 35
Flags: W
HStem: -7 4<6 10> 5 20G<8 18 18 28>
DStem2: 12 25 8 25 0.447214 -0.894427<0 13.4164> 10 -3 12 -7 0.447214 0.894427<0 13.4164 17.8885 31.305>
LayerCount: 2
Back
Fore
SplineSet
8 25 m 29
 12 25 l 29
 18 13 l 29
 24 25 l 29
 28 25 l 29
 12 -7 l 29
 6 -7 l 29
 6 -3 l 29
 10 -3 l 5
 16 9 l 29
 8 25 l 29
EndSplineSet
Validated: 1
EndChar

StartChar: z
Encoding: 122 122 122
Width: 35
Flags: W
HStem: 1 4<14 30> 21 4<6 22>
DStem2: 6 1 14 5 0.624695 0.780869<8.12104 25.6125>
LayerCount: 2
Back
Fore
SplineSet
22 21 m 29
 6 21 l 29
 6 25 l 29
 30 25 l 5
 14 5 l 29
 30 5 l 5
 30 1 l 29
 6 1 l 29
 22 21 l 29
EndSplineSet
Validated: 1
EndChar

StartChar: braceleft
Encoding: 123 123 123
Width: 35
Flags: W
HStem: 1 4<18 28> 17 8<8 14 18 20> 37 4<18 28>
VStem: 8 12<17 25> 14 4<5 17 25 37>
CounterMasks: 1 e0
LayerCount: 2
Back
Fore
SplineSet
28 41 m 29xe8
 28 37 l 25
 18 37 l 25
 18 25 l 25xe8
 20 25 l 25
 20 17 l 25xf0
 18 17 l 25
 18 5 l 25
 28 5 l 25
 28 1 l 25
 16 1 l 25
 14 5 l 25
 14 17 l 25xe8
 8 17 l 25
 8 25 l 25xf0
 14 25 l 25
 14 37 l 25
 16 41 l 25
 28 41 l 29xe8
EndSplineSet
Validated: 1
EndChar

StartChar: bar
Encoding: 124 124 124
Width: 35
Flags: W
HStem: 1 21G<14 22> 21 20G<14 22>
VStem: 14 8<1 41>
LayerCount: 2
Back
Fore
SplineSet
14 41 m 29x60
 22 41 l 25x60
 22 1 l 25
 14 1 l 25xa0
 14 41 l 29x60
EndSplineSet
Validated: 1
EndChar

StartChar: braceright
Encoding: 125 125 125
Width: 35
Flags: W
HStem: 1 4<8 18> 17 8<16 18 22 28> 37 4<8 18>
VStem: 16 12<17 25> 18 4<5 17 25 37>
CounterMasks: 1 e0
LayerCount: 2
Back
Fore
SplineSet
8 41 m 29xe8
 20 41 l 25
 22 37 l 25
 22 25 l 25xe8
 28 25 l 25
 28 17 l 25xf0
 22 17 l 25
 22 5 l 25
 20 1 l 25
 8 1 l 25
 8 5 l 25
 18 5 l 25
 18 17 l 25xe8
 16 17 l 25
 16 25 l 25xf0
 18 25 l 25
 18 37 l 25
 8 37 l 25
 8 41 l 29xe8
EndSplineSet
Validated: 1
EndChar

StartChar: asciitilde
Encoding: 126 126 126
Width: 35
Flags: W
HStem: 13 4<20 28> 21 4<8 16>
VStem: 4 4<17 21> 16 4<17 21> 28 4<17 21>
CounterMasks: 1 38
LayerCount: 2
Back
Fore
SplineSet
4 17 m 29
 4 21 l 29
 8 25 l 29
 16 25 l 29
 20 21 l 29
 20 17 l 29
 28 17 l 29
 28 21 l 29
 32 21 l 29
 32 17 l 29
 28 13 l 29
 20 13 l 29
 16 17 l 29
 16 21 l 29
 8 21 l 29
 8 17 l 29
 4 17 l 29
EndSplineSet
Validated: 1
EndChar

StartChar: uni007F
Encoding: 127 127 127
Width: 35
Flags: W
HStem: 1 4<10 26>
DStem2: 6 5 10 5 0.447214 0.894427<1.78885 19.6774> 18 29 18 21 0.447214 -0.894427<7.15542 25.044>
LayerCount: 2
Back
Fore
SplineSet
10 5 m 29
 26 5 l 25
 18 21 l 25
 10 5 l 29
6 1 m 25
 6 5 l 25
 18 29 l 25
 30 5 l 25
 30 1 l 25
 6 1 l 25
EndSplineSet
Validated: 1
EndChar

StartChar: exclamdown
Encoding: 161 161 130
Width: 35
Flags: W
HStem: -7 21G<14 22> 25 8<14 22>
VStem: 14 8<-7 21 25 33>
LayerCount: 2
Back
Fore
SplineSet
14 25 m 25
 14 33 l 25
 22 33 l 25
 22 25 l 25
 14 25 l 25
14 -7 m 25
 14 21 l 25
 22 21 l 25
 22 -7 l 25
 14 -7 l 25
EndSplineSet
Validated: 1
EndChar

StartChar: cent
Encoding: 162 162 131
Width: 35
Flags: W
HStem: 1 4<10 16 20 26> 21 4<10 16 20 26>
VStem: 6 4<5 21> 16 4<-3 1 5 21 25 29> 26 4<5 9 17 21>
CounterMasks: 1 38
LayerCount: 2
Back
Fore
SplineSet
10 5 m 25
 16 5 l 25
 16 21 l 25
 10 21 l 25
 10 5 l 25
10 1 m 9
 6 5 l 25
 6 21 l 25
 10 25 l 25
 16 25 l 25
 16 29 l 25
 20 29 l 25
 20 25 l 25
 26 25 l 25
 30 21 l 25
 30 17 l 25
 26 17 l 25
 26 21 l 25
 20 21 l 25
 20 5 l 25
 26 5 l 25
 26 9 l 25
 30 9 l 25
 30 5 l 25
 26 1 l 25
 20 1 l 25
 20 -3 l 25
 16 -3 l 25
 16 1 l 25
 10 1 l 9
EndSplineSet
Validated: 1
EndChar

StartChar: sterling
Encoding: 163 163 132
Width: 35
Flags: W
HStem: 1 4<10 32> 21 4<6 14 18 26> 37 4<18 26>
VStem: 14 4<13 21 25 37> 26 4<33 37>
DStem2: 6 5 10 5 0.707107 0.707107<2.82843 11.3137>
LayerCount: 2
Back
Fore
SplineSet
14 13 m 1
 14 21 l 9
 6 21 l 25
 6 25 l 25
 14 25 l 25
 14 37 l 25
 18 41 l 25
 26 41 l 25
 30 37 l 25
 30 33 l 25
 26 33 l 25
 26 37 l 25
 18 37 l 25
 18 25 l 25
 26 25 l 25
 26 21 l 25
 18 21 l 17
 18 13 l 1
 10 5 l 9
 32 5 l 25
 32 1 l 1
 6 1 l 25
 6 5 l 25
 14 13 l 1
EndSplineSet
Validated: 1
EndChar

StartChar: currency
Encoding: 164 164 133
Width: 35
Flags: W
HStem: 9 4<14 22> 21 4<14 22>
VStem: 10 4<13 21> 22 4<13 21>
DStem2: 10 29 6 25 0.707107 -0.707107<0 5.65685 22.6274 28.2843> 6 9 10 5 0.707107 0.707107<0 5.65685 22.6274 28.2843>
LayerCount: 2
Back
Fore
SplineSet
22 21 m 25
 14 21 l 25
 14 13 l 25
 22 13 l 25
 22 21 l 25
22 9 m 29
 14 9 l 25
 10 5 l 25
 6 9 l 25
 10 13 l 25
 10 21 l 25
 6 25 l 25
 10 29 l 25
 14 25 l 25
 22 25 l 25
 26 29 l 25
 30 25 l 25
 26 21 l 25
 26 13 l 25
 30 9 l 25
 26 5 l 25
 22 9 l 29
EndSplineSet
Validated: 1
EndChar

StartChar: yen
Encoding: 165 165 134
Width: 35
Flags: W
HStem: 1 21G<16 20> 9 4<4 16 20 32> 21 20G<6 18 18 30> 21 4<4 14 22 32>
VStem: 16 4<1 9 13 21>
DStem2: 10 41 6 41 0.447214 -0.894427<0 16.0997> 18 25 22 25 0.447214 0.894427<1.78885 17.8885>
LayerCount: 2
Back
Fore
SplineSet
20 1 m 25x88
 16 1 l 25x88
 16 9 l 25
 4 9 l 25
 4 13 l 25
 16 13 l 25
 16 21 l 25x68
 4 21 l 25
 4 25 l 25
 14 25 l 25x18
 6 41 l 25
 10 41 l 25x28
 18 25 l 25x18
 26 41 l 25
 30 41 l 25x28
 22 25 l 25
 32 25 l 25
 32 21 l 25x18
 20 21 l 25
 20 13 l 25
 32 13 l 25
 32 9 l 25
 20 9 l 25x68
 20 1 l 25x88
EndSplineSet
Validated: 1
EndChar

StartChar: brokenbar
Encoding: 166 166 135
Width: 35
Flags: W
HStem: 1 21G<16 20> 21 20G<16 20> 25 21G<16 20>
VStem: 16 4<1 17 25 41>
LayerCount: 2
Back
Fore
SplineSet
16 41 m 25x50
 20 41 l 25x50
 20 25 l 25
 16 25 l 25x30
 16 41 l 25x50
16 17 m 25
 20 17 l 25
 20 1 l 25
 16 1 l 25x90
 16 17 l 25
EndSplineSet
Validated: 1
EndChar

StartChar: section
Encoding: 167 167 136
Width: 35
Flags: W
HStem: 1 4<10 26> 17 4<16 20> 21 4<10 12 24 26> 37 4<10 26>
VStem: 4 4<29 33> 6 4<5 9> 26 4<33 37> 28 4<9 17>
LayerCount: 2
Back
Fore
SplineSet
20 25 m 25xb0
 16 25 l 25xb0
 16 21 l 25
 20 21 l 25xd0
 20 25 l 25xb0
30 21 m 25xb6
 32 17 l 25
 32 9 l 25xd1
 30 5 l 25
 26 1 l 25
 10 1 l 25
 6 5 l 25
 6 9 l 25
 10 9 l 25
 10 5 l 25
 26 5 l 25xd6
 28 9 l 25
 28 17 l 25xd1
 26 21 l 25
 24 21 l 25xb2
 20 17 l 25
 16 17 l 25xd2
 12 21 l 25
 10 21 l 25
 6 25 l 25xb6
 4 29 l 25
 4 33 l 25xb8
 6 37 l 25
 10 41 l 25
 26 41 l 25
 30 37 l 25
 30 33 l 25
 26 33 l 25
 26 37 l 25
 10 37 l 25xb6
 8 33 l 25
 8 29 l 25xb8
 10 25 l 25
 12 25 l 25
 16 29 l 25
 20 29 l 25
 24 25 l 25
 26 25 l 25
 30 21 l 25xb6
EndSplineSet
Validated: 1
EndChar

StartChar: dieresis
Encoding: 168 168 137
Width: 35
Flags: W
HStem: 45 4<12 16 20 24>
VStem: 12 4<45 49> 20 4<45 49>
LayerCount: 2
Back
Fore
SplineSet
20 45 m 5
 20 49 l 5
 24 49 l 5
 24 45 l 5
 20 45 l 5
16 45 m 1
 12 45 l 1
 12 49 l 1
 16 49 l 1
 16 45 l 1
EndSplineSet
Validated: 1
EndChar

StartChar: copyright
Encoding: 169 169 138
Width: 35
Flags: W
HStem: 1 4<8 28> 11 4<14 22> 27 4<14 22> 37 4<8 28>
VStem: 4 4<5 37> 10 4<15 27> 22 4<15 19 23 27>
LayerCount: 2
Back
Fore
SplineSet
26 23 m 25
 22 23 l 25
 22 27 l 25
 14 27 l 25
 14 15 l 25
 22 15 l 25
 22 19 l 25
 26 19 l 25
 26 15 l 25
 22 11 l 25
 14 11 l 25
 10 15 l 25
 10 27 l 25
 14 31 l 25
 22 31 l 25
 26 27 l 25
 26 23 l 25
28 37 m 25
 8 37 l 25
 8 5 l 25
 28 5 l 25
 28 37 l 25
4 37 m 25
 8 41 l 25
 28 41 l 25
 32 37 l 25
 32 5 l 25
 28 1 l 25
 8 1 l 25
 4 5 l 25
 4 37 l 25
EndSplineSet
Validated: 1
EndChar

StartChar: ordfeminine
Encoding: 170 170 139
Width: 35
Flags: W
HStem: 21 4<14 20 24 26> 29 4<14 20> 37 4<12 20>
VStem: 10 4<25 29> 20 4<25 29 33 37>
CounterMasks: 1 e0
LayerCount: 2
Back
Fore
SplineSet
14 25 m 25
 20 25 l 25
 20 29 l 25
 14 29 l 25
 14 25 l 25
12 21 m 25
 10 25 l 25
 10 29 l 25
 14 33 l 25
 20 33 l 25
 20 37 l 25
 12 37 l 25
 12 41 l 25
 22 41 l 25
 24 37 l 25
 24 25 l 25
 26 25 l 25
 26 21 l 25
 12 21 l 25
EndSplineSet
Validated: 1
EndChar

StartChar: guillemotleft
Encoding: 171 171 140
Width: 35
Flags: W
HStem: 1 21G<2 31>
DStem2: 8 19 2 19 0.707107 -0.707107<0 21.2132> 2 19 8 19 0.707107 0.707107<4.24264 25.4558> 16 19 10 19 0.707107 -0.707107<0 21.2132> 10 19 16 19 0.707107 0.707107<4.24264 25.4558>
LayerCount: 2
Back
Fore
SplineSet
31 34 m 5
 16 19 l 5
 31 4 l 5
 28 1 l 5
 10 19 l 5
 28 37 l 5
 31 34 l 5
23 34 m 5
 8 19 l 5
 23 4 l 5
 20 1 l 5
 2 19 l 5
 20 37 l 5
 23 34 l 5
EndSplineSet
Validated: 1
EndChar

StartChar: logicalnot
Encoding: 172 172 141
Width: 35
Flags: W
HStem: 21 4<4 24>
VStem: 24 4<9 21>
LayerCount: 2
Back
Fore
SplineSet
28 9 m 29
 24 9 l 29
 24 21 l 29
 4 21 l 29
 4 25 l 29
 28 25 l 29
 28 9 l 29
EndSplineSet
Validated: 1
EndChar

StartChar: uni00AD
Encoding: 173 173 142
Width: 35
Flags: W
HStem: 17 4<6 30>
LayerCount: 2
Back
Fore
SplineSet
6 21 m 29
 30 21 l 29
 30 17 l 29
 6 17 l 29
 6 21 l 29
EndSplineSet
Validated: 1
EndChar

StartChar: registered
Encoding: 174 174 143
Width: 35
Flags: W
HStem: 1 4<8 28> 27 4<18 22> 37 4<8 28>
VStem: 4 4<5 37> 10 4<11 23 27 31> 22 4<23 27> 28 4<5 37>
LayerCount: 2
Back
Fore
SplineSet
10 11 m 29
 10 31 l 29
 14 31 l 29
 14 27 l 29
 18 31 l 29
 22 31 l 29
 26 27 l 29
 26 23 l 29
 22 23 l 29
 22 27 l 29
 18 27 l 29
 14 23 l 29
 14 11 l 29
 10 11 l 29
28 37 m 25
 8 37 l 25
 8 5 l 25
 28 5 l 25
 28 37 l 25
4 37 m 25
 8 41 l 25
 28 41 l 25
 32 37 l 25
 32 5 l 25
 28 1 l 25
 8 1 l 25
 4 5 l 25
 4 37 l 25
EndSplineSet
Validated: 1
EndChar

StartChar: macron
Encoding: 175 175 144
Width: 35
Flags: W
HStem: 37 4<8 28>
LayerCount: 2
Back
Fore
SplineSet
8 37 m 25
 8 41 l 25
 28 41 l 25
 28 37 l 25
 8 37 l 25
EndSplineSet
Validated: 1
EndChar

StartChar: degree
Encoding: 176 176 145
Width: 35
Flags: W
HStem: 25 4<14 22> 37 4<14 22>
VStem: 10 4<29 37> 22 4<29 37>
LayerCount: 2
Back
Fore
SplineSet
22 37 m 29
 14 37 l 29
 14 29 l 29
 22 29 l 29
 22 37 l 29
14 41 m 29
 22 41 l 29
 26 37 l 29
 26 29 l 29
 22 25 l 29
 14 25 l 29
 10 29 l 29
 10 37 l 29
 14 41 l 29
EndSplineSet
Validated: 1
EndChar

StartChar: plusminus
Encoding: 177 177 146
Width: 35
Flags: W
HStem: 1 4<6 30> 17 4<6 16 20 30>
VStem: 16 4<9 17 21 29>
LayerCount: 2
Back
Fore
SplineSet
6 5 m 25
 30 5 l 25
 30 1 l 25
 6 1 l 25
 6 5 l 25
16 21 m 25
 16 29 l 25
 20 29 l 25
 20 21 l 25
 30 21 l 25
 30 17 l 25
 20 17 l 25
 20 9 l 25
 16 9 l 25
 16 17 l 25
 6 17 l 25
 6 21 l 25
 16 21 l 25
EndSplineSet
Validated: 1
EndChar

StartChar: uni00B2
Encoding: 178 178 147
Width: 35
Flags: W
HStem: 21 4<16 24> 38 3<17 19>
VStem: 12 4<35 37> 21 3<35 37>
LayerCount: 2
Back
Fore
SplineSet
21 37 m 5
 19 38 l 29
 17 38 l 29
 16 37 l 29
 16 35 l 29
 12 35 l 29
 12 37 l 29
 13 39 l 29
 17 41 l 29
 19 41 l 29
 23 39 l 29
 24 37 l 29
 24 35 l 29
 23 32 l 5
 18 28 l 5
 16 25 l 13
 24 25 l 29
 24 21 l 29
 12 21 l 29
 12 25 l 29
 15 29 l 5
 20 33 l 5
 21 35 l 5
 21 37 l 5
EndSplineSet
Validated: 1
EndChar

StartChar: uni00B3
Encoding: 179 179 148
Width: 35
Flags: W
HStem: 6 20G<12 15> 21 3<15 20> 30 2<17 20> 38 3<15 20>
VStem: 12 3<24 26 35 37> 21 3<25 29 33 37>
LayerCount: 2
Back
Fore
SplineSet
22 31 m 29x7c
 24 29 l 29
 24 25 l 29
 23 22 l 29
 20 21 l 29
 15 21 l 29x7c
 12 23 l 29
 12 26 l 29
 15 26 l 29xbc
 15 24 l 29
 20 24 l 29
 21 25 l 29
 21 29 l 29
 20 30 l 29
 17 30 l 29
 17 32 l 29
 20 32 l 29
 21 33 l 29
 21 37 l 29
 20 38 l 29
 15 38 l 29
 15 35 l 29
 12 35 l 29
 12 37 l 29
 15 41 l 29
 20 41 l 29
 23 40 l 29
 24 37 l 29
 24 33 l 29
 22 31 l 29x7c
EndSplineSet
Validated: 1
EndChar

StartChar: acute
Encoding: 180 180 149
Width: 35
Flags: W
HStem: 45 12
VStem: 12 12
DStem2: 12 48 15 45 0.707107 0.707107<0 12.7279>
LayerCount: 2
Back
Fore
SplineSet
12 45 m 5
 12 48 l 5
 21 57 l 5
 24 57 l 5
 24 54 l 5
 15 45 l 5
 12 45 l 5
EndSplineSet
Validated: 1
EndChar

StartChar: mu
Encoding: 181 181 150
Width: 35
Flags: W
HStem: 1 4<10 26 30 32> 5 20G<6 10 26 30>
VStem: 6 4<-11 1 5 25> 26 4<5 25>
LayerCount: 2
Back
Fore
SplineSet
6 25 m 25x70
 10 25 l 25x70
 10 5 l 25
 26 5 l 25xb0
 26 25 l 25
 30 25 l 25x70
 30 5 l 25
 32 5 l 25
 32 1 l 25
 10 1 l 25xb0
 10 -11 l 29
 6 -11 l 29
 6 25 l 25x70
EndSplineSet
Validated: 1
EndChar

StartChar: paragraph
Encoding: 182 182 151
Width: 35
Flags: W
HStem: 1 21G<16 20 24 28> 37 4<20 24>
VStem: 8 12<25 37> 16 4<1 21> 24 4<1 37>
LayerCount: 2
Back
Fore
SplineSet
28 41 m 25xe8
 28 1 l 25
 24 1 l 25
 24 37 l 25
 20 37 l 25xe8
 20 1 l 25
 16 1 l 25
 16 21 l 25xd8
 12 21 l 25
 8 25 l 25
 8 37 l 25
 12 41 l 25
 28 41 l 25xe8
EndSplineSet
Validated: 1
EndChar

StartChar: periodcentered
Encoding: 183 183 152
Width: 35
Flags: W
HStem: 21 8<14 22>
VStem: 14 8<21 29>
LayerCount: 2
Back
Fore
SplineSet
14 21 m 29
 14 29 l 29
 22 29 l 29
 22 21 l 29
 14 21 l 29
EndSplineSet
Validated: 1
EndChar

StartChar: cedilla
Encoding: 184 184 153
Width: 35
Flags: W
HStem: -19 20G<16 22> -7 21G<16 22>
VStem: 16 6
LayerCount: 2
Back
Fore
SplineSet
16 1 m 29xa0
 20 1 l 29xa0
 22 -3 l 25
 20 -7 l 25
 16 -7 l 25x60
 18 -3 l 25
 16 1 l 29xa0
EndSplineSet
Validated: 1
EndChar

StartChar: uni00B9
Encoding: 185 185 154
Width: 35
Flags: W
HStem: 21 20G<12 24>
VStem: 20 4<21 35>
DStem2: 12 33 15 30 0.707107 0.707107<0 7.07107>
LayerCount: 2
Back
Fore
SplineSet
20 21 m 5
 20 35 l 5
 15 30 l 5
 12 33 l 5
 20 41 l 29
 24 41 l 29
 24 21 l 29
 20 21 l 5
EndSplineSet
Validated: 1
EndChar

StartChar: ordmasculine
Encoding: 186 186 155
Width: 35
Flags: W
HStem: 21 4<12 24> 37 4<12 24>
VStem: 8 4<25 37> 24 4<25 37>
LayerCount: 2
Back
Fore
SplineSet
24 37 m 25
 12 37 l 25
 12 25 l 25
 24 25 l 25
 24 37 l 25
12 41 m 25
 24 41 l 25
 28 37 l 25
 28 25 l 25
 24 21 l 25
 12 21 l 25
 8 25 l 25
 8 37 l 25
 12 41 l 25
EndSplineSet
Validated: 1
EndChar

StartChar: guillemotright
Encoding: 187 187 156
Width: 35
Flags: W
HStem: 1 21G<5 34>
DStem2: 8 37 5 34 0.707107 -0.707107<0 21.2132> 5 4 8 1 0.707107 0.707107<0 21.2132> 16 37 13 34 0.707107 -0.707107<0 21.2132> 13 4 16 1 0.707107 0.707107<0 21.2132>
LayerCount: 2
Back
Fore
SplineSet
5 34 m 5
 8 37 l 5
 26 19 l 5
 8 1 l 5
 5 4 l 5
 20 19 l 5
 5 34 l 5
13 34 m 5
 16 37 l 5
 34 19 l 5
 16 1 l 5
 13 4 l 5
 28 19 l 5
 13 34 l 5
EndSplineSet
Validated: 1
EndChar

StartChar: onequarter
Encoding: 188 188 157
Width: 35
Flags: W
HStem: -3 4<16 20 24 28> 13 4<8 28> 21 20G<12 24>
VStem: 20 4<-11 -3 1 5 21 35>
DStem2: 12 33 15 30 0.707107 0.707107<0 7.07107> 12 1 16 1 0.707107 0.707107<2.82843 8.48528>
LayerCount: 2
Back
Fore
SplineSet
16 1 m 1
 20 1 l 1
 20 5 l 1
 16 1 l 1
20 9 m 1
 24 9 l 1
 24 1 l 9
 28 1 l 25
 28 -3 l 25
 24 -3 l 25
 24 -11 l 25
 20 -11 l 25
 20 -3 l 25
 12 -3 l 25
 12 1 l 25
 20 9 l 1
28 17 m 25
 28 13 l 25
 8 13 l 25
 8 17 l 25
 28 17 l 25
20 21 m 1
 20 35 l 1
 15 30 l 1
 12 33 l 1
 20 41 l 25
 24 41 l 25
 24 21 l 25
 20 21 l 1
EndSplineSet
Validated: 1
EndChar

StartChar: onehalf
Encoding: 189 189 158
Width: 35
Flags: W
HStem: -11 4<16 24> 6 3<17 19> 13 4<8 28> 21 20G<12 24>
VStem: 12 4<3 5> 20 4<21 35> 21 3<3 5>
DStem2: 12 33 15 30 0.707107 0.707107<0 7.07107>
LayerCount: 2
Back
Fore
SplineSet
21 5 m 1xfa
 19 6 l 25
 17 6 l 25
 16 5 l 25
 16 3 l 25
 12 3 l 25
 12 5 l 25
 13 7 l 25
 17 9 l 25
 19 9 l 25
 23 7 l 25
 24 5 l 25
 24 3 l 25
 23 0 l 1
 18 -4 l 1
 16 -7 l 9
 24 -7 l 25
 24 -11 l 29xfa
 12 -11 l 25
 12 -7 l 25
 15 -3 l 1
 20 1 l 1xfc
 21 3 l 1
 21 5 l 1xfa
28 17 m 25
 28 13 l 25
 8 13 l 25
 8 17 l 25
 28 17 l 25
20 21 m 1xfc
 20 35 l 1
 15 30 l 1
 12 33 l 1
 20 41 l 25xfc
 24 41 l 25xfa
 24 21 l 25
 20 21 l 1xfc
EndSplineSet
Validated: 1
EndChar

StartChar: threequarters
Encoding: 190 190 159
Width: 35
Flags: W
HStem: -3 4<16 20 24 28> 6 20G<12 15> 13 4<8 28> 21 3<15 20> 30 2<17 20> 38 3<15 20>
VStem: 12 3<24 26 35 37> 20 4<-11 -3 1 5> 21 3<25 29 33 37>
DStem2: 12 1 16 1 0.707107 0.707107<2.82843 8.48528>
LayerCount: 2
Back
Fore
SplineSet
22 31 m 25x9e80
 24 29 l 25
 24 25 l 25x9e80
 23 22 l 25
 20 21 l 25
 15 21 l 25x9f
 12 23 l 25
 12 26 l 25
 15 26 l 25xcf
 15 24 l 25
 20 24 l 25x9f
 21 25 l 25
 21 29 l 25x9e80
 20 30 l 25
 17 30 l 25
 17 32 l 25
 20 32 l 25x9f
 21 33 l 25
 21 37 l 25x9e80
 20 38 l 25
 15 38 l 25
 15 35 l 25
 12 35 l 25
 12 37 l 25
 15 41 l 25
 20 41 l 25x9f
 23 40 l 25
 24 37 l 25
 24 33 l 25
 22 31 l 25x9e80
16 1 m 1
 20 1 l 1
 20 5 l 5x8f
 16 1 l 1
20 9 m 1
 24 9 l 1x8e80
 24 1 l 9
 28 1 l 25
 28 -3 l 25
 24 -3 l 25
 24 -11 l 25
 20 -11 l 25
 20 -3 l 25
 12 -3 l 25
 12 1 l 25
 20 9 l 1
28 17 m 25xae
 28 13 l 25
 8 13 l 25
 8 17 l 25
 28 17 l 25xae
EndSplineSet
Validated: 1
EndChar

StartChar: questiondown
Encoding: 191 191 160
Width: 35
Flags: W
HStem: -4 4<14 22> 32 4<16 20>
VStem: 6 4<4 12> 16 4<24 28 32 36> 26 4<4 12>
CounterMasks: 1 38
LayerCount: 2
Back
Fore
SplineSet
16 28 m 1
 20 28 l 25
 20 24 l 1
 24 22 l 1
 28 18 l 1
 30 12 l 1
 30 4 l 25
 28 0 l 25
 24 -4 l 25
 12 -4 l 25
 8 0 l 25
 6 4 l 25
 6 12 l 25
 10 12 l 25
 10 4 l 1
 14 0 l 1
 22 0 l 1
 26 4 l 1
 26 12 l 25
 24 16 l 1
 20 20 l 1
 16 22 l 1
 16 28 l 1
16 32 m 25
 16 36 l 25
 20 36 l 25
 20 32 l 25
 16 32 l 25
EndSplineSet
Validated: 1
EndChar

StartChar: Agrave
Encoding: 192 192 161
Width: 35
Flags: W
HStem: 1 21G<4 8 28 32> 13 4<8 28> 37 4<14 22>
VStem: 4 4<1 13 17 25> 28 4<1 13 17 25>
DStem2: 4 25 8 25 0.447214 0.894427<1.78885 13.4164> 15 57 12 54 0.707107 -0.707107<0 12.7279> 26 37 22 37 0.447214 -0.894427<0 11.6276>
LayerCount: 2
Back
Fore
SplineSet
24 45 m 5x38
 21 45 l 5
 12 54 l 5
 12 57 l 5
 15 57 l 5
 24 48 l 5
 24 45 l 5x38
28 17 m 25x78
 28 25 l 25
 22 37 l 25
 14 37 l 25
 8 25 l 25
 8 17 l 25
 28 17 l 25x78
4 1 m 25xb8
 4 25 l 25
 10 37 l 25
 14 41 l 25
 22 41 l 25
 26 37 l 25
 32 25 l 25
 32 1 l 25
 28 1 l 25xb8
 28 13 l 25
 8 13 l 25x78
 8 1 l 25
 4 1 l 25xb8
EndSplineSet
Validated: 1
EndChar

StartChar: Aacute
Encoding: 193 193 162
Width: 35
Flags: W
HStem: 1 21G<4 8 28 32> 13 4<8 28> 37 4<14 22>
VStem: 4 4<1 13 17 25> 28 4<1 13 17 25>
DStem2: 4 25 8 25 0.447214 0.894427<1.78885 13.4164> 12 48 15 45 0.707107 0.707107<0 12.7279> 26 37 22 37 0.447214 -0.894427<0 11.6276>
LayerCount: 2
Back
Fore
SplineSet
12 45 m 5x38
 12 48 l 5
 21 57 l 5
 24 57 l 5
 24 54 l 5
 15 45 l 5
 12 45 l 5x38
28 17 m 25x78
 28 25 l 25
 22 37 l 25
 14 37 l 25
 8 25 l 25
 8 17 l 25
 28 17 l 25x78
4 1 m 25xb8
 4 25 l 25
 10 37 l 25
 14 41 l 25
 22 41 l 25
 26 37 l 25
 32 25 l 25
 32 1 l 25
 28 1 l 25xb8
 28 13 l 25
 8 13 l 25x78
 8 1 l 25
 4 1 l 25xb8
EndSplineSet
Validated: 1
EndChar

StartChar: Acircumflex
Encoding: 194 194 163
Width: 35
Flags: W
HStem: 1 21G<4 8 28 32> 13 4<8 28> 37 4<14 22>
VStem: 4 4<1 13 17 25> 28 4<1 13 17 25>
DStem2: 4 25 8 25 0.447214 0.894427<1.78885 13.4164> 26 37 22 37 0.447214 -0.894427<0 11.6276>
LayerCount: 2
Back
Fore
SplineSet
12 45 m 29x38
 18 57 l 5
 24 45 l 29
 20 45 l 29
 18 49 l 5
 16 45 l 29
 12 45 l 29x38
28 17 m 25x78
 28 25 l 25
 22 37 l 25
 14 37 l 25
 8 25 l 25
 8 17 l 25
 28 17 l 25x78
4 1 m 25xb8
 4 25 l 25
 10 37 l 25
 14 41 l 25
 22 41 l 25
 26 37 l 25
 32 25 l 25
 32 1 l 25
 28 1 l 25xb8
 28 13 l 25
 8 13 l 25x78
 8 1 l 25
 4 1 l 25xb8
EndSplineSet
Validated: 1
EndChar

StartChar: Atilde
Encoding: 195 195 164
Width: 35
Flags: W
HStem: 1 21G<4 8 28 32> 13 4<8 28> 37 4<14 22> 45 4<20 28> 53 4<8 16>
VStem: 4 4<1 13 17 25 49 53> 16 4<49 53> 28 4<1 13 17 25 49 53>
DStem2: 4 25 8 25 0.447214 0.894427<1.78885 13.4164> 26 37 22 37 0.447214 -0.894427<0 11.6276>
CounterMasks: 1 07
LayerCount: 2
Back
Fore
SplineSet
4 49 m 29x3f
 4 53 l 29
 8 57 l 29
 16 57 l 29
 20 53 l 29
 20 49 l 29
 28 49 l 29
 28 53 l 29
 32 53 l 29
 32 49 l 29
 28 45 l 29
 20 45 l 29
 16 49 l 29
 16 53 l 29
 8 53 l 29
 8 49 l 29
 4 49 l 29x3f
28 17 m 25x7f
 28 25 l 25
 22 37 l 25
 14 37 l 25
 8 25 l 25
 8 17 l 25
 28 17 l 25x7f
4 1 m 25xbf
 4 25 l 25
 10 37 l 25
 14 41 l 25
 22 41 l 25
 26 37 l 25
 32 25 l 25
 32 1 l 25
 28 1 l 25xbf
 28 13 l 25
 8 13 l 25x7f
 8 1 l 25
 4 1 l 25xbf
EndSplineSet
Validated: 1
EndChar

StartChar: Adieresis
Encoding: 196 196 165
Width: 35
Flags: W
HStem: 1 21G<4 8 28 32> 13 4<8 28> 37 4<14 22> 45 4<12 16 20 24>
VStem: 4 4<1 13 17 25> 12 4<45 49> 20 4<45 49> 28 4<1 13 17 25>
DStem2: 4 25 8 25 0.447214 0.894427<1.78885 13.4164> 26 37 22 37 0.447214 -0.894427<0 11.6276>
LayerCount: 2
Back
Fore
SplineSet
20 45 m 5x3f
 20 49 l 5
 24 49 l 5
 24 45 l 5
 20 45 l 5x3f
16 45 m 5
 12 45 l 5
 12 49 l 5
 16 49 l 5
 16 45 l 5
28 17 m 25x7f
 28 25 l 25
 22 37 l 25
 14 37 l 25
 8 25 l 25
 8 17 l 25
 28 17 l 25x7f
4 1 m 25xbf
 4 25 l 25
 10 37 l 25
 14 41 l 25
 22 41 l 25
 26 37 l 25
 32 25 l 25
 32 1 l 25
 28 1 l 25xbf
 28 13 l 25
 8 13 l 25x7f
 8 1 l 25
 4 1 l 25xbf
EndSplineSet
Validated: 1
EndChar

StartChar: Aring
Encoding: 197 197 166
Width: 35
Flags: W
HStem: 1 21G<4 8 28 32> 13 4<8 28> 37 4<14 22> 45 4<16 20> 53 4<16 20>
VStem: 4 4<1 13 17 25> 12 4<49 53> 20 4<49 53> 28 4<1 13 17 25>
DStem2: 4 25 8 25 0.447214 0.894427<1.78885 13.4164> 26 37 22 37 0.447214 -0.894427<0 11.6276>
LayerCount: 2
Back
Fore
SplineSet
20 53 m 29x3f80
 16 53 l 29
 16 49 l 29
 20 49 l 29
 20 53 l 29x3f80
12 53 m 29
 16 57 l 29
 20 57 l 29
 24 53 l 29
 24 49 l 29
 20 45 l 29
 16 45 l 29
 12 49 l 29
 12 53 l 29
28 17 m 25x7f80
 28 25 l 25
 22 37 l 25
 14 37 l 25
 8 25 l 25
 8 17 l 25
 28 17 l 25x7f80
4 1 m 25xbf80
 4 25 l 25
 10 37 l 25
 14 41 l 25
 22 41 l 25
 26 37 l 25
 32 25 l 25
 32 1 l 25
 28 1 l 25xbf80
 28 13 l 25
 8 13 l 25x7f80
 8 1 l 25
 4 1 l 25xbf80
EndSplineSet
Validated: 1
EndChar

StartChar: AE
Encoding: 198 198 167
Width: 35
Flags: W
HStem: 1 4<20 32> 13 4<8 16> 21 4<20 28> 37 4<14 16 20 32>
VStem: 4 4<1 13 17 25> 16 4<5 13 17 21 25 37>
DStem2: 4 25 8 25 0.447214 0.894427<1.78885 13.4164>
LayerCount: 2
Back
Fore
SplineSet
16 37 m 29
 14 37 l 29
 8 25 l 29
 8 17 l 29
 16 17 l 29
 16 37 l 29
16 13 m 29
 8 13 l 29
 8 1 l 29
 4 1 l 29
 4 25 l 29
 10 37 l 29
 14 41 l 29
 32 41 l 29
 32 37 l 29
 20 37 l 29
 20 25 l 29
 28 25 l 29
 28 21 l 29
 20 21 l 29
 20 5 l 29
 32 5 l 29
 32 1 l 29
 16 1 l 21
 16 13 l 29
EndSplineSet
Validated: 1
EndChar

StartChar: Ccedilla
Encoding: 199 199 168
Width: 35
Flags: W
HStem: -7 21G<16 22> 1 4<12 16 20 24> 37 4<12 24>
VStem: 4 4<13 29> 26 4<9 13 29 33>
DStem2: 4 29 8 29 0.447214 0.894427<1.78885 8.94427> 8 13 4 13 0.447214 -0.894427<0 7.15542>
LayerCount: 2
Back
Fore
SplineSet
8 5 m 25x78
 4 13 l 25
 4 29 l 25
 8 37 l 25
 12 41 l 25
 24 41 l 25
 28 37 l 25
 30 33 l 25
 30 29 l 25
 26 29 l 25
 26 33 l 25
 24 37 l 25
 12 37 l 25
 8 29 l 25
 8 13 l 25
 12 5 l 25
 24 5 l 1
 26 9 l 25
 26 13 l 1
 30 13 l 25
 30 9 l 25
 28 5 l 25
 24 1 l 25
 20 1 l 25x78
 22 -3 l 25
 20 -7 l 25
 16 -7 l 25xb8
 18 -3 l 25
 16 1 l 25
 12 1 l 25
 8 5 l 25x78
EndSplineSet
Validated: 1
EndChar

StartChar: Egrave
Encoding: 200 200 169
Width: 35
Flags: W
HStem: 1 4<8 32> 21 4<8 24> 37 4<8 32>
VStem: 4 4<5 21 25 37>
DStem2: 15 57 12 54 0.707107 -0.707107<0 12.7279>
LayerCount: 2
Back
Fore
SplineSet
24 45 m 5
 21 45 l 5
 12 54 l 5
 12 57 l 5
 15 57 l 5
 24 48 l 5
 24 45 l 5
4 1 m 25
 4 41 l 25
 32 41 l 25
 32 37 l 25
 8 37 l 25
 8 25 l 25
 24 25 l 25
 24 21 l 25
 8 21 l 25
 8 5 l 25
 32 5 l 25
 32 1 l 25
 4 1 l 25
EndSplineSet
Validated: 1
EndChar

StartChar: Eacute
Encoding: 201 201 170
Width: 35
Flags: W
HStem: 1 4<8 32> 21 4<8 24> 37 4<8 32>
VStem: 4 4<5 21 25 37>
DStem2: 12 48 15 45 0.707107 0.707107<0 12.7279>
LayerCount: 2
Back
Fore
SplineSet
12 45 m 5
 12 48 l 5
 21 57 l 5
 24 57 l 5
 24 54 l 5
 15 45 l 5
 12 45 l 5
4 1 m 25
 4 41 l 25
 32 41 l 25
 32 37 l 25
 8 37 l 25
 8 25 l 25
 24 25 l 25
 24 21 l 25
 8 21 l 25
 8 5 l 25
 32 5 l 25
 32 1 l 25
 4 1 l 25
EndSplineSet
Validated: 1
EndChar

StartChar: Ecircumflex
Encoding: 202 202 171
Width: 35
Flags: W
HStem: 1 4<8 32> 21 4<8 24> 37 4<8 32>
VStem: 4 4<5 21 25 37>
LayerCount: 2
Back
Fore
SplineSet
12 45 m 29
 18 57 l 5
 24 45 l 29
 20 45 l 29
 18 49 l 5
 16 45 l 29
 12 45 l 29
4 1 m 25
 4 41 l 25
 32 41 l 25
 32 37 l 25
 8 37 l 25
 8 25 l 25
 24 25 l 25
 24 21 l 25
 8 21 l 25
 8 5 l 25
 32 5 l 25
 32 1 l 25
 4 1 l 25
EndSplineSet
Validated: 1
EndChar

StartChar: Edieresis
Encoding: 203 203 172
Width: 35
Flags: W
HStem: 1 4<8 32> 21 4<8 24> 37 4<8 32> 45 4<12 16 20 24>
VStem: 4 4<5 21 25 37> 12 4<45 49> 20 4<45 49>
CounterMasks: 1 0e
LayerCount: 2
Back
Fore
SplineSet
20 45 m 5
 20 49 l 5
 24 49 l 5
 24 45 l 5
 20 45 l 5
16 45 m 5
 12 45 l 5
 12 49 l 5
 16 49 l 5
 16 45 l 5
4 1 m 25
 4 41 l 25
 32 41 l 25
 32 37 l 25
 8 37 l 25
 8 25 l 25
 24 25 l 25
 24 21 l 25
 8 21 l 25
 8 5 l 25
 32 5 l 25
 32 1 l 25
 4 1 l 25
EndSplineSet
Validated: 1
EndChar

StartChar: Igrave
Encoding: 204 204 173
Width: 35
Flags: W
HStem: 1 4<8 16 20 28> 37 4<8 16 20 28>
VStem: 16 4<5 37>
DStem2: 15 57 12 54 0.707107 -0.707107<0 12.7279>
LayerCount: 2
Back
Fore
SplineSet
24 45 m 5
 21 45 l 5
 12 54 l 5
 12 57 l 5
 15 57 l 5
 24 48 l 5
 24 45 l 5
8 41 m 25
 28 41 l 25
 28 37 l 25
 20 37 l 25
 20 5 l 25
 28 5 l 25
 28 1 l 25
 8 1 l 25
 8 5 l 25
 16 5 l 25
 16 37 l 25
 8 37 l 25
 8 41 l 25
EndSplineSet
Validated: 1
EndChar

StartChar: Iacute
Encoding: 205 205 174
Width: 35
Flags: W
HStem: 1 4<8 16 20 28> 37 4<8 16 20 28>
VStem: 16 4<5 37>
DStem2: 12 48 15 45 0.707107 0.707107<0 12.7279>
LayerCount: 2
Back
Fore
SplineSet
12 45 m 5
 12 48 l 5
 21 57 l 5
 24 57 l 5
 24 54 l 5
 15 45 l 5
 12 45 l 5
8 41 m 25
 28 41 l 25
 28 37 l 25
 20 37 l 25
 20 5 l 25
 28 5 l 25
 28 1 l 25
 8 1 l 25
 8 5 l 25
 16 5 l 25
 16 37 l 25
 8 37 l 25
 8 41 l 25
EndSplineSet
Validated: 1
EndChar

StartChar: Icircumflex
Encoding: 206 206 175
Width: 35
Flags: W
HStem: 1 4<8 16 20 28> 37 4<8 16 20 28>
VStem: 16 4<5 37>
LayerCount: 2
Back
Fore
SplineSet
12 45 m 29
 18 57 l 5
 24 45 l 29
 20 45 l 29
 18 49 l 5
 16 45 l 29
 12 45 l 29
8 41 m 25
 28 41 l 25
 28 37 l 25
 20 37 l 25
 20 5 l 25
 28 5 l 25
 28 1 l 25
 8 1 l 25
 8 5 l 25
 16 5 l 25
 16 37 l 25
 8 37 l 25
 8 41 l 25
EndSplineSet
Validated: 1
EndChar

StartChar: Idieresis
Encoding: 207 207 176
Width: 35
Flags: W
HStem: 1 4<8 16 20 28> 37 4<8 16 20 28> 45 4<12 16 20 24>
VStem: 12 4<45 49> 16 4<5 37> 20 4<45 49>
LayerCount: 2
Back
Fore
SplineSet
20 45 m 5xe4
 20 49 l 5
 24 49 l 5
 24 45 l 5
 20 45 l 5xe4
16 45 m 5xf0
 12 45 l 5
 12 49 l 5
 16 49 l 5
 16 45 l 5xf0
8 41 m 25
 28 41 l 25
 28 37 l 25
 20 37 l 25
 20 5 l 25
 28 5 l 25
 28 1 l 25
 8 1 l 25
 8 5 l 25
 16 5 l 25
 16 37 l 25xe8
 8 37 l 25
 8 41 l 25
EndSplineSet
Validated: 1
EndChar

StartChar: Eth
Encoding: 208 208 177
Width: 35
Flags: W
HStem: 1 4<8 24> 21 4<0 4 8 20> 37 4<8 24>
VStem: 4 4<5 21 25 37> 28 4<9 33>
DStem2: 24 41 24 37 0.707107 -0.707107<2.82843 8.48528> 24 5 24 1 0.707107 0.707107<0 5.65685>
LayerCount: 2
Back
Fore
SplineSet
8 37 m 25
 8 25 l 25
 20 25 l 29
 20 21 l 29
 8 21 l 25
 8 5 l 25
 24 5 l 25
 28 9 l 25
 28 33 l 25
 24 37 l 25
 8 37 l 25
4 1 m 25
 4 21 l 25
 0 21 l 25
 0 25 l 25
 4 25 l 25
 4 41 l 25
 24 41 l 25
 32 33 l 25
 32 9 l 25
 24 1 l 25
 4 1 l 25
EndSplineSet
Validated: 1
EndChar

StartChar: Ntilde
Encoding: 209 209 178
Width: 35
Flags: W
HStem: 1 21G<4 8 24 32> 21 20G<4 12 28 32> 45 4<20 28> 53 4<8 16>
VStem: 4 4<1 29 49 53> 16 4<49 53> 28 4<17 41 49 53>
DStem2: 12 33 8 29 0.707107 -0.707107<0 22.6274>
CounterMasks: 1 0e
LayerCount: 2
Back
Fore
SplineSet
4 49 m 29x3e
 4 53 l 29
 8 57 l 29
 16 57 l 29
 20 53 l 29
 20 49 l 29
 28 49 l 29
 28 53 l 29
 32 53 l 29
 32 49 l 29
 28 45 l 29
 20 45 l 29
 16 49 l 29
 16 53 l 29
 8 53 l 29
 8 49 l 29
 4 49 l 29x3e
4 1 m 25xbe
 4 41 l 25
 8 41 l 25
 12 33 l 25
 28 17 l 25
 28 41 l 25
 32 41 l 25x7e
 32 1 l 25
 28 1 l 25
 24 13 l 25
 8 29 l 25
 8 1 l 25
 4 1 l 25xbe
EndSplineSet
Validated: 1
EndChar

StartChar: Ograve
Encoding: 210 210 179
Width: 35
Flags: W
HStem: 1 4<8 28> 37 4<8 28>
VStem: 4 4<5 37> 28 4<5 37>
DStem2: 15 57 12 54 0.707107 -0.707107<0 12.7279>
LayerCount: 2
Back
Fore
SplineSet
24 45 m 5
 21 45 l 5
 12 54 l 5
 12 57 l 5
 15 57 l 5
 24 48 l 5
 24 45 l 5
28 37 m 25
 8 37 l 25
 8 5 l 25
 28 5 l 25
 28 37 l 25
4 37 m 25
 8 41 l 25
 28 41 l 25
 32 37 l 25
 32 5 l 25
 28 1 l 25
 8 1 l 25
 4 5 l 25
 4 37 l 25
EndSplineSet
Validated: 1
EndChar

StartChar: Oacute
Encoding: 211 211 180
Width: 35
Flags: W
HStem: 1 4<8 28> 37 4<8 28>
VStem: 4 4<5 37> 28 4<5 37>
DStem2: 12 48 15 45 0.707107 0.707107<0 12.7279>
LayerCount: 2
Back
Fore
SplineSet
12 45 m 5
 12 48 l 5
 21 57 l 5
 24 57 l 5
 24 54 l 5
 15 45 l 5
 12 45 l 5
28 37 m 25
 8 37 l 25
 8 5 l 25
 28 5 l 25
 28 37 l 25
4 37 m 25
 8 41 l 25
 28 41 l 25
 32 37 l 25
 32 5 l 25
 28 1 l 25
 8 1 l 25
 4 5 l 25
 4 37 l 25
EndSplineSet
Validated: 1
EndChar

StartChar: Ocircumflex
Encoding: 212 212 181
Width: 35
Flags: W
HStem: 1 4<8 28> 37 4<8 28>
VStem: 4 4<5 37> 28 4<5 37>
LayerCount: 2
Back
Fore
SplineSet
12 45 m 29
 18 57 l 5
 24 45 l 29
 20 45 l 29
 18 49 l 5
 16 45 l 29
 12 45 l 29
28 37 m 25
 8 37 l 25
 8 5 l 25
 28 5 l 25
 28 37 l 25
4 37 m 25
 8 41 l 25
 28 41 l 25
 32 37 l 25
 32 5 l 25
 28 1 l 25
 8 1 l 25
 4 5 l 25
 4 37 l 25
EndSplineSet
Validated: 1
EndChar

StartChar: Otilde
Encoding: 213 213 182
Width: 35
Flags: W
HStem: 1 4<8 28> 37 4<8 28> 45 4<20 28> 53 4<8 16>
VStem: 4 4<5 37 49 53> 16 4<49 53> 28 4<5 37 49 53>
CounterMasks: 1 0e
LayerCount: 2
Back
Fore
SplineSet
4 49 m 29
 4 53 l 29
 8 57 l 29
 16 57 l 29
 20 53 l 29
 20 49 l 29
 28 49 l 29
 28 53 l 29
 32 53 l 29
 32 49 l 29
 28 45 l 29
 20 45 l 29
 16 49 l 29
 16 53 l 29
 8 53 l 29
 8 49 l 29
 4 49 l 29
28 37 m 25
 8 37 l 25
 8 5 l 25
 28 5 l 25
 28 37 l 25
4 37 m 25
 8 41 l 25
 28 41 l 25
 32 37 l 25
 32 5 l 25
 28 1 l 25
 8 1 l 25
 4 5 l 25
 4 37 l 25
EndSplineSet
Validated: 1
EndChar

StartChar: Odieresis
Encoding: 214 214 183
Width: 35
Flags: W
HStem: 1 4<8 28> 37 4<8 28> 45 4<12 16 20 24>
VStem: 4 4<5 37> 12 4<45 49> 20 4<45 49> 28 4<5 37>
LayerCount: 2
Back
Fore
SplineSet
20 45 m 5
 20 49 l 5
 24 49 l 5
 24 45 l 5
 20 45 l 5
16 45 m 5
 12 45 l 5
 12 49 l 5
 16 49 l 5
 16 45 l 5
28 37 m 25
 8 37 l 25
 8 5 l 25
 28 5 l 25
 28 37 l 25
4 37 m 25
 8 41 l 25
 28 41 l 25
 32 37 l 25
 32 5 l 25
 28 1 l 25
 8 1 l 25
 4 5 l 25
 4 37 l 25
EndSplineSet
Validated: 1
EndChar

StartChar: multiply
Encoding: 215 215 184
Width: 35
Flags: W
HStem: 5 16
VStem: 10 16
DStem2: 13 21 10 18 0.707107 -0.707107<0 7.07107 11.3137 18.3848> 10 8 13 5 0.707107 0.707107<0 7.07107 11.3137 18.3848>
LayerCount: 2
Back
Fore
SplineSet
10 18 m 1
 13 21 l 1
 18 16 l 1
 23 21 l 1
 26 18 l 1
 21 13 l 1
 26 8 l 1
 23 5 l 1
 18 10 l 1
 13 5 l 1
 10 8 l 1
 15 13 l 1
 10 18 l 1
EndSplineSet
Validated: 1
EndChar

StartChar: Oslash
Encoding: 216 216 185
Width: 35
Flags: W
HStem: 1 4<11 28> 37 4<8 25>
VStem: 4 4<8 37> 28 4<5 33>
DStem2: 0 -3 4 -5 0.529999 0.847998<0.423999 7.20799 21.5281 45.3679>
LayerCount: 2
Back
Fore
SplineSet
28 33 m 25
 11 5 l 25
 28 5 l 25
 28 33 l 25
8 37 m 25
 8 8 l 25
 25 37 l 25
 8 37 l 25
4 3 m 25
 4 37 l 25
 8 41 l 25
 28 41 l 25
 32 46 l 25
 36 43 l 25
 32 37 l 25
 32 5 l 25
 28 1 l 25
 8 1 l 25
 4 -5 l 25
 0 -3 l 25
 4 3 l 25
EndSplineSet
Validated: 1
EndChar

StartChar: Ugrave
Encoding: 217 217 186
Width: 35
Flags: W
HStem: 1 4<10 26> 21 20G<4 8 28 32>
VStem: 4 4<9 41> 28 4<9 41>
DStem2: 15 57 12 54 0.707107 -0.707107<0 12.7279>
LayerCount: 2
Back
Fore
SplineSet
24 45 m 5
 21 45 l 5
 12 54 l 5
 12 57 l 5
 15 57 l 5
 24 48 l 5
 24 45 l 5
4 41 m 25
 8 41 l 25
 8 9 l 25
 10 5 l 25
 26 5 l 25
 28 9 l 25
 28 41 l 25
 32 41 l 25
 32 9 l 25
 30 5 l 25
 26 1 l 25
 10 1 l 25
 6 5 l 25
 4 9 l 25
 4 41 l 25
EndSplineSet
Validated: 1
EndChar

StartChar: Uacute
Encoding: 218 218 187
Width: 35
Flags: W
HStem: 1 4<10 26> 21 20G<4 8 28 32>
VStem: 4 4<9 41> 28 4<9 41>
DStem2: 12 48 15 45 0.707107 0.707107<0 12.7279>
LayerCount: 2
Back
Fore
SplineSet
12 45 m 5
 12 48 l 5
 21 57 l 5
 24 57 l 5
 24 54 l 5
 15 45 l 5
 12 45 l 5
4 41 m 25
 8 41 l 25
 8 9 l 25
 10 5 l 25
 26 5 l 25
 28 9 l 25
 28 41 l 25
 32 41 l 25
 32 9 l 25
 30 5 l 25
 26 1 l 25
 10 1 l 25
 6 5 l 25
 4 9 l 25
 4 41 l 25
EndSplineSet
Validated: 1
EndChar

StartChar: Ucircumflex
Encoding: 219 219 188
Width: 35
Flags: W
HStem: 1 4<10 26> 21 20G<4 8 28 32>
VStem: 4 4<9 41> 28 4<9 41>
LayerCount: 2
Back
Fore
SplineSet
12 45 m 29
 18 57 l 5
 24 45 l 29
 20 45 l 29
 18 49 l 5
 16 45 l 29
 12 45 l 29
4 41 m 25
 8 41 l 25
 8 9 l 25
 10 5 l 25
 26 5 l 25
 28 9 l 25
 28 41 l 25
 32 41 l 25
 32 9 l 25
 30 5 l 25
 26 1 l 25
 10 1 l 25
 6 5 l 25
 4 9 l 25
 4 41 l 25
EndSplineSet
Validated: 1
EndChar

StartChar: Udieresis
Encoding: 220 220 189
Width: 35
Flags: W
HStem: 1 4<10 26> 21 20G<4 8 28 32> 45 4<12 16 20 24>
VStem: 4 4<9 41> 12 4<45 49> 20 4<45 49> 28 4<9 41>
LayerCount: 2
Back
Fore
SplineSet
20 45 m 5
 20 49 l 5
 24 49 l 5
 24 45 l 5
 20 45 l 5
16 45 m 5
 12 45 l 5
 12 49 l 5
 16 49 l 5
 16 45 l 5
4 41 m 25
 8 41 l 25
 8 9 l 25
 10 5 l 25
 26 5 l 25
 28 9 l 25
 28 41 l 25
 32 41 l 25
 32 9 l 25
 30 5 l 25
 26 1 l 25
 10 1 l 25
 6 5 l 25
 4 9 l 25
 4 41 l 25
EndSplineSet
Validated: 1
EndChar

StartChar: Yacute
Encoding: 221 221 190
Width: 35
Flags: W
HStem: 1 21G<16 20> 21 20G<6 18 18 30>
VStem: 16 4<1 21>
DStem2: 10 41 6 41 0.447214 -0.894427<0 17.8885> 12 48 15 45 0.707107 0.707107<0 12.7279> 18 25 20 21 0.447214 0.894427<0 17.8885>
LayerCount: 2
Back
Fore
SplineSet
12 45 m 5x20
 12 48 l 5
 21 57 l 5
 24 57 l 5
 24 54 l 5
 15 45 l 5
 12 45 l 5x20
10 41 m 25x60
 18 25 l 25
 26 41 l 25
 30 41 l 25
 20 21 l 25x60
 20 1 l 25
 16 1 l 25xa0
 16 21 l 25
 6 41 l 25
 10 41 l 25x60
EndSplineSet
Validated: 1
EndChar

StartChar: Thorn
Encoding: 222 222 191
Width: 35
Flags: W
HStem: 5 4<8 24> 21 4<8 24>
VStem: 4 4<-3 5 9 21 25 33> 24 4<9 21>
LayerCount: 2
Back
Fore
SplineSet
8 9 m 25
 24 9 l 25
 24 21 l 25
 8 21 l 25
 8 9 l 25
4 33 m 25
 8 33 l 25
 8 25 l 25
 24 25 l 25
 28 21 l 25
 28 9 l 25
 24 5 l 25
 8 5 l 25
 8 -3 l 25
 4 -3 l 25
 4 33 l 25
EndSplineSet
Validated: 1
EndChar

StartChar: germandbls
Encoding: 223 223 192
Width: 35
Flags: W
HStem: -7 21G<6 10> 1 4<10 26> 17 4<14 22> 37 4<12 24>
VStem: 6 4<-7 1 5 33> 26 4<5 17 25 33>
LayerCount: 2
Back
Fore
SplineSet
26 33 m 25x7c
 24 37 l 25
 12 37 l 25
 10 33 l 25
 10 5 l 25
 26 5 l 25
 26 17 l 25
 14 17 l 25
 14 21 l 25
 22 21 l 25
 26 25 l 25
 26 33 l 25x7c
6 -7 m 25xbc
 6 33 l 25
 8 37 l 25
 12 41 l 25
 24 41 l 25
 28 37 l 25
 30 33 l 25
 30 25 l 25
 26 21 l 25
 30 17 l 25
 30 5 l 25
 26 1 l 25
 10 1 l 25x7c
 10 -7 l 25
 6 -7 l 25xbc
EndSplineSet
Validated: 1
EndChar

StartChar: agrave
Encoding: 224 224 193
Width: 35
Flags: W
HStem: 1 4<10 26 30 32> 13 4<10 26> 21 20G<12 24> 21 4<8 26>
VStem: 6 4<5 13> 26 4<5 13 17 21>
DStem2: 15 41 12 38 0.707107 -0.707107<0 12.7279>
LayerCount: 2
Back
Fore
SplineSet
24 29 m 5xec
 21 29 l 5
 12 38 l 5
 12 41 l 5
 15 41 l 5
 24 32 l 5
 24 29 l 5xec
10 5 m 25
 26 5 l 25
 26 13 l 25
 10 13 l 25
 10 5 l 25
8 1 m 25
 6 5 l 25
 6 13 l 25
 10 17 l 25
 26 17 l 25
 26 21 l 25
 8 21 l 25
 8 25 l 25
 28 25 l 25
 30 21 l 25xdc
 30 5 l 25
 32 5 l 25
 32 1 l 25
 8 1 l 25
EndSplineSet
Validated: 1
EndChar

StartChar: aacute
Encoding: 225 225 194
Width: 35
Flags: W
HStem: 1 4<10 26 30 32> 13 4<10 26> 21 20G<12 24> 21 4<8 26>
VStem: 6 4<5 13> 26 4<5 13 17 21>
DStem2: 12 32 15 29 0.707107 0.707107<0 12.7279>
LayerCount: 2
Back
Fore
SplineSet
12 29 m 5xec
 12 32 l 5
 21 41 l 5
 24 41 l 5
 24 38 l 5
 15 29 l 5
 12 29 l 5xec
10 5 m 25
 26 5 l 25
 26 13 l 25
 10 13 l 25
 10 5 l 25
8 1 m 25
 6 5 l 25
 6 13 l 25
 10 17 l 25
 26 17 l 25
 26 21 l 25
 8 21 l 25
 8 25 l 25
 28 25 l 25
 30 21 l 25xdc
 30 5 l 25
 32 5 l 25
 32 1 l 25
 8 1 l 25
EndSplineSet
Validated: 1
EndChar

StartChar: acircumflex
Encoding: 226 226 195
Width: 35
Flags: W
HStem: 1 4<10 26 30 32> 13 4<10 26> 21 20G<12 24> 21 4<8 26>
VStem: 6 4<5 13> 26 4<5 13 17 21>
LayerCount: 2
Back
Fore
SplineSet
12 29 m 29xec
 18 41 l 5
 24 29 l 29
 20 29 l 29
 18 33 l 5
 16 29 l 29
 12 29 l 29xec
26 13 m 25
 10 13 l 25
 10 5 l 25
 26 5 l 25
 26 13 l 25
8 25 m 25xdc
 28 25 l 25
 30 21 l 25
 30 5 l 25
 32 5 l 25
 32 1 l 25
 8 1 l 25
 6 5 l 25
 6 13 l 25
 10 17 l 25
 26 17 l 25
 26 21 l 25
 8 21 l 25
 8 25 l 25xdc
EndSplineSet
Validated: 1
EndChar

StartChar: atilde
Encoding: 227 227 196
Width: 35
Flags: W
HStem: 1 4<10 26 30 32> 13 4<10 26> 21 4<8 26> 29 4<20 28> 37 4<8 16>
VStem: 4 4<33 37> 6 4<5 13> 16 4<33 37> 26 4<5 13 17 21>
LayerCount: 2
Back
Fore
SplineSet
4 33 m 29xfd80
 4 37 l 29
 8 41 l 29
 16 41 l 29
 20 37 l 29
 20 33 l 29
 28 33 l 29
 28 37 l 29
 32 37 l 29
 32 33 l 29
 28 29 l 29
 20 29 l 29
 16 33 l 29
 16 37 l 29
 8 37 l 29
 8 33 l 29
 4 33 l 29xfd80
26 13 m 25
 10 13 l 25
 10 5 l 25xfb80
 26 5 l 25
 26 13 l 25
8 25 m 25xfd80
 28 25 l 25
 30 21 l 25
 30 5 l 25
 32 5 l 25
 32 1 l 25
 8 1 l 25xfd80
 6 5 l 25
 6 13 l 25
 10 17 l 25xfb80
 26 17 l 25
 26 21 l 25
 8 21 l 25
 8 25 l 25xfd80
EndSplineSet
Validated: 1
EndChar

StartChar: adieresis
Encoding: 228 228 197
Width: 35
Flags: W
HStem: 1 4<10 26 30 32> 13 4<10 26> 21 4<8 26> 29 4<12 16 20 24>
VStem: 6 4<5 13> 12 4<29 33> 20 4<29 33> 26 4<5 13 17 21>
LayerCount: 2
Back
Fore
SplineSet
20 29 m 5
 20 33 l 5
 24 33 l 5
 24 29 l 5
 20 29 l 5
16 29 m 5
 12 29 l 5
 12 33 l 5
 16 33 l 5
 16 29 l 5
26 13 m 25
 10 13 l 25
 10 5 l 25
 26 5 l 25
 26 13 l 25
8 25 m 25
 28 25 l 25
 30 21 l 25
 30 5 l 25
 32 5 l 25
 32 1 l 25
 8 1 l 25
 6 5 l 25
 6 13 l 25
 10 17 l 25
 26 17 l 25
 26 21 l 25
 8 21 l 25
 8 25 l 25
EndSplineSet
Validated: 1
EndChar

StartChar: aring
Encoding: 229 229 198
Width: 35
Flags: W
HStem: 1 4<10 26 30 32> 13 4<10 26> 21 4<8 26> 29 4<16 20> 37 4<16 20>
VStem: 6 4<5 13> 12 4<33 37> 20 4<33 37> 26 4<5 13 17 21>
LayerCount: 2
Back
Fore
SplineSet
20 37 m 29
 16 37 l 29
 16 33 l 29
 20 33 l 29
 20 37 l 29
12 37 m 29
 16 41 l 29
 20 41 l 29
 24 37 l 29
 24 33 l 29
 20 29 l 29
 16 29 l 29
 12 33 l 29
 12 37 l 29
26 13 m 25
 10 13 l 25
 10 5 l 25
 26 5 l 25
 26 13 l 25
8 25 m 25
 28 25 l 25
 30 21 l 25
 30 5 l 25
 32 5 l 25
 32 1 l 25
 8 1 l 25
 6 5 l 25
 6 13 l 25
 10 17 l 25
 26 17 l 25
 26 21 l 25
 8 21 l 25
 8 25 l 25
EndSplineSet
Validated: 1
EndChar

StartChar: ae
Encoding: 230 230 199
Width: 35
Flags: W
HStem: 1 4<10 18 22 34> 13 4<10 18 22 30> 21 4<8 18 22 30>
VStem: 6 4<5 13> 18 4<5 13 17 21> 30 4<17 21>
CounterMasks: 1 1c
LayerCount: 2
Back
Fore
SplineSet
22 21 m 29
 22 17 l 29
 30 17 l 29
 30 21 l 29
 22 21 l 29
22 5 m 29
 34 5 l 29
 34 1 l 29
 8 1 l 29
 6 5 l 29
 6 13 l 29
 10 17 l 29
 18 17 l 29
 18 21 l 29
 8 21 l 29
 8 25 l 29
 18 25 l 29
 20 23 l 5
 22 25 l 13
 30 25 l 29
 34 21 l 29
 34 13 l 29
 22 13 l 29
 22 5 l 29
10 5 m 29
 18 5 l 29
 18 13 l 29
 10 13 l 29
 10 5 l 29
EndSplineSet
Validated: 1
EndChar

StartChar: ccedilla
Encoding: 231 231 200
Width: 35
Flags: W
HStem: -7 21G<16 22> 1 4<10 16 20 26> 21 4<10 26>
VStem: 6 4<5 21> 26 4<5 9 17 21>
LayerCount: 2
Back
Fore
SplineSet
30 5 m 25x78
 26 1 l 25
 20 1 l 29x78
 22 -3 l 29
 20 -7 l 29
 16 -7 l 29xb8
 18 -3 l 29
 16 1 l 29
 10 1 l 25
 6 5 l 25
 6 21 l 25
 10 25 l 25
 26 25 l 25
 30 21 l 25
 30 17 l 25
 26 17 l 25
 26 21 l 25
 10 21 l 25
 10 5 l 25
 26 5 l 25
 26 9 l 25
 30 9 l 25
 30 5 l 25x78
EndSplineSet
Validated: 1
EndChar

StartChar: egrave
Encoding: 232 232 201
Width: 35
Flags: W
HStem: 1 4<10 30> 13 4<10 26> 21 20G<12 24> 21 4<10 26>
VStem: 6 4<5 13 17 21> 26 4<17 21>
DStem2: 15 41 12 38 0.707107 -0.707107<0 12.7279>
LayerCount: 2
Back
Fore
SplineSet
24 29 m 1xec
 21 29 l 1
 12 38 l 1
 12 41 l 1
 15 41 l 1
 24 32 l 1
 24 29 l 1xec
10 21 m 29xdc
 10 17 l 29
 26 17 l 29
 26 21 l 29
 10 21 l 29xdc
6 21 m 29
 10 25 l 29
 26 25 l 29
 30 21 l 29
 30 13 l 29
 10 13 l 29
 10 5 l 29
 30 5 l 29
 30 1 l 29
 10 1 l 29
 6 5 l 29
 6 21 l 29
EndSplineSet
Validated: 1
EndChar

StartChar: eacute
Encoding: 233 233 202
Width: 35
Flags: W
HStem: 1 4<10 30> 13 4<10 26> 21 20G<12 24> 21 4<10 26>
VStem: 6 4<5 13 17 21> 26 4<17 21>
DStem2: 12 32 15 29 0.707107 0.707107<0 12.7279>
LayerCount: 2
Back
Fore
SplineSet
12 29 m 5xec
 12 32 l 5
 21 41 l 5
 24 41 l 5
 24 38 l 5
 15 29 l 5
 12 29 l 5xec
10 21 m 25xdc
 10 17 l 25
 26 17 l 25
 26 21 l 25
 10 21 l 25xdc
6 21 m 25
 10 25 l 25
 26 25 l 25
 30 21 l 25
 30 13 l 25
 10 13 l 25
 10 5 l 25
 30 5 l 25
 30 1 l 25
 10 1 l 25
 6 5 l 25
 6 21 l 25
EndSplineSet
Validated: 1
EndChar

StartChar: ecircumflex
Encoding: 234 234 203
Width: 35
Flags: W
HStem: 1 4<10 30> 13 4<10 26> 21 20G<12 24> 21 4<10 26>
VStem: 6 4<5 13 17 21> 26 4<17 21>
LayerCount: 2
Back
Fore
SplineSet
12 29 m 29xec
 18 41 l 5
 24 29 l 29
 20 29 l 29
 18 33 l 5
 16 29 l 29
 12 29 l 29xec
10 21 m 25xdc
 10 17 l 25
 26 17 l 25
 26 21 l 25
 10 21 l 25xdc
6 21 m 25
 10 25 l 25
 26 25 l 25
 30 21 l 25
 30 13 l 25
 10 13 l 25
 10 5 l 25
 30 5 l 25
 30 1 l 25
 10 1 l 25
 6 5 l 25
 6 21 l 25
EndSplineSet
Validated: 1
EndChar

StartChar: edieresis
Encoding: 235 235 204
Width: 35
Flags: W
HStem: 1 4<10 30> 13 4<10 26> 21 4<10 26> 29 4<12 16 20 24>
VStem: 6 4<5 13 17 21> 20 4<29 33> 26 4<17 21>
LayerCount: 2
Back
Fore
SplineSet
20 29 m 5
 20 33 l 5
 24 33 l 5
 24 29 l 5
 20 29 l 5
16 29 m 5
 12 29 l 5
 12 33 l 5
 16 33 l 5
 16 29 l 5
10 21 m 25
 10 17 l 25
 26 17 l 25
 26 21 l 25
 10 21 l 25
6 21 m 25
 10 25 l 25
 26 25 l 25
 30 21 l 25
 30 13 l 25
 10 13 l 25
 10 5 l 25
 30 5 l 25
 30 1 l 25
 10 1 l 25
 6 5 l 25
 6 21 l 25
EndSplineSet
Validated: 1
EndChar

StartChar: igrave
Encoding: 236 236 205
Width: 35
Flags: W
HStem: 1 4<10 16 20 26> 21 20G<8 20> 21 4<12 16>
VStem: 12 8<21 25> 16 4<5 21>
DStem2: 11 41 8 38 0.707107 -0.707107<0 12.7279>
LayerCount: 2
Back
Fore
SplineSet
20 29 m 5xc8
 17 29 l 5
 8 38 l 5
 8 41 l 5
 11 41 l 5
 20 32 l 5
 20 29 l 5xc8
12 25 m 25xb0
 20 25 l 25xb0
 20 5 l 25
 26 5 l 25
 26 1 l 25
 10 1 l 25
 10 5 l 25
 16 5 l 25
 16 21 l 25xc8
 12 21 l 25xd0
 12 25 l 25xb0
EndSplineSet
Validated: 1
EndChar

StartChar: iacute
Encoding: 237 237 206
Width: 35
Flags: W
HStem: 1 4<10 16 20 26> 21 20G<16 28> 21 4<12 16>
VStem: 12 8<21 25> 16 4<5 21>
DStem2: 16 32 19 29 0.707107 0.707107<0 12.7279>
LayerCount: 2
Back
Fore
SplineSet
16 29 m 5xc8
 16 32 l 5
 25 41 l 5
 28 41 l 5
 28 38 l 5
 19 29 l 5
 16 29 l 5xc8
12 25 m 25xb0
 20 25 l 25xb0
 20 5 l 25
 26 5 l 25
 26 1 l 25
 10 1 l 25
 10 5 l 25
 16 5 l 25
 16 21 l 25xc8
 12 21 l 25
 12 25 l 25xb0
EndSplineSet
Validated: 1
EndChar

StartChar: icircumflex
Encoding: 238 238 207
Width: 35
Flags: W
HStem: 1 4<10 16 20 26> 21 20G<12 24> 21 4<12 16>
VStem: 12 8<21 25> 16 4<5 21>
LayerCount: 2
Back
Fore
SplineSet
12 29 m 29xd0
 18 41 l 1
 24 29 l 25
 20 29 l 25
 18 33 l 1
 16 29 l 29xc8
 12 29 l 29xd0
12 25 m 25xb0
 20 25 l 25xb0
 20 5 l 25
 26 5 l 25
 26 1 l 25
 10 1 l 25
 10 5 l 25
 16 5 l 25
 16 21 l 25xc8
 12 21 l 25xd0
 12 25 l 25xb0
EndSplineSet
Validated: 1
EndChar

StartChar: idieresis
Encoding: 239 239 208
Width: 35
Flags: W
HStem: 1 4<10 16 20 26> 21 4<12 16> 29 4<12 16 20 24>
VStem: 12 4<29 33> 16 4<5 21> 20 4<29 33>
LayerCount: 2
Back
Fore
SplineSet
20 29 m 5xe4
 20 33 l 5
 24 33 l 5
 24 29 l 5
 20 29 l 5xe4
16 29 m 5xf0
 12 29 l 5
 12 33 l 5
 16 33 l 5
 16 29 l 5xf0
12 25 m 25
 20 25 l 25xf4
 20 5 l 25
 26 5 l 25
 26 1 l 25
 10 1 l 25
 10 5 l 25
 16 5 l 25
 16 21 l 25xe8
 12 21 l 25
 12 25 l 25
EndSplineSet
Validated: 1
EndChar

StartChar: eth
Encoding: 240 240 209
Width: 35
Flags: W
HStem: 1 4<10 26 30 32> 21 20G<24 30> 21 4<10 26>
VStem: 6 4<5 21> 26 4<5 21 25 31>
DStem2: 22 33 22 29 0.894427 0.447214<0 2.68328 8.94427 11.6276>
LayerCount: 2
Back
Fore
SplineSet
26 21 m 29xd8
 10 21 l 29xb8
 10 5 l 29
 26 5 l 29
 26 21 l 29xd8
30 5 m 29
 32 5 l 29
 32 1 l 29
 8 1 l 29
 6 5 l 29
 6 21 l 29
 10 25 l 29
 26 25 l 29xb8
 26 31 l 29
 22 29 l 29
 22 33 l 29
 26 35 l 29
 24 39 l 29
 28 41 l 29xd8
 30 37 l 29
 34 39 l 29
 34 35 l 29
 30 33 l 29
 30 5 l 29
EndSplineSet
Validated: 1
EndChar

StartChar: ntilde
Encoding: 241 241 210
Width: 35
Flags: W
HStem: 1 21G<6 10 26 30> 21 4<4 6 10 26> 29 4<20 28> 37 4<8 16>
VStem: 4 4<33 37> 6 4<1 21> 16 4<33 37> 26 4<1 21> 28 4<33 37>
LayerCount: 2
Back
Fore
SplineSet
4 33 m 25x3a80
 4 37 l 25
 8 41 l 25
 16 41 l 25
 20 37 l 25
 20 33 l 25
 28 33 l 25
 28 37 l 25
 32 37 l 25
 32 33 l 25
 28 29 l 25
 20 29 l 25
 16 33 l 25
 16 37 l 25
 8 37 l 25
 8 33 l 25
 4 33 l 25x3a80
4 25 m 25x7a
 28 25 l 25x7a80
 30 21 l 25x73
 30 1 l 25
 26 1 l 25xb3
 26 21 l 25
 10 21 l 25x77
 10 1 l 25
 6 1 l 25xb7
 6 21 l 25x77
 4 21 l 25
 4 25 l 25x7a
EndSplineSet
Validated: 1
EndChar

StartChar: ograve
Encoding: 242 242 211
Width: 35
Flags: W
HStem: 1 4<10 26> 21 20G<12 24> 21 4<10 26>
VStem: 6 4<5 21> 26 4<5 21>
DStem2: 15 41 12 38 0.707107 -0.707107<0 12.7279>
LayerCount: 2
Back
Fore
SplineSet
24 29 m 5xd8
 21 29 l 5
 12 38 l 5
 12 41 l 5
 15 41 l 5
 24 32 l 5
 24 29 l 5xd8
26 21 m 25xb8
 10 21 l 25
 10 5 l 25
 26 5 l 25
 26 21 l 25xb8
6 21 m 25
 10 25 l 25
 26 25 l 25
 30 21 l 25
 30 5 l 25
 26 1 l 25
 10 1 l 25
 6 5 l 25
 6 21 l 25
EndSplineSet
Validated: 1
EndChar

StartChar: oacute
Encoding: 243 243 212
Width: 35
Flags: W
HStem: 1 4<10 26> 21 20G<12 24> 21 4<10 26>
VStem: 6 4<5 21> 26 4<5 21>
DStem2: 12 32 15 29 0.707107 0.707107<0 12.7279>
LayerCount: 2
Back
Fore
SplineSet
12 29 m 5xd8
 12 32 l 5
 21 41 l 5
 24 41 l 5
 24 38 l 5
 15 29 l 5
 12 29 l 5xd8
26 21 m 25xb8
 10 21 l 25
 10 5 l 25
 26 5 l 25
 26 21 l 25xb8
6 21 m 25
 10 25 l 25
 26 25 l 25
 30 21 l 25
 30 5 l 25
 26 1 l 25
 10 1 l 25
 6 5 l 25
 6 21 l 25
EndSplineSet
Validated: 1
EndChar

StartChar: ocircumflex
Encoding: 244 244 213
Width: 35
Flags: W
HStem: 1 4<10 26> 21 20G<12 24> 21 4<10 26>
VStem: 6 4<5 21> 26 4<5 21>
LayerCount: 2
Back
Fore
SplineSet
12 29 m 29xd8
 18 41 l 5
 24 29 l 29
 20 29 l 29
 18 33 l 5
 16 29 l 29
 12 29 l 29xd8
26 21 m 25xb8
 10 21 l 25
 10 5 l 25
 26 5 l 25
 26 21 l 25xb8
6 21 m 25
 10 25 l 25
 26 25 l 25
 30 21 l 25
 30 5 l 25
 26 1 l 25
 10 1 l 25
 6 5 l 25
 6 21 l 25
EndSplineSet
Validated: 1
EndChar

StartChar: otilde
Encoding: 245 245 214
Width: 35
Flags: W
HStem: 1 4<10 26> 21 4<10 26> 29 4<20 28> 37 4<8 16>
VStem: 4 4<33 37> 6 4<5 21> 16 4<33 37> 26 4<5 21> 28 4<33 37>
LayerCount: 2
Back
Fore
SplineSet
4 33 m 29xfa80
 4 37 l 29
 8 41 l 29
 16 41 l 29
 20 37 l 29
 20 33 l 29
 28 33 l 29
 28 37 l 29
 32 37 l 29
 32 33 l 29
 28 29 l 29
 20 29 l 29
 16 33 l 29
 16 37 l 29
 8 37 l 29
 8 33 l 29
 4 33 l 29xfa80
26 21 m 25xf7
 10 21 l 25
 10 5 l 25
 26 5 l 25
 26 21 l 25xf7
6 21 m 25
 10 25 l 25
 26 25 l 25
 30 21 l 25
 30 5 l 25
 26 1 l 25
 10 1 l 25
 6 5 l 25
 6 21 l 25
EndSplineSet
Validated: 1
EndChar

StartChar: odieresis
Encoding: 246 246 215
Width: 35
Flags: W
HStem: 1 4<10 26> 21 4<10 26> 29 4<12 16 20 24>
VStem: 6 4<5 21> 12 4<29 33> 20 4<29 33> 26 4<5 21>
LayerCount: 2
Back
Fore
SplineSet
20 29 m 5
 20 33 l 5
 24 33 l 5
 24 29 l 5
 20 29 l 5
16 29 m 5
 12 29 l 5
 12 33 l 5
 16 33 l 5
 16 29 l 5
26 21 m 25
 10 21 l 25
 10 5 l 25
 26 5 l 25
 26 21 l 25
6 21 m 25
 10 25 l 25
 26 25 l 25
 30 21 l 25
 30 5 l 25
 26 1 l 25
 10 1 l 25
 6 5 l 25
 6 21 l 25
EndSplineSet
Validated: 1
EndChar

StartChar: divide
Encoding: 247 247 216
Width: 35
Flags: W
HStem: 9 4<16 20> 17 4<6 30> 25 4<16 20>
VStem: 16 4<9 13 25 29>
CounterMasks: 1 e0
LayerCount: 2
Back
Fore
SplineSet
16 25 m 29
 16 29 l 25
 20 29 l 25
 20 25 l 25
 16 25 l 29
16 13 m 25
 20 13 l 25
 20 9 l 25
 16 9 l 25
 16 13 l 25
6 21 m 25
 30 21 l 25
 30 17 l 25
 6 17 l 25
 6 21 l 25
EndSplineSet
Validated: 1
EndChar

StartChar: oslash
Encoding: 248 248 217
Width: 35
Flags: W
HStem: 1 4<13 26> 21 4<10 24>
VStem: 6 4<8 21> 26 4<5 18>
DStem2: 2 1 6 -3 0.707107 0.707107<0 5.65685 33.9411 39.598> 10 8 13 5 0.707107 0.707107<0 18.3848>
LayerCount: 2
Back
Fore
SplineSet
26 5 m 25
 26 18 l 25
 13 5 l 25
 26 5 l 25
10 21 m 29
 10 8 l 25
 24 21 l 25
 10 21 l 29
6 21 m 25
 10 25 l 25
 26 25 l 25
 30 29 l 25
 34 25 l 25
 30 21 l 25
 30 5 l 25
 26 1 l 25
 10 1 l 25
 6 -3 l 25
 2 1 l 25
 6 5 l 25
 6 21 l 25
EndSplineSet
Validated: 1
EndChar

StartChar: ugrave
Encoding: 249 249 218
Width: 35
Flags: W
HStem: 1 4<10 26 30 32> 5 20G<6 10 26 30> 21 20G<12 24>
VStem: 6 4<5 25> 26 4<5 25>
DStem2: 15 41 12 38 0.707107 -0.707107<0 12.7279>
LayerCount: 2
Back
Fore
SplineSet
24 29 m 5x38
 21 29 l 5
 12 38 l 5
 12 41 l 5
 15 41 l 5
 24 32 l 5
 24 29 l 5x38
6 25 m 25x58
 10 25 l 25x58
 10 5 l 25
 26 5 l 25x98
 26 25 l 25
 30 25 l 25x58
 30 5 l 25
 32 5 l 25
 32 1 l 25
 8 1 l 25x98
 6 5 l 25
 6 25 l 25x58
EndSplineSet
Validated: 1
EndChar

StartChar: uacute
Encoding: 250 250 219
Width: 35
Flags: W
HStem: 1 4<10 26 30 32> 5 20G<6 10 26 30> 21 20G<12 24>
VStem: 6 4<5 25> 26 4<5 25>
DStem2: 12 32 15 29 0.707107 0.707107<0 12.7279>
LayerCount: 2
Back
Fore
SplineSet
12 29 m 5x38
 12 32 l 5
 21 41 l 5
 24 41 l 5
 24 38 l 5
 15 29 l 5
 12 29 l 5x38
6 25 m 25x58
 10 25 l 25x58
 10 5 l 25
 26 5 l 25x98
 26 25 l 25
 30 25 l 25x58
 30 5 l 25
 32 5 l 25
 32 1 l 25
 8 1 l 25x98
 6 5 l 25
 6 25 l 25x58
EndSplineSet
Validated: 1
EndChar

StartChar: ucircumflex
Encoding: 251 251 220
Width: 35
Flags: W
HStem: 1 4<10 26 30 32> 5 20G<6 10 26 30> 21 20G<12 24>
VStem: 6 4<5 25> 26 4<5 25>
LayerCount: 2
Back
Fore
SplineSet
12 29 m 29x38
 18 41 l 5
 24 29 l 29
 20 29 l 29
 18 33 l 5
 16 29 l 29
 12 29 l 29x38
6 25 m 25x58
 10 25 l 25x58
 10 5 l 25
 26 5 l 25x98
 26 25 l 25
 30 25 l 25x58
 30 5 l 25
 32 5 l 25
 32 1 l 25
 8 1 l 25x98
 6 5 l 25
 6 25 l 25x58
EndSplineSet
Validated: 1
EndChar

StartChar: udieresis
Encoding: 252 252 221
Width: 35
Flags: W
HStem: 1 4<10 26 30 32> 5 20G<6 10 26 30> 29 4<12 16 20 24>
VStem: 6 4<5 25> 12 4<29 33> 20 4<29 33> 26 4<5 25>
LayerCount: 2
Back
Fore
SplineSet
20 29 m 1x3e
 20 33 l 1
 24 33 l 1
 24 29 l 1
 20 29 l 1x3e
16 29 m 1
 12 29 l 1
 12 33 l 1
 16 33 l 1
 16 29 l 1
6 25 m 25x7e
 10 25 l 25x7e
 10 5 l 25
 26 5 l 25xbe
 26 25 l 25
 30 25 l 25x7e
 30 5 l 25
 32 5 l 25
 32 1 l 25
 8 1 l 25xbe
 6 5 l 25
 6 25 l 25x7e
EndSplineSet
Validated: 1
EndChar

StartChar: yacute
Encoding: 253 253 222
Width: 35
Flags: W
HStem: -7 4<6 10> 5 20G<8 18 18 28> 21 20G<12 24>
DStem2: 12 25 8 25 0.447214 -0.894427<0 13.4164> 10 -3 12 -7 0.447214 0.894427<0 13.4164 17.8885 31.305> 12 32 15 29 0.707107 0.707107<0 12.7279>
LayerCount: 2
Back
Fore
SplineSet
12 29 m 5xa0
 12 32 l 5
 21 41 l 5
 24 41 l 5
 24 38 l 5
 15 29 l 5
 12 29 l 5xa0
8 25 m 25xc0
 12 25 l 25
 18 13 l 25
 24 25 l 25
 28 25 l 25
 12 -7 l 25
 6 -7 l 25
 6 -3 l 25
 10 -3 l 1
 16 9 l 25
 8 25 l 25xc0
EndSplineSet
Validated: 1
EndChar

StartChar: thorn
Encoding: 254 254 223
Width: 35
Flags: W
HStem: 5 4<8 28> 21 20G<4 8> 25 4<8 28>
VStem: 4 4<-3 5 9 25 29 41> 28 4<9 25>
LayerCount: 2
Back
Fore
SplineSet
8 9 m 29xb8
 28 9 l 29
 28 25 l 29
 8 25 l 29
 8 9 l 29xb8
4 41 m 29xd8
 8 41 l 29xd8
 8 29 l 29
 28 29 l 29
 32 25 l 29xb8
 32 9 l 29
 28 5 l 29
 8 5 l 29
 8 -3 l 29
 4 -3 l 29
 4 41 l 29xd8
EndSplineSet
Validated: 1
EndChar

StartChar: ydieresis
Encoding: 255 255 224
Width: 35
Flags: W
HStem: -7 4<6 10> 5 20G<8 18 18 28> 29 4<12 16 20 24>
VStem: 12 4<29 33> 20 4<29 33>
DStem2: 12 25 8 25 0.447214 -0.894427<0 13.4164> 10 -3 12 -7 0.447214 0.894427<0 13.4164 17.8885 31.305>
LayerCount: 2
Back
Fore
SplineSet
20 29 m 5
 20 33 l 5
 24 33 l 5
 24 29 l 5
 20 29 l 5
16 29 m 5
 12 29 l 5
 12 33 l 5
 16 33 l 5
 16 29 l 5
8 25 m 25
 12 25 l 25
 18 13 l 25
 24 25 l 25
 28 25 l 25
 12 -7 l 25
 6 -7 l 25
 6 -3 l 25
 10 -3 l 1
 16 9 l 25
 8 25 l 25
EndSplineSet
Validated: 1
EndChar

StartChar: oe
Encoding: 339 339 225
Width: 35
Flags: W
HStem: 1 4<10 18 22 34> 13 4<22 30> 21 4<10 18 22 30>
VStem: 6 4<5 21> 18 4<5 13 17 21> 30 4<17 21>
CounterMasks: 1 1c
LayerCount: 2
Fore
SplineSet
22 1 m 25
 20 3 l 25
 18 1 l 25
 10 1 l 25
 6 5 l 25
 6 21 l 25
 10 25 l 25
 18 25 l 25
 20 23 l 1
 22 25 l 9
 30 25 l 25
 34 21 l 25
 34 13 l 25
 22 13 l 25
 22 5 l 25
 34 5 l 25
 34 1 l 25
 22 1 l 25
22 21 m 25
 22 17 l 25
 30 17 l 25
 30 21 l 25
 22 21 l 25
18 21 m 25
 10 21 l 25
 10 5 l 25
 18 5 l 25
 18 21 l 25
EndSplineSet
Validated: 1
EndChar

StartChar: zcaron
Encoding: 382 382 226
Width: 35
Flags: W
HStem: 1 4<14 30> 21 20G<12 18 18 24> 21 4<6 22>
DStem2: 6 1 14 5 0.624695 0.780869<8.12104 25.6125>
LayerCount: 2
Fore
SplineSet
12 41 m 25xc0
 16 41 l 25
 18 37 l 1
 20 41 l 25
 24 41 l 25
 18 29 l 1
 12 41 l 25xc0
22 21 m 29
 6 21 l 29
 6 25 l 29
 30 25 l 5xa0
 14 5 l 29
 30 5 l 5
 30 1 l 29
 6 1 l 29
 22 21 l 29
EndSplineSet
Validated: 1
EndChar

StartChar: OE
Encoding: 338 338 227
Width: 35
Flags: W
HStem: 1 4<8 16 20 32> 21 4<20 28> 37 4<8 16 20 32>
VStem: 4 4<5 37> 16 4<5 21 25 37>
LayerCount: 2
Fore
SplineSet
16 37 m 25
 8 37 l 25
 8 5 l 25
 16 5 l 25
 16 37 l 25
8 41 m 25
 32 41 l 25
 32 37 l 25
 20 37 l 25
 20 25 l 25
 28 25 l 25
 28 21 l 25
 20 21 l 25
 20 5 l 25
 32 5 l 25
 32 1 l 25
 8 1 l 25
 4 5 l 25
 4 37 l 25
 8 41 l 25
EndSplineSet
Validated: 1
EndChar

StartChar: Scaron
Encoding: 352 352 228
Width: 35
Flags: W
HStem: 1 4<10 26> 21 4<10 26> 37 4<10 26>
VStem: 4 4<29 33> 6 4<5 9> 26 4<33 37> 28 4<9 17>
LayerCount: 2
Fore
SplineSet
12 57 m 29xe0
 16 57 l 29
 18 53 l 5
 20 57 l 29
 24 57 l 29
 18 45 l 5
 12 57 l 29xe0
30 33 m 25xec
 26 33 l 25
 26 37 l 25
 10 37 l 25xec
 8 33 l 25
 8 29 l 25xf0
 10 25 l 25
 26 25 l 25
 30 21 l 25xec
 32 17 l 25
 32 9 l 25xe2
 30 5 l 25
 26 1 l 25
 10 1 l 25
 6 5 l 25
 6 9 l 25
 10 9 l 25
 10 5 l 25
 26 5 l 25xec
 28 9 l 25
 28 17 l 25xe2
 26 21 l 25
 10 21 l 25
 6 25 l 25xec
 4 29 l 25
 4 33 l 25xf0
 6 37 l 25
 10 41 l 25
 26 41 l 25
 30 37 l 25
 30 33 l 25xec
EndSplineSet
Validated: 1
EndChar

StartChar: scaron
Encoding: 353 353 229
Width: 35
Flags: W
HStem: 1 4<6 26> 13 4<10 26> 21 20G<12 18 18 24> 21 4<10 28>
VStem: 6 4<17 21> 26 4<5 13>
LayerCount: 2
Fore
SplineSet
12 41 m 29xec
 16 41 l 29
 18 37 l 5
 20 41 l 29
 24 41 l 29
 18 29 l 5
 12 41 l 29xec
28 25 m 25xdc
 28 21 l 25
 10 21 l 25
 10 17 l 25
 28 17 l 25
 30 13 l 25
 30 5 l 25
 26 1 l 25
 6 1 l 25
 6 5 l 25
 26 5 l 25
 26 13 l 25
 8 13 l 25
 6 17 l 25
 6 21 l 25
 8 25 l 25
 28 25 l 25xdc
EndSplineSet
Validated: 1
EndChar

StartChar: Euro
Encoding: 8364 8364 230
Width: 35
Flags: W
HStem: 1 4<12 24> 17 4<0 4 8 20> 25 4<0 4 8 20> 37 4<12 24>
VStem: 4 4<13 17 21 25> 26 4<9 13 29 33>
DStem2: 4 29 8 29 0.447214 0.894427<1.78885 8.94427> 8 13 4 13 0.447214 -0.894427<0 7.15542>
LayerCount: 2
Fore
SplineSet
8 37 m 25
 12 41 l 25
 24 41 l 25
 28 37 l 25
 30 33 l 25
 30 29 l 25
 26 29 l 25
 26 33 l 25
 24 37 l 25
 12 37 l 25
 8 29 l 25
 20 29 l 25
 20 25 l 25
 8 25 l 25
 8 21 l 25
 20 21 l 25
 20 17 l 25
 8 17 l 25
 8 13 l 25
 12 5 l 25
 24 5 l 1
 26 9 l 25
 26 13 l 1
 30 13 l 25
 30 9 l 25
 28 5 l 25
 24 1 l 25
 12 1 l 25
 8 5 l 25
 4 13 l 25
 4 17 l 25
 0 17 l 25
 0 21 l 25
 4 21 l 25
 4 25 l 25
 0 25 l 25
 0 29 l 25
 4 29 l 25
 8 37 l 25
EndSplineSet
Validated: 1
EndChar

StartChar: Zcaron
Encoding: 381 381 231
Width: 35
Flags: W
HStem: 1 4<12 30> 37 4<4 22>
DStem2: 6 1 12 5 0.406138 0.913812<6.09208 39.3954>
LayerCount: 2
Fore
SplineSet
12 57 m 29
 16 57 l 29
 18 53 l 5
 20 57 l 29
 24 57 l 29
 18 45 l 5
 12 57 l 29
4 41 m 25
 28 41 l 25
 12 5 l 25
 30 5 l 25
 30 1 l 25
 6 1 l 25
 22 37 l 25
 4 37 l 25
 4 41 l 25
EndSplineSet
Validated: 1
EndChar

StartChar: Ydieresis
Encoding: 376 376 232
Width: 35
Flags: W
HStem: 1 21G<16 20> 21 20G<6 18 18 30> 45 4<12 16 20 24>
VStem: 12 4<45 49> 16 4<1 21> 20 4<45 49>
DStem2: 10 41 6 41 0.447214 -0.894427<0 17.8885> 18 25 20 21 0.447214 0.894427<0 17.8885>
LayerCount: 2
Fore
SplineSet
20 45 m 1x24
 20 49 l 1
 24 49 l 1
 24 45 l 1
 20 45 l 1x24
16 45 m 1x30
 12 45 l 1
 12 49 l 1
 16 49 l 1
 16 45 l 1x30
10 41 m 25x68
 18 25 l 25
 26 41 l 25
 30 41 l 25
 20 21 l 25x68
 20 1 l 25
 16 1 l 25xa8
 16 21 l 25
 6 41 l 25
 10 41 l 25x68
EndSplineSet
Validated: 1
EndChar

StartChar: ohungarumlaut
Encoding: 337 337 233
Width: 35
Flags: W
HStem: 1 4<10 26> 21 20G<8 30> 21 4<10 26>
VStem: 6 4<5 21> 26 4<5 21>
DStem2: 8 32 11 29 0.707107 0.707107<0 12.7279> 18 32 21 29 0.724138 0.689655<0.103448 12.7241>
LayerCount: 2
Fore
SplineSet
18 29 m 1xd8
 18 32 l 5
 27 41 l 1
 30 41 l 1
 30 38 l 1
 21 29 l 1
 18 29 l 1xd8
8 29 m 1
 8 32 l 1
 17 41 l 1
 20 41 l 1
 20 38 l 1
 11 29 l 1
 8 29 l 1
26 21 m 25
 10 21 l 25
 10 5 l 25
 26 5 l 25
 26 21 l 25
6 21 m 25xb8
 10 25 l 25
 26 25 l 25xb8
 30 21 l 25xd8
 30 5 l 25
 26 1 l 25
 10 1 l 25
 6 5 l 25
 6 21 l 25xb8
EndSplineSet
Validated: 1
EndChar

StartChar: uhungarumlaut
Encoding: 369 369 234
Width: 35
Flags: W
HStem: 1 4<10 26 30 32> 5 20G<6 10 26 30> 21 20G<8 30>
VStem: 6 4<5 25> 26 4<5 25>
DStem2: 8 32 11 29 0.707107 0.707107<0 12.7279> 18 32 21 29 0.707107 0.707107<0 12.7279>
LayerCount: 2
Fore
SplineSet
18 29 m 1x38
 18 32 l 1
 27 41 l 1
 30 41 l 1
 30 38 l 1
 21 29 l 1
 18 29 l 1x38
8 29 m 1
 8 32 l 1
 17 41 l 1
 20 41 l 1
 20 38 l 1
 11 29 l 1
 8 29 l 1
6 25 m 29x58
 10 25 l 29x58
 10 5 l 29
 26 5 l 29x98
 26 25 l 29
 30 25 l 29x58
 30 5 l 29
 32 5 l 29
 32 1 l 29
 8 1 l 29x98
 6 5 l 29
 6 25 l 29x58
EndSplineSet
Validated: 1
EndChar

StartChar: sacute
Encoding: 347 347 235
Width: 35
Flags: W
HStem: 1 4<6 26> 13 4<10 26> 21 20G<12 24> 21 4<10 28>
VStem: 6 4<17 21> 26 4<5 13>
DStem2: 12 32 15 29 0.707107 0.707107<0 12.7279>
LayerCount: 2
Fore
SplineSet
12 29 m 1xec
 12 32 l 1
 21 41 l 1
 24 41 l 1
 24 38 l 1
 15 29 l 1
 12 29 l 1xec
28 25 m 29xdc
 28 21 l 29
 10 21 l 29
 10 17 l 29
 28 17 l 29
 30 13 l 29
 30 5 l 29
 26 1 l 29
 6 1 l 29
 6 5 l 29
 26 5 l 29
 26 13 l 29
 8 13 l 29
 6 17 l 29
 6 21 l 29
 8 25 l 29
 28 25 l 29xdc
EndSplineSet
Validated: 1
EndChar

StartChar: nacute
Encoding: 324 324 236
Width: 35
Flags: W
HStem: 1 21G<6 10 26 30> 21 20G<12 24> 21 4<4 6 10 26>
VStem: 6 4<1 21> 26 4<1 21>
DStem2: 12 32 15 29 0.707107 0.707107<0 12.7279>
LayerCount: 2
Fore
SplineSet
12 29 m 1x58
 12 32 l 1
 21 41 l 1
 24 41 l 1
 24 38 l 1
 15 29 l 1
 12 29 l 1x58
4 25 m 29x38
 28 25 l 29
 30 21 l 29x38
 30 1 l 29
 26 1 l 29x98
 26 21 l 29
 10 21 l 29x38
 10 1 l 29
 6 1 l 29x98
 6 21 l 29
 4 21 l 29
 4 25 l 29x38
EndSplineSet
Validated: 1
EndChar

StartChar: abreve
Encoding: 259 259 237
Width: 35
Flags: W
HStem: 1 4<10 26 30 32> 13 4<10 26> 21 4<8 26>
VStem: 6 4<5 13> 26 4<5 13 17 21>
LayerCount: 2
Fore
SplineSet
20 36 m 29
 24 36 l 29
 20 29 l 29
 18 28 l 29
 16 29 l 5
 12 36 l 13
 16 36 l 29
 17 33 l 29
 18 32 l 29
 19 33 l 29
 20 36 l 29
26 13 m 25
 10 13 l 25
 10 5 l 25
 26 5 l 25
 26 13 l 25
8 25 m 25
 28 25 l 25
 30 21 l 25
 30 5 l 25
 32 5 l 25
 32 1 l 25
 8 1 l 25
 6 5 l 25
 6 13 l 25
 10 17 l 25
 26 17 l 25
 26 21 l 25
 8 21 l 25
 8 25 l 25
EndSplineSet
Validated: 1
EndChar

StartChar: cacute
Encoding: 263 263 238
Width: 35
Flags: W
HStem: 1 4<10 26> 21 20G<12 24> 21 4<10 26>
VStem: 6 4<5 21> 26 4<5 9 17 21>
DStem2: 12 32 15 29 0.707107 0.707107<0 12.7279>
LayerCount: 2
Fore
SplineSet
12 29 m 5xd8
 12 32 l 5
 21 41 l 5
 24 41 l 5
 24 38 l 5
 15 29 l 5
 12 29 l 5xd8
30 17 m 25
 26 17 l 25
 26 21 l 25
 10 21 l 25
 10 5 l 25
 26 5 l 25
 26 9 l 25
 30 9 l 25
 30 5 l 25
 26 1 l 25
 10 1 l 25
 6 5 l 25
 6 21 l 25
 10 25 l 25
 26 25 l 25
 30 21 l 25xb8
 30 17 l 25
EndSplineSet
Validated: 1
EndChar

StartChar: dcroat
Encoding: 273 273 239
Width: 35
Flags: W
HStem: 1 4<10 26 30 32> 21 4<10 26> 31 4<22 26 30 34>
VStem: 6 4<5 21> 26 4<5 21 25 31 35 39>
LayerCount: 2
Fore
SplineSet
26 21 m 25
 10 21 l 25
 10 5 l 25
 26 5 l 25
 26 21 l 25
30 5 m 25
 32 5 l 25
 32 1 l 25
 8 1 l 25
 6 5 l 25
 6 21 l 25
 10 25 l 25
 26 25 l 25
 26 31 l 25
 22 31 l 25
 22 35 l 25
 26 35 l 25
 26 39 l 25
 30 39 l 25
 30 35 l 25
 34 35 l 25
 34 31 l 25
 30 31 l 25
 30 5 l 25
EndSplineSet
Validated: 1
EndChar

StartChar: uni021B
Encoding: 539 539 240
Width: 35
Flags: W
HStem: -8 8<14 18> 1 4<18 26> 21 20G<14 18> 25 4<6 14 18 26>
VStem: 14 8<-8 0> 14 4<5 25 29 41> 26 4<5 9>
LayerCount: 2
Fore
SplineSet
14 0 m 29xca
 22 0 l 29
 22 -8 l 25xca
 20 -16 l 25
 16 -16 l 25
 18 -8 l 25xc6
 14 -8 l 25
 14 0 l 29xca
14 41 m 25xe6
 18 41 l 25xe6
 18 29 l 25
 26 29 l 25
 26 25 l 25
 18 25 l 25
 18 5 l 25
 26 5 l 25
 26 9 l 25
 30 9 l 25
 30 5 l 25
 26 1 l 25
 18 1 l 25
 14 5 l 25
 14 25 l 25
 6 25 l 25
 6 29 l 25
 14 29 l 25xd6
 14 41 l 25xe6
EndSplineSet
Validated: 1
EndChar

StartChar: eogonek
Encoding: 281 281 241
Width: 35
Flags: W
HStem: -7 21G<16 22> 1 4<10 18 22 30> 13 4<10 26> 21 4<10 26>
VStem: 6 4<5 13 17 21> 26 4<17 21>
LayerCount: 2
Fore
SplineSet
10 21 m 25x3c
 10 17 l 25
 26 17 l 25
 26 21 l 25
 10 21 l 25x3c
10 1 m 25x5c
 6 5 l 25
 6 21 l 25
 10 25 l 25
 26 25 l 25
 30 21 l 25
 30 13 l 25
 10 13 l 25
 10 5 l 25
 30 5 l 25
 30 1 l 25
 22 1 l 29x7c
 20 -3 l 29
 22 -7 l 29
 18 -7 l 29x9c
 16 -3 l 29
 18 1 l 29
 10 1 l 25x5c
EndSplineSet
Validated: 1
EndChar

StartChar: Uhungarumlaut
Encoding: 368 368 242
Width: 35
Flags: W
HStem: 1 4<10 26> 21 20G<4 8 28 32>
VStem: 4 4<9 41> 28 4<9 41>
DStem2: 8 48 11 45 0.707107 0.707107<0 12.7279> 18 48 21 45 0.707107 0.707107<0 12.7279>
LayerCount: 2
Fore
SplineSet
18 45 m 5
 18 48 l 5
 27 57 l 5
 30 57 l 5
 30 54 l 5
 21 45 l 5
 18 45 l 5
8 45 m 5
 8 48 l 5
 17 57 l 5
 20 57 l 5
 20 54 l 5
 11 45 l 5
 8 45 l 5
4 41 m 25
 8 41 l 25
 8 9 l 25
 10 5 l 25
 26 5 l 25
 28 9 l 25
 28 41 l 25
 32 41 l 25
 32 9 l 25
 30 5 l 25
 26 1 l 25
 10 1 l 25
 6 5 l 25
 4 9 l 25
 4 41 l 25
EndSplineSet
Validated: 1
EndChar

StartChar: Ohungarumlaut
Encoding: 336 336 243
Width: 35
Flags: W
HStem: 1 4<8 28> 37 4<8 28>
VStem: 4 4<5 37> 28 4<5 37>
DStem2: 8 48 11 45 0.707107 0.707107<0 12.7279> 18 48 21 45 0.707107 0.707107<0 12.7279>
LayerCount: 2
Fore
SplineSet
18 45 m 5
 18 48 l 5
 27 57 l 5
 30 57 l 5
 30 54 l 5
 21 45 l 5
 18 45 l 5
8 45 m 5
 8 48 l 5
 17 57 l 5
 20 57 l 5
 20 54 l 5
 11 45 l 5
 8 45 l 5
28 37 m 25
 8 37 l 25
 8 5 l 25
 28 5 l 25
 28 37 l 25
4 37 m 25
 8 41 l 25
 28 41 l 25
 32 37 l 25
 32 5 l 25
 28 1 l 25
 8 1 l 25
 4 5 l 25
 4 37 l 25
EndSplineSet
Validated: 1
EndChar

StartChar: Eogonek
Encoding: 280 280 244
Width: 35
Flags: W
HStem: -7 21G<16 22> 1 4<8 18 22 32> 21 4<8 24> 37 4<8 32>
VStem: 4 4<5 21 25 37>
LayerCount: 2
Fore
SplineSet
4 1 m 25x78
 4 41 l 25
 32 41 l 25
 32 37 l 25
 8 37 l 25
 8 25 l 25
 24 25 l 25
 24 21 l 25
 8 21 l 25
 8 5 l 25
 32 5 l 25
 32 1 l 25
 22 1 l 29x78
 20 -3 l 29
 22 -7 l 29
 18 -7 l 29xb8
 16 -3 l 29
 18 1 l 29
 4 1 l 25x78
EndSplineSet
Validated: 1
EndChar

StartChar: uni021A
Encoding: 538 538 245
Width: 35
Flags: W
HStem: -8 8<14 18> 1 21G<16 20> 37 4<4 16 20 32>
VStem: 14 8<-8 0> 16 4<-16 -14.432 1 37>
LayerCount: 2
Fore
SplineSet
14 0 m 29xf0
 22 0 l 29
 22 -8 l 29xf0
 20 -16 l 29
 16 -16 l 29xe8
 18 -8 l 29
 14 -8 l 29
 14 0 l 29xf0
16 1 m 25xe8
 16 37 l 25
 4 37 l 25
 4 41 l 25
 32 41 l 25
 32 37 l 25
 20 37 l 25
 20 1 l 25
 16 1 l 25xe8
EndSplineSet
Validated: 1
EndChar

StartChar: ccaron
Encoding: 269 269 246
Width: 35
Flags: W
HStem: 1 4<10 26> 21 20G<12 18 18 24> 21 4<10 26>
VStem: 6 4<5 21> 26 4<5 9 17 21>
LayerCount: 2
Fore
SplineSet
12 41 m 29xd8
 16 41 l 29
 18 37 l 5
 20 41 l 29
 24 41 l 29
 18 29 l 5
 12 41 l 29xd8
30 17 m 25
 26 17 l 25
 26 21 l 25
 10 21 l 25
 10 5 l 25
 26 5 l 25
 26 9 l 25
 30 9 l 25
 30 5 l 25
 26 1 l 25
 10 1 l 25
 6 5 l 25
 6 21 l 25
 10 25 l 25
 26 25 l 25
 30 21 l 25xb8
 30 17 l 25
EndSplineSet
Validated: 1
EndChar

StartChar: uni0219
Encoding: 537 537 247
Width: 35
Flags: W
HStem: -8 8<14 18> 1 4<6 26> 13 4<10 26> 21 4<10 28>
VStem: 6 4<17 21> 14 8<-8 0> 16 4<-16 -14.432> 26 4<5 13>
LayerCount: 2
Fore
SplineSet
14 0 m 29xfd
 22 0 l 29
 22 -8 l 29xfd
 20 -16 l 29
 16 -16 l 29xfb
 18 -8 l 29
 14 -8 l 29
 14 0 l 29xfd
28 25 m 25
 28 21 l 25
 10 21 l 25
 10 17 l 25
 28 17 l 25
 30 13 l 25
 30 5 l 25
 26 1 l 25
 6 1 l 25
 6 5 l 25
 26 5 l 25
 26 13 l 25
 8 13 l 25
 6 17 l 25
 6 21 l 25
 8 25 l 25
 28 25 l 25
EndSplineSet
Validated: 1
EndChar

StartChar: Sacute
Encoding: 346 346 248
Width: 35
Flags: W
HStem: 1 4<10 26> 21 4<10 26> 37 4<10 26>
VStem: 4 4<29 33> 6 4<5 9> 26 4<33 37> 28 4<9 17>
DStem2: 12 48 15 45 0.707107 0.707107<0 12.7279>
LayerCount: 2
Fore
SplineSet
12 45 m 1xe0
 12 48 l 1
 21 57 l 1
 24 57 l 1
 24 54 l 1
 15 45 l 1
 12 45 l 1xe0
30 33 m 29xec
 26 33 l 29
 26 37 l 29
 10 37 l 29xec
 8 33 l 29
 8 29 l 29xf0
 10 25 l 29
 26 25 l 29
 30 21 l 29xec
 32 17 l 29
 32 9 l 29xe2
 30 5 l 29
 26 1 l 29
 10 1 l 29
 6 5 l 29
 6 9 l 29
 10 9 l 29
 10 5 l 29
 26 5 l 29xec
 28 9 l 29
 28 17 l 29xe2
 26 21 l 29
 10 21 l 29
 6 25 l 29xec
 4 29 l 29
 4 33 l 29xf0
 6 37 l 29
 10 41 l 29
 26 41 l 29
 30 37 l 29
 30 33 l 29xec
EndSplineSet
Validated: 1
EndChar

StartChar: Nacute
Encoding: 323 323 249
Width: 35
Flags: W
HStem: 1 21G<4 8 24 32> 21 20G<4 12 28 32>
VStem: 4 4<1 29> 28 4<17 41>
DStem2: 12 33 8 29 0.707107 -0.707107<0 22.6274> 12 48 15 45 0.707107 0.707107<0 12.7279>
LayerCount: 2
Fore
SplineSet
12 45 m 5x30
 12 48 l 5
 21 57 l 5
 24 57 l 5
 24 54 l 5
 15 45 l 5
 12 45 l 5x30
4 1 m 25xb0
 4 41 l 25
 8 41 l 25
 12 33 l 25
 28 17 l 25
 28 41 l 25
 32 41 l 25x70
 32 1 l 25
 28 1 l 25
 24 13 l 25
 8 29 l 25
 8 1 l 25
 4 1 l 25xb0
EndSplineSet
Validated: 1
EndChar

StartChar: Dcroat
Encoding: 272 272 250
Width: 35
Flags: W
HStem: 1 4<8 24> 21 4<0 4 8 16> 37 4<8 24>
VStem: 4 4<5 21 25 37> 28 4<9 33>
DStem2: 24 41 24 37 0.707107 -0.707107<2.82843 8.48528> 24 5 24 1 0.707107 0.707107<0 5.65685>
LayerCount: 2
Fore
SplineSet
8 37 m 29
 8 25 l 29
 16 25 l 29
 16 21 l 29
 8 21 l 29
 8 5 l 29
 24 5 l 29
 28 9 l 29
 28 33 l 29
 24 37 l 29
 8 37 l 29
4 1 m 29
 4 21 l 29
 0 21 l 29
 0 25 l 29
 4 25 l 29
 4 41 l 29
 24 41 l 29
 32 33 l 29
 32 9 l 29
 24 1 l 29
 4 1 l 29
EndSplineSet
Validated: 1
EndChar

StartChar: uni0218
Encoding: 536 536 251
Width: 35
Flags: W
HStem: -8 8<14 18> 1 4<10 26> 21 4<10 26> 37 4<10 26>
VStem: 4 4<29 33> 6 4<5 9> 14 8<-8 0> 16 4<-16 -14.432> 26 4<33 37> 28 4<9 17>
LayerCount: 2
Fore
SplineSet
14 0 m 25xf2
 22 0 l 25
 22 -8 l 25xf2
 20 -16 l 25
 16 -16 l 25xf1
 18 -8 l 25
 14 -8 l 25
 14 0 l 25xf2
30 33 m 25xf480
 26 33 l 25
 26 37 l 25
 10 37 l 25xf480
 8 33 l 25
 8 29 l 25xf8
 10 25 l 25
 26 25 l 25
 30 21 l 25xf480
 32 17 l 25
 32 9 l 25xf040
 30 5 l 25
 26 1 l 25
 10 1 l 25
 6 5 l 25
 6 9 l 25
 10 9 l 25
 10 5 l 25
 26 5 l 25xf480
 28 9 l 25
 28 17 l 25xf040
 26 21 l 25
 10 21 l 25
 6 25 l 25xf480
 4 29 l 25
 4 33 l 25xf8
 6 37 l 25
 10 41 l 25
 26 41 l 25
 30 37 l 25
 30 33 l 25xf480
EndSplineSet
Validated: 1
EndChar

StartChar: Zacute
Encoding: 377 377 252
Width: 35
Flags: W
HStem: 1 4<12 30> 37 4<4 22>
DStem2: 6 1 12 5 0.406138 0.913812<6.09208 39.3954> 12 48 15 45 0.707107 0.707107<0 12.7279>
LayerCount: 2
Fore
SplineSet
12 45 m 5
 12 48 l 5
 21 57 l 5
 24 57 l 5
 24 54 l 5
 15 45 l 5
 12 45 l 5
4 41 m 25
 28 41 l 25
 12 5 l 25
 30 5 l 25
 30 1 l 25
 6 1 l 25
 22 37 l 25
 4 37 l 25
 4 41 l 25
EndSplineSet
Validated: 1
EndChar

StartChar: zacute
Encoding: 378 378 253
Width: 35
Flags: W
HStem: 1 4<14 30> 21 20G<16 28> 21 4<6 22>
DStem2: 6 1 14 5 0.624695 0.780869<8.12104 25.6125> 16 32 19 29 0.707107 0.707107<0 12.7279>
LayerCount: 2
Fore
SplineSet
16 29 m 5xc0
 16 32 l 5
 25 41 l 5
 28 41 l 5
 28 38 l 5
 19 29 l 5
 16 29 l 5xc0
22 21 m 25
 6 21 l 25
 6 25 l 25
 30 25 l 1xa0
 14 5 l 25
 30 5 l 1
 30 1 l 25
 6 1 l 25
 22 21 l 25
EndSplineSet
Validated: 1
EndChar

StartChar: Zdotaccent
Encoding: 379 379 254
Width: 35
Flags: W
HStem: 1 4<12 30> 37 4<4 22> 44 8<14 22>
VStem: 14 8<44 52>
DStem2: 6 1 12 5 0.406138 0.913812<6.09208 39.3954>
LayerCount: 2
Fore
SplineSet
14 44 m 25
 14 52 l 25
 22 52 l 25
 22 44 l 25
 14 44 l 25
4 41 m 25
 28 41 l 25
 12 5 l 25
 30 5 l 25
 30 1 l 25
 6 1 l 25
 22 37 l 25
 4 37 l 25
 4 41 l 25
EndSplineSet
Validated: 1
EndChar

StartChar: Ccaron
Encoding: 268 268 255
Width: 35
Flags: W
HStem: 1 4<12 24> 37 4<12 24>
VStem: 4 4<13 29> 26 4<9 13 29 33>
DStem2: 4 29 8 29 0.447214 0.894427<1.78885 8.94427> 8 13 4 13 0.447214 -0.894427<0 7.15542>
LayerCount: 2
Fore
SplineSet
12 57 m 29
 16 57 l 29
 18 53 l 5
 20 57 l 29
 24 57 l 29
 18 45 l 5
 12 57 l 29
30 29 m 25
 26 29 l 25
 26 33 l 25
 24 37 l 25
 12 37 l 25
 8 29 l 25
 8 13 l 25
 12 5 l 25
 24 5 l 1
 26 9 l 25
 26 13 l 1
 30 13 l 25
 30 9 l 25
 28 5 l 25
 24 1 l 25
 12 1 l 25
 8 5 l 25
 4 13 l 25
 4 29 l 25
 8 37 l 25
 12 41 l 25
 24 41 l 25
 28 37 l 25
 30 33 l 25
 30 29 l 25
EndSplineSet
Validated: 1
EndChar

StartChar: lslash
Encoding: 322 322 256
Width: 35
Flags: W
HStem: 1 4<8 16 20 28> 37 4<12 16>
VStem: 12 8<18 20 37 41> 16 4<5 18 28 37>
LayerCount: 2
Fore
SplineSet
28 5 m 25xd0
 28 1 l 25
 8 1 l 25
 8 5 l 25
 16 5 l 25
 16 18 l 29xd0
 15 17 l 5
 12 17 l 5
 12 20 l 5xe0
 16 24 l 13
 16 37 l 25xd0
 12 37 l 25
 12 41 l 25
 20 41 l 25xe0
 20 28 l 29
 21 29 l 5
 24 29 l 5
 24 26 l 5
 20 22 l 13
 20 5 l 25
 28 5 l 25xd0
EndSplineSet
Validated: 1
EndChar

StartChar: Lslash
Encoding: 321 321 257
Width: 35
Flags: W
HStem: 1 4<8 32> 21 20G<4 8>
VStem: 4 4<5 18 28 41>
LayerCount: 2
Fore
SplineSet
8 41 m 29
 8 28 l 25
 9 29 l 1
 12 29 l 1
 12 26 l 1
 8 22 l 9
 8 5 l 25
 32 5 l 25
 32 1 l 25
 4 1 l 25
 4 18 l 25
 3 17 l 1
 0 17 l 1
 0 20 l 1
 4 24 l 9
 4 41 l 25
 8 41 l 29
EndSplineSet
Validated: 1
EndChar

StartChar: quotedblbase
Encoding: 8222 8222 258
Width: 35
Flags: W
HStem: -12 12<6 14 22 30>
VStem: 6 8<-12 0> 22 8<-12 0>
LayerCount: 2
Fore
SplineSet
22 -12 m 29
 22 0 l 29
 30 0 l 29
 30 -12 l 29
 22 -12 l 29
6 -12 m 29
 6 0 l 29
 14 0 l 29
 14 -12 l 29
 6 -12 l 29
EndSplineSet
Validated: 1
EndChar

StartChar: quotedblright
Encoding: 8221 8221 259
Width: 35
Flags: W
HStem: 29 12<6 14 22 30>
VStem: 6 8<29 41> 22 8<29 41>
LayerCount: 2
Fore
SplineSet
22 29 m 29
 22 41 l 29
 30 41 l 29
 30 29 l 29
 22 29 l 29
6 29 m 29
 6 41 l 29
 14 41 l 29
 14 29 l 29
 6 29 l 29
EndSplineSet
Validated: 1
EndChar

StartChar: quotedblleft
Encoding: 8220 8220 260
Width: 35
Flags: W
HStem: 29 12<6 14 22 30>
VStem: 6 8<29 41> 22 8<29 41>
LayerCount: 2
Fore
SplineSet
22 29 m 29
 22 41 l 29
 30 41 l 29
 30 29 l 29
 22 29 l 29
6 29 m 29
 6 41 l 29
 14 41 l 29
 14 29 l 29
 6 29 l 29
EndSplineSet
Validated: 1
EndChar

StartChar: quoteright
Encoding: 8217 8217 261
Width: 35
Flags: W
HStem: 25 16
VStem: 12 10
DStem2: 12 25 16 25 0.351123 0.936329<1.40449 17.088>
LayerCount: 2
Fore
SplineSet
12 25 m 29
 18 41 l 29
 22 41 l 29
 16 25 l 29
 12 25 l 29
EndSplineSet
Validated: 1
EndChar

StartChar: quoteleft
Encoding: 8216 8216 262
Width: 35
Flags: W
HStem: 25 16
VStem: 12 10
DStem2: 12 25 16 25 0.351123 0.936329<1.40449 17.088>
LayerCount: 2
Fore
SplineSet
12 25 m 29
 18 41 l 29
 22 41 l 29
 16 25 l 29
 12 25 l 29
EndSplineSet
Validated: 1
EndChar

StartChar: quotesinglbase
Encoding: 8218 8218 263
Width: 35
Flags: W
HStem: -16 16
VStem: 12 10
DStem2: 12 -16 16 -16 0.351123 0.936329<1.40449 17.088>
LayerCount: 2
Fore
SplineSet
12 -16 m 25
 18 0 l 25
 22 0 l 25
 16 -16 l 25
 12 -16 l 25
EndSplineSet
Validated: 1
EndChar

StartChar: quotereversed
Encoding: 8219 8219 264
Width: 35
Flags: W
HStem: 25 16
VStem: 12 10
DStem2: 16 41 12 41 0.351123 -0.936329<0 15.6835>
LayerCount: 2
Fore
SplineSet
22 25 m 29
 18 25 l 29
 12 41 l 29
 16 41 l 29
 22 25 l 29
EndSplineSet
Validated: 1
EndChar

StartChar: uni201F
Encoding: 8223 8223 265
Width: 35
Flags: W
HStem: 29 12<6 14 22 30>
VStem: 6 8<29 41> 22 8<29 41>
LayerCount: 2
Fore
SplineSet
22 29 m 29
 22 41 l 29
 30 41 l 29
 30 29 l 29
 22 29 l 29
6 29 m 29
 6 41 l 29
 14 41 l 29
 14 29 l 29
 6 29 l 29
EndSplineSet
Validated: 1
EndChar

StartChar: bullet
Encoding: 8226 8226 266
Width: 35
Flags: W
HStem: 21 8<14 22>
VStem: 14 8<21 29>
LayerCount: 2
Fore
SplineSet
14 21 m 25
 14 29 l 25
 22 29 l 25
 22 21 l 25
 14 21 l 25
EndSplineSet
Validated: 1
EndChar

StartChar: uni2010
Encoding: 8208 8208 267
Width: 35
Flags: W
HStem: 17 4<6 30>
LayerCount: 2
Fore
SplineSet
6 21 m 29
 30 21 l 29
 30 17 l 29
 6 17 l 29
 6 21 l 29
EndSplineSet
Validated: 1
EndChar

StartChar: uni2011
Encoding: 8209 8209 268
Width: 35
Flags: W
HStem: 17 4<6 30>
LayerCount: 2
Fore
SplineSet
6 21 m 29
 30 21 l 29
 30 17 l 29
 6 17 l 29
 6 21 l 29
EndSplineSet
Validated: 1
EndChar

StartChar: figuredash
Encoding: 8210 8210 269
Width: 35
Flags: W
HStem: 17 4<6 30>
LayerCount: 2
Fore
SplineSet
6 21 m 29
 30 21 l 29
 30 17 l 29
 6 17 l 29
 6 21 l 29
EndSplineSet
Validated: 1
EndChar

StartChar: endash
Encoding: 8211 8211 270
Width: 35
Flags: W
HStem: 17 4<6 30>
LayerCount: 2
Fore
SplineSet
6 21 m 29
 30 21 l 29
 30 17 l 29
 6 17 l 29
 6 21 l 29
EndSplineSet
Validated: 1
EndChar

StartChar: emdash
Encoding: 8212 8212 271
Width: 35
Flags: W
HStem: 17 4<6 30>
LayerCount: 2
Fore
SplineSet
6 21 m 29
 30 21 l 29
 30 17 l 29
 6 17 l 29
 6 21 l 29
EndSplineSet
Validated: 1
EndChar

StartChar: ellipsis
Encoding: 8230 8230 272
Width: 35
Flags: W
HStem: 1 8<2 10 14 22 26 34>
VStem: 2 8<1 9> 14 8<1 9> 26 8<1 9>
CounterMasks: 1 70
LayerCount: 2
Fore
SplineSet
26 1 m 25
 26 9 l 25
 34 9 l 25
 34 1 l 25
 26 1 l 25
14 1 m 25
 14 9 l 25
 22 9 l 25
 22 1 l 25
 14 1 l 25
2 1 m 25
 2 9 l 25
 10 9 l 25
 10 1 l 25
 2 1 l 25
EndSplineSet
Validated: 1
EndChar

StartChar: trademark
Encoding: 8482 8482 273
Width: 35
Flags: W
HStem: 28 12<8 12 20 23 29 32> 36 4<4 8 12 16>
VStem: 8 4<28 36> 20 3<28 36> 29 3<28 36>
LayerCount: 2
Fore
SplineSet
20 28 m 29xb8
 20 40 l 29xb8
 24 40 l 29
 26 37 l 29
 28 40 l 29x78
 32 40 l 29
 32 28 l 29
 29 28 l 29xb8
 29 36 l 29
 26 32 l 29
 23 36 l 29x78
 23 28 l 29
 20 28 l 29xb8
8 28 m 29
 8 36 l 29
 4 36 l 29
 4 40 l 29
 16 40 l 29
 16 36 l 29
 12 36 l 29x78
 12 28 l 29
 8 28 l 29
EndSplineSet
Validated: 1
EndChar

StartChar: minus
Encoding: 8722 8722 274
Width: 35
Flags: W
HStem: 17 4<6 30>
LayerCount: 2
Fore
SplineSet
6 21 m 29
 30 21 l 29
 30 17 l 29
 6 17 l 29
 6 21 l 29
EndSplineSet
Validated: 1
EndChar

StartChar: Amacron
Encoding: 256 256 275
Width: 35
Flags: W
HStem: 1 21G<4 8 28 32> 13 4<8 28> 37 4<14 22> 45 4<12 24>
VStem: 4 4<1 13 17 25> 28 4<1 13 17 25>
DStem2: 4 25 8 25 0.447214 0.894427<1.78885 13.4164> 26 37 22 37 0.447214 -0.894427<0 11.6276>
LayerCount: 2
Fore
SplineSet
12 45 m 29x3c
 12 49 l 5
 24 49 l 29
 24 45 l 5
 12 45 l 29x3c
28 17 m 25x7c
 28 25 l 25
 22 37 l 25
 14 37 l 25
 8 25 l 25
 8 17 l 25
 28 17 l 25x7c
4 1 m 25xbc
 4 25 l 25
 10 37 l 25
 14 41 l 25
 22 41 l 25
 26 37 l 25
 32 25 l 25
 32 1 l 25
 28 1 l 25xbc
 28 13 l 25
 8 13 l 25x7c
 8 1 l 25
 4 1 l 25xbc
EndSplineSet
Validated: 1
EndChar

StartChar: amacron
Encoding: 257 257 276
Width: 35
Flags: W
HStem: 1 4<10 26 30 32> 13 4<10 26> 21 4<8 26> 29 4<12 24>
VStem: 6 4<5 13> 26 4<5 13 17 21>
LayerCount: 2
Fore
SplineSet
12 29 m 29
 12 33 l 5
 24 33 l 29
 24 29 l 5
 12 29 l 29
26 13 m 25
 10 13 l 25
 10 5 l 25
 26 5 l 25
 26 13 l 25
8 25 m 25
 28 25 l 25
 30 21 l 25
 30 5 l 25
 32 5 l 25
 32 1 l 25
 8 1 l 25
 6 5 l 25
 6 13 l 25
 10 17 l 25
 26 17 l 25
 26 21 l 25
 8 21 l 25
 8 25 l 25
EndSplineSet
Validated: 1
EndChar

StartChar: Abreve
Encoding: 258 258 277
Width: 35
Flags: W
HStem: 1 21G<4 8 28 32> 13 4<8 28> 37 4<14 22>
VStem: 4 4<1 13 17 25> 28 4<1 13 17 25>
DStem2: 4 25 8 25 0.447214 0.894427<1.78885 13.4164> 26 37 22 37 0.447214 -0.894427<0 11.6276>
LayerCount: 2
Fore
SplineSet
20 52 m 29x38
 24 52 l 29
 20 45 l 29
 18 44 l 29
 16 45 l 5
 12 52 l 13
 16 52 l 29
 17 49 l 29
 18 48 l 29
 19 49 l 29
 20 52 l 29x38
28 17 m 25x78
 28 25 l 25
 22 37 l 25
 14 37 l 25
 8 25 l 25
 8 17 l 25
 28 17 l 25x78
4 1 m 25xb8
 4 25 l 25
 10 37 l 25
 14 41 l 25
 22 41 l 25
 26 37 l 25
 32 25 l 25
 32 1 l 25
 28 1 l 25xb8
 28 13 l 25
 8 13 l 25x78
 8 1 l 25
 4 1 l 25xb8
EndSplineSet
Validated: 1
EndChar

StartChar: Aogonek
Encoding: 260 260 278
Width: 35
Flags: W
HStem: -7 21G<26 32> 1 21G<4 8> 13 4<8 28> 37 4<14 22>
VStem: 4 4<1 13 17 25> 28 4<1 13 17 25>
DStem2: 4 25 8 25 0.447214 0.894427<1.78885 13.4164> 26 37 22 37 0.447214 -0.894427<0 11.6276>
LayerCount: 2
Fore
SplineSet
28 17 m 25x3c
 28 25 l 25
 22 37 l 25
 14 37 l 25
 8 25 l 25
 8 17 l 25
 28 17 l 25x3c
28 13 m 25
 8 13 l 25x3c
 8 1 l 25
 4 1 l 25
 4 25 l 25
 10 37 l 25
 14 41 l 25
 22 41 l 25
 26 37 l 25
 32 25 l 25
 32 1 l 25x5c
 30 -3 l 29
 32 -7 l 29
 28 -7 l 29x9c
 26 -3 l 29
 28 1 l 25x5c
 28 13 l 25
EndSplineSet
Validated: 1
EndChar

StartChar: aogonek
Encoding: 261 261 279
Width: 35
Flags: W
HStem: -7 21G<26 32> 1 4<10 26> 13 4<10 26> 21 4<8 26>
VStem: 6 4<5 13> 26 4<5 13 17 21>
LayerCount: 2
Fore
SplineSet
26 13 m 25x7c
 10 13 l 25
 10 5 l 25
 26 5 l 25
 26 13 l 25x7c
8 1 m 25
 6 5 l 25
 6 13 l 25
 10 17 l 25
 26 17 l 25
 26 21 l 25
 8 21 l 25
 8 25 l 25
 28 25 l 25
 30 21 l 25
 30 5 l 25
 32 5 l 25
 32 1 l 25x7c
 30 -3 l 25
 32 -7 l 25
 28 -7 l 25x9c
 26 -3 l 25
 28 1 l 25
 8 1 l 25
EndSplineSet
Validated: 1
EndChar

StartChar: Cacute
Encoding: 262 262 280
Width: 35
Flags: W
HStem: 1 4<12 24> 37 4<12 24>
VStem: 4 4<13 29> 26 4<9 13 29 33>
DStem2: 4 29 8 29 0.447214 0.894427<1.78885 8.94427> 8 13 4 13 0.447214 -0.894427<0 7.15542> 12 48 15 45 0.707107 0.707107<0 12.7279>
LayerCount: 2
Fore
SplineSet
12 45 m 1
 12 48 l 1
 21 57 l 1
 24 57 l 1
 24 54 l 1
 15 45 l 1
 12 45 l 1
30 29 m 25
 26 29 l 25
 26 33 l 25
 24 37 l 25
 12 37 l 25
 8 29 l 25
 8 13 l 25
 12 5 l 25
 24 5 l 1
 26 9 l 25
 26 13 l 1
 30 13 l 25
 30 9 l 25
 28 5 l 25
 24 1 l 25
 12 1 l 25
 8 5 l 25
 4 13 l 25
 4 29 l 25
 8 37 l 25
 12 41 l 25
 24 41 l 25
 28 37 l 25
 30 33 l 25
 30 29 l 25
EndSplineSet
Validated: 1
EndChar

StartChar: edotaccent
Encoding: 279 279 281
Width: 35
Flags: W
HStem: 1 4<10 30> 13 4<10 26> 21 4<10 26> 28 8<14 22>
VStem: 6 4<5 13 17 21> 14 8<28 36> 26 4<17 21>
CounterMasks: 1 0e
LayerCount: 2
Fore
SplineSet
14 28 m 29
 14 36 l 29
 22 36 l 29
 22 28 l 29
 14 28 l 29
10 21 m 25
 10 17 l 25
 26 17 l 25
 26 21 l 25
 10 21 l 25
6 21 m 25
 10 25 l 25
 26 25 l 25
 30 21 l 25
 30 13 l 25
 10 13 l 25
 10 5 l 25
 30 5 l 25
 30 1 l 25
 10 1 l 25
 6 5 l 25
 6 21 l 25
EndSplineSet
Validated: 1
EndChar

StartChar: Edotaccent
Encoding: 278 278 282
Width: 35
Flags: W
HStem: 1 4<8 32> 21 4<8 24> 37 4<8 32> 44 8<14 22>
VStem: 4 4<5 21 25 37> 14 8<44 52>
LayerCount: 2
Fore
SplineSet
14 44 m 29
 14 52 l 29
 22 52 l 29
 22 44 l 29
 14 44 l 29
4 1 m 25
 4 41 l 25
 32 41 l 25
 32 37 l 25
 8 37 l 25
 8 25 l 25
 24 25 l 25
 24 21 l 25
 8 21 l 25
 8 5 l 25
 32 5 l 25
 32 1 l 25
 4 1 l 25
EndSplineSet
Validated: 1
EndChar

StartChar: Emacron
Encoding: 274 274 283
Width: 35
Flags: W
HStem: 1 4<8 32> 21 4<8 24> 37 4<8 32> 45 4<12 24>
VStem: 4 4<5 21 25 37>
LayerCount: 2
Fore
SplineSet
12 45 m 29
 12 49 l 5
 24 49 l 29
 24 45 l 5
 12 45 l 29
4 1 m 25
 4 41 l 25
 32 41 l 25
 32 37 l 25
 8 37 l 25
 8 25 l 25
 24 25 l 25
 24 21 l 25
 8 21 l 25
 8 5 l 25
 32 5 l 25
 32 1 l 25
 4 1 l 25
EndSplineSet
Validated: 1
EndChar

StartChar: emacron
Encoding: 275 275 284
Width: 35
Flags: W
HStem: 1 4<10 30> 13 4<10 26> 21 4<10 26> 29 4<12 24>
VStem: 6 4<5 13 17 21> 26 4<17 21>
LayerCount: 2
Fore
SplineSet
12 29 m 25
 12 33 l 1
 24 33 l 25
 24 29 l 1
 12 29 l 25
10 21 m 25
 10 17 l 25
 26 17 l 25
 26 21 l 25
 10 21 l 25
6 21 m 25
 10 25 l 25
 26 25 l 25
 30 21 l 25
 30 13 l 25
 10 13 l 25
 10 5 l 25
 30 5 l 25
 30 1 l 25
 10 1 l 25
 6 5 l 25
 6 21 l 25
EndSplineSet
Validated: 1
EndChar

StartChar: Ecaron
Encoding: 282 282 285
Width: 35
Flags: W
HStem: 1 4<8 32> 21 4<8 24> 37 4<8 32>
VStem: 4 4<5 21 25 37>
LayerCount: 2
Fore
SplineSet
12 57 m 25
 16 57 l 25
 18 53 l 1
 20 57 l 25
 24 57 l 25
 18 45 l 1
 12 57 l 25
4 1 m 25
 4 41 l 25
 32 41 l 25
 32 37 l 25
 8 37 l 25
 8 25 l 25
 24 25 l 25
 24 21 l 25
 8 21 l 25
 8 5 l 25
 32 5 l 25
 32 1 l 25
 4 1 l 25
EndSplineSet
Validated: 1
EndChar

StartChar: ecaron
Encoding: 283 283 286
Width: 35
Flags: W
HStem: 1 4<10 30> 13 4<10 26> 21 20G<12 18 18 24> 21 4<10 26>
VStem: 6 4<5 13 17 21> 26 4<17 21>
LayerCount: 2
Fore
SplineSet
12 41 m 29xec
 16 41 l 29
 18 37 l 5
 20 41 l 29
 24 41 l 29
 18 29 l 5
 12 41 l 29xec
10 21 m 25xdc
 10 17 l 25
 26 17 l 25
 26 21 l 25
 10 21 l 25xdc
6 21 m 25
 10 25 l 25
 26 25 l 25
 30 21 l 25
 30 13 l 25
 10 13 l 25
 10 5 l 25
 30 5 l 25
 30 1 l 25
 10 1 l 25
 6 5 l 25
 6 21 l 25
EndSplineSet
Validated: 1
EndChar

StartChar: Gbreve
Encoding: 286 286 287
Width: 35
Flags: W
HStem: 1 4<12 24> 17 4<20 28> 37 4<12 24>
VStem: 4 4<13 29> 26 4<29 33> 28 4<13 17>
DStem2: 4 29 8 29 0.447214 0.894427<1.78885 8.94427> 8 13 4 13 0.447214 -0.894427<0 7.15542> 24 5 28 5 0.447214 0.894427<1.78885 8.94427>
LayerCount: 2
Fore
SplineSet
20 52 m 25xf0
 24 52 l 25
 20 45 l 25
 18 44 l 25
 16 45 l 1
 12 52 l 9
 16 52 l 25
 17 49 l 25
 18 48 l 25
 19 49 l 25
 20 52 l 25xf0
20 21 m 29
 32 21 l 29
 32 13 l 29
 28 5 l 29
 24 1 l 29
 12 1 l 29
 8 5 l 29
 4 13 l 29
 4 29 l 29
 8 37 l 29
 12 41 l 29
 24 41 l 29
 28 37 l 29xf4
 30 33 l 29
 30 29 l 29
 26 29 l 29
 26 33 l 29xf8
 24 37 l 29
 12 37 l 29
 8 29 l 29
 8 13 l 29
 12 5 l 29
 24 5 l 29
 28 13 l 29
 28 17 l 29xf4
 20 17 l 29
 20 21 l 29
EndSplineSet
Validated: 1
EndChar

StartChar: gbreve
Encoding: 287 287 288
Width: 35
Flags: W
HStem: -19 20G<6 12> -7 4<12 26> 5 4<10 26> 21 4<10 26>
VStem: 6 4<9 21> 26 4<-3 5 9 21>
LayerCount: 2
Fore
SplineSet
20 36 m 25x3c
 24 36 l 25
 20 29 l 25
 18 28 l 25
 16 29 l 1
 12 36 l 9
 16 36 l 25
 17 33 l 25
 18 32 l 25
 19 33 l 25
 20 36 l 25x3c
10 9 m 29
 26 9 l 29
 26 21 l 29
 10 21 l 29
 10 9 l 29
6 1 m 5xbc
 8 1 l 5xbc
 12 -3 l 5
 26 -3 l 5
 26 5 l 29
 10 5 l 29
 6 9 l 29
 6 21 l 29
 10 25 l 29
 26 25 l 29
 30 21 l 29
 30 -3 l 29
 26 -7 l 29
 10 -7 l 29
 6 -3 l 29x7c
 6 1 l 5xbc
EndSplineSet
Validated: 1
EndChar

StartChar: Gdotaccent
Encoding: 288 288 289
Width: 35
Flags: W
HStem: 1 4<12 24> 17 4<20 28> 37 4<12 24> 44 8<14 22>
VStem: 4 4<13 29> 14 8<44 52> 26 4<29 33> 28 4<13 17>
DStem2: 4 29 8 29 0.447214 0.894427<1.78885 8.94427> 8 13 4 13 0.447214 -0.894427<0 7.15542> 24 5 28 5 0.447214 0.894427<1.78885 8.94427>
LayerCount: 2
Fore
SplineSet
14 44 m 29xfc
 14 52 l 29
 22 52 l 29
 22 44 l 29
 14 44 l 29xfc
20 21 m 25
 32 21 l 25
 32 13 l 25
 28 5 l 25
 24 1 l 25
 12 1 l 25
 8 5 l 25
 4 13 l 25
 4 29 l 25
 8 37 l 25
 12 41 l 25
 24 41 l 25
 28 37 l 25xfd
 30 33 l 25
 30 29 l 25
 26 29 l 25
 26 33 l 25xfe
 24 37 l 25
 12 37 l 25
 8 29 l 25
 8 13 l 25
 12 5 l 25
 24 5 l 25
 28 13 l 25
 28 17 l 25xfd
 20 17 l 25
 20 21 l 25
EndSplineSet
Validated: 1
EndChar

StartChar: gdotaccent
Encoding: 289 289 290
Width: 35
Flags: W
HStem: -19 20G<6 12> -7 4<12 26> 5 4<10 26> 21 4<10 26> 28 8<14 22>
VStem: 6 4<9 21> 14 8<28 36> 26 4<-3 5 9 21>
CounterMasks: 1 07
LayerCount: 2
Fore
SplineSet
14 28 m 29x3f
 14 36 l 29
 22 36 l 29
 22 28 l 29
 14 28 l 29x3f
10 9 m 25
 26 9 l 25
 26 21 l 25
 10 21 l 25
 10 9 l 25
6 1 m 1xbf
 8 1 l 1xbf
 12 -3 l 1
 26 -3 l 1
 26 5 l 25
 10 5 l 25
 6 9 l 25
 6 21 l 25
 10 25 l 25
 26 25 l 25
 30 21 l 25
 30 -3 l 25
 26 -7 l 25
 10 -7 l 25
 6 -3 l 25x7f
 6 1 l 1xbf
EndSplineSet
Validated: 1
EndChar

StartChar: uni0122
Encoding: 290 290 291
Width: 35
Flags: W
HStem: -20 20G<16 22> -8 21G<16 22> 1 4<12 24> 17 4<20 28> 37 4<12 24>
VStem: 4 4<13 29> 26 4<29 33> 28 4<13 17>
DStem2: 4 29 8 29 0.447214 0.894427<1.78885 8.94427> 8 13 4 13 0.447214 -0.894427<0 7.15542> 24 5 28 5 0.447214 0.894427<1.78885 8.94427>
LayerCount: 2
Fore
SplineSet
20 0 m 29x9c
 22 -4 l 29
 20 -8 l 29
 16 -8 l 29x5c
 18 -4 l 29
 16 0 l 29
 20 0 l 29x9c
20 21 m 25
 32 21 l 25
 32 13 l 25x5d
 28 5 l 25
 24 1 l 25
 12 1 l 25
 8 5 l 25x3d
 4 13 l 25
 4 29 l 25
 8 37 l 25
 12 41 l 25
 24 41 l 25
 28 37 l 25x5d
 30 33 l 25
 30 29 l 25
 26 29 l 25
 26 33 l 25
 24 37 l 25
 12 37 l 25
 8 29 l 25
 8 13 l 25x5e
 12 5 l 25
 24 5 l 25x3e
 28 13 l 25
 28 17 l 25x5d
 20 17 l 25
 20 21 l 25
EndSplineSet
Validated: 1
EndChar

StartChar: uni0123
Encoding: 291 291 292
Width: 35
Flags: W
HStem: -19 20G<6 12> -7 4<12 26> 5 4<10 26> 21 4<10 26> 26 21G<16 22>
VStem: 6 4<9 21> 26 4<-3 5 9 21>
LayerCount: 2
Fore
SplineSet
20 34 m 25x3e
 22 30 l 25
 20 26 l 25
 16 26 l 25
 18 30 l 25
 16 34 l 25
 20 34 l 25x3e
10 9 m 25
 26 9 l 25
 26 21 l 25
 10 21 l 25
 10 9 l 25
6 1 m 1xbe
 8 1 l 1xbe
 12 -3 l 1
 26 -3 l 1
 26 5 l 25
 10 5 l 25
 6 9 l 25
 6 21 l 25
 10 25 l 25
 26 25 l 25
 30 21 l 25
 30 -3 l 25
 26 -7 l 25
 10 -7 l 25
 6 -3 l 25x7e
 6 1 l 1xbe
EndSplineSet
Validated: 1
EndChar

StartChar: Hbar
Encoding: 294 294 293
Width: 35
Flags: W
HStem: 1 21G<4 8 28 32> 21 20G<4 8 28 32> 21 4<8 28> 30 3<2 4 8 28 32 34>
VStem: 4 4<1 21 25 30 33 41> 28 4<1 21 25 30 33 41>
LayerCount: 2
Fore
SplineSet
4 41 m 1x4c
 8 41 l 1x4c
 8 33 l 1
 28 33 l 1x1c
 28 41 l 1
 32 41 l 1x4c
 32 33 l 1
 34 33 l 1
 34 30 l 1
 32 30 l 1
 32 1 l 1
 28 1 l 1x9c
 28 21 l 1
 8 21 l 1x4c
 8 1 l 1
 4 1 l 1
 4 30 l 1
 2 30 l 5
 2 33 l 5
 4 33 l 1x9c
 4 41 l 1x4c
8 30 m 1x3c
 8 25 l 1
 28 25 l 1
 28 30 l 1
 8 30 l 1x3c
EndSplineSet
Validated: 1
EndChar

StartChar: hbar
Encoding: 295 295 294
Width: 35
Flags: W
HStem: 1 21G<6 10 26 30> 21 20G<6 10> 21 4<10 26> 30 3<2 6 10 14>
VStem: 6 4<1 21 25 30 33 41> 26 4<1 21>
LayerCount: 2
Fore
SplineSet
6 41 m 1x4c
 10 41 l 1x4c
 10 33 l 1
 14 33 l 1
 14 30 l 1
 10 30 l 1
 10 25 l 1
 26 25 l 1
 30 21 l 1x3c
 30 1 l 1
 26 1 l 1x8c
 26 21 l 1x2c
 10 21 l 1x4c
 10 1 l 1
 6 1 l 1
 6 30 l 1
 2 30 l 1
 2 33 l 1
 6 33 l 1x9c
 6 41 l 1x4c
EndSplineSet
Validated: 1
EndChar

StartChar: Imacron
Encoding: 298 298 295
Width: 35
Flags: W
HStem: 1 4<8 16 20 28> 37 4<8 16 20 28> 45 4<12 24>
VStem: 16 4<5 37>
LayerCount: 2
Fore
SplineSet
12 45 m 25
 12 49 l 1
 24 49 l 25
 24 45 l 1
 12 45 l 25
8 41 m 29
 28 41 l 29
 28 37 l 29
 20 37 l 29
 20 5 l 29
 28 5 l 29
 28 1 l 29
 8 1 l 29
 8 5 l 29
 16 5 l 29
 16 37 l 29
 8 37 l 29
 8 41 l 29
EndSplineSet
Validated: 1
EndChar

StartChar: lcaron
Encoding: 318 318 296
Width: 35
Flags: W
HStem: 1 4<8 16 20 28> 37 4<12 16>
VStem: 12 8<37 41> 16 4<5 37>
LayerCount: 2
Fore
SplineSet
30 41 m 29xc0
 32 37 l 29
 30 33 l 29
 26 33 l 29
 28 37 l 29
 26 41 l 29
 30 41 l 29xc0
12 41 m 25xe0
 20 41 l 25xe0
 20 5 l 25
 28 5 l 25
 28 1 l 25
 8 1 l 25
 8 5 l 25
 16 5 l 25
 16 37 l 25xd0
 12 37 l 25
 12 41 l 25xe0
EndSplineSet
Validated: 1
EndChar

StartChar: imacron
Encoding: 299 299 297
Width: 35
Flags: W
HStem: 1 4<10 16 20 26> 21 4<12 16> 29 4<12 24>
VStem: 12 8<21 25> 16 4<5 21>
LayerCount: 2
Fore
SplineSet
12 29 m 25xf0
 12 33 l 1
 24 33 l 25
 24 29 l 1
 12 29 l 25xf0
12 25 m 29
 20 25 l 29xf0
 20 5 l 29
 26 5 l 29
 26 1 l 29
 10 1 l 29
 10 5 l 29
 16 5 l 29
 16 21 l 29xe8
 12 21 l 29
 12 25 l 29
EndSplineSet
Validated: 1
EndChar

StartChar: Iogonek
Encoding: 302 302 298
Width: 35
Flags: W
HStem: -7 21G<22 28> 1 4<8 16 20 24> 37 4<8 16 20 28>
VStem: 16 4<5 37>
LayerCount: 2
Fore
SplineSet
8 41 m 1x70
 28 41 l 1
 28 37 l 1
 20 37 l 1
 20 5 l 1
 28 5 l 1
 28 1 l 1x70
 26 -3 l 1
 28 -7 l 1
 24 -7 l 1xb0
 22 -3 l 1
 24 1 l 1
 8 1 l 1
 8 5 l 1
 16 5 l 1
 16 37 l 1
 8 37 l 1
 8 41 l 1x70
EndSplineSet
Validated: 1
EndChar

StartChar: iogonek
Encoding: 303 303 299
Width: 35
Flags: W
HStem: -7 21G<20 26> 1 4<10 16 20 22> 21 4<12 16> 29 4<16 20>
VStem: 12 8<21 25> 16 4<5 21 29 33>
LayerCount: 2
Fore
SplineSet
12 25 m 1x78
 20 25 l 1x78
 20 5 l 1
 26 5 l 1
 26 1 l 1x74
 24 -3 l 5
 26 -7 l 1
 22 -7 l 1xb4
 20 -3 l 5
 22 1 l 1
 10 1 l 1
 10 5 l 1
 16 5 l 1
 16 21 l 1x74
 12 21 l 1
 12 25 l 1x78
16 29 m 1x34
 16 33 l 1
 20 33 l 1
 20 29 l 1
 16 29 l 1x34
EndSplineSet
Validated: 1
EndChar

StartChar: Idotaccent
Encoding: 304 304 300
Width: 35
Flags: W
HStem: 1 4<8 16 20 28> 37 4<8 16 20 28> 44 8<14 22>
VStem: 14 8<44 52> 16 4<5 37>
LayerCount: 2
Fore
SplineSet
14 44 m 29xf0
 14 52 l 29
 22 52 l 29
 22 44 l 29
 14 44 l 29xf0
8 41 m 25
 28 41 l 25
 28 37 l 25
 20 37 l 25
 20 5 l 25
 28 5 l 25
 28 1 l 25
 8 1 l 25
 8 5 l 25
 16 5 l 25
 16 37 l 25xe8
 8 37 l 25
 8 41 l 25
EndSplineSet
Validated: 1
EndChar

StartChar: dotlessi
Encoding: 305 305 301
Width: 35
Flags: W
HStem: 1 4<10 16 20 26> 21 4<12 16>
VStem: 12 8<21 25> 16 4<5 21>
LayerCount: 2
Fore
SplineSet
12 25 m 25xe0
 20 25 l 25xe0
 20 5 l 25
 26 5 l 25
 26 1 l 25
 10 1 l 25
 10 5 l 25
 16 5 l 25
 16 21 l 25xd0
 12 21 l 25
 12 25 l 25xe0
EndSplineSet
Validated: 1
EndChar

StartChar: uni0136
Encoding: 310 310 302
Width: 35
Flags: W
HStem: -20 20G<16 22> -8 21G<16 22> 1 21G<4 8 8 31> 21 20G<4 8 8 27>
VStem: 4 4<1 21 25 41>
DStem2: 8 25 12 23 0.707107 0.707107<1.41421 22.6274> 12 23 8 21 0.707107 -0.707107<0 26.8701>
LayerCount: 2
Fore
SplineSet
20 0 m 29x88
 22 -4 l 29
 20 -8 l 29
 16 -8 l 29x48
 18 -4 l 29
 16 0 l 29
 20 0 l 29x88
4 41 m 25x18
 8 41 l 25
 8 25 l 1
 24 41 l 1x18
 27 38 l 1
 12 23 l 1
 31 4 l 1
 28 1 l 1x28
 8 21 l 25x18
 8 1 l 25
 4 1 l 25x28
 4 41 l 25x18
EndSplineSet
Validated: 1
EndChar

StartChar: uni0137
Encoding: 311 311 303
Width: 35
Flags: W
HStem: -20 20G<16 22> -8 21G<16 22> 1 21G<8 12 12 27> 21 20G<8 12>
VStem: 8 4<1 13 17 41>
DStem2: 12 17 16 15 0.707107 0.707107<1.41421 16.9706> 16 15 12 13 0.707107 -0.707107<0 15.5563>
LayerCount: 2
Fore
SplineSet
20 0 m 29x88
 22 -4 l 29
 20 -8 l 29
 16 -8 l 29x48
 18 -4 l 29
 16 0 l 29
 20 0 l 29x88
8 1 m 25x28
 8 41 l 25
 12 41 l 25x18
 12 17 l 25
 24 29 l 25
 27 26 l 25
 16 15 l 25
 27 4 l 25
 24 1 l 25x28
 12 13 l 25x48
 12 1 l 25
 8 1 l 25x28
EndSplineSet
Validated: 1
EndChar

StartChar: Lacute
Encoding: 313 313 304
Width: 35
Flags: W
HStem: 1 4<8 32> 21 20G<4 8>
VStem: 4 4<5 41>
DStem2: 16 47 19 44 0.707107 0.707107<0 12.7279>
LayerCount: 2
Fore
SplineSet
16 44 m 1
 16 47 l 1
 25 56 l 1
 28 56 l 1
 28 53 l 1
 19 44 l 1
 16 44 l 1
4 41 m 29
 8 41 l 29
 8 5 l 29
 32 5 l 29
 32 1 l 29
 4 1 l 29
 4 41 l 29
EndSplineSet
Validated: 1
EndChar

StartChar: lacute
Encoding: 314 314 305
Width: 35
Flags: W
HStem: 1 4<8 16 20 28> 37 4<12 16>
VStem: 12 8<37 41> 16 4<5 37>
DStem2: 16 47 19 44 0.707107 0.707107<0 12.7279>
LayerCount: 2
Fore
SplineSet
16 44 m 1xd0
 16 47 l 1
 25 56 l 1
 28 56 l 1
 28 53 l 1
 19 44 l 1
 16 44 l 1xd0
12 41 m 29xe0
 20 41 l 29xe0
 20 5 l 29
 28 5 l 29
 28 1 l 29
 8 1 l 29
 8 5 l 29
 16 5 l 29
 16 37 l 29xd0
 12 37 l 29
 12 41 l 29xe0
EndSplineSet
Validated: 1
EndChar

StartChar: uni013B
Encoding: 315 315 306
Width: 35
Flags: W
HStem: -20 20G<16 22> -8 21G<16 22> 1 4<8 32> 21 20G<4 8>
VStem: 4 4<5 41>
LayerCount: 2
Fore
SplineSet
20 0 m 29x98
 22 -4 l 29
 20 -8 l 29
 16 -8 l 29x58
 18 -4 l 29
 16 0 l 29
 20 0 l 29x98
4 41 m 25
 8 41 l 25
 8 5 l 25
 32 5 l 25
 32 1 l 25
 4 1 l 25x38
 4 41 l 25
EndSplineSet
Validated: 1
EndChar

StartChar: uni013C
Encoding: 316 316 307
Width: 35
Flags: W
HStem: -20 20G<16 22> -8 21G<16 22> 1 4<8 16 20 28> 37 4<12 16>
VStem: 12 8<37 41> 16 4<5 37>
LayerCount: 2
Fore
SplineSet
20 0 m 25x94
 22 -4 l 25
 20 -8 l 25
 16 -8 l 25x54
 18 -4 l 25
 16 0 l 25
 20 0 l 25x94
12 41 m 29x38
 20 41 l 29x38
 20 5 l 29
 28 5 l 29
 28 1 l 29
 8 1 l 29
 8 5 l 29
 16 5 l 29
 16 37 l 29x34
 12 37 l 29
 12 41 l 29x38
EndSplineSet
Validated: 1
EndChar

StartChar: Lcaron
Encoding: 317 317 308
Width: 35
Flags: W
HStem: 1 4<8 32> 21 20G<4 8 26 32>
VStem: 4 4<5 41>
LayerCount: 2
Fore
SplineSet
30 41 m 29
 32 37 l 29
 30 33 l 29
 26 33 l 29
 28 37 l 29
 26 41 l 29
 30 41 l 29
4 41 m 25
 8 41 l 25
 8 5 l 25
 32 5 l 25
 32 1 l 25
 4 1 l 25
 4 41 l 25
EndSplineSet
Validated: 1
EndChar

StartChar: uni0145
Encoding: 325 325 309
Width: 35
Flags: W
HStem: -20 20G<16 22> -8 21G<16 22> 1 21G<4 8 24 32> 21 20G<4 12 28 32>
VStem: 4 4<1 29> 28 4<17 41>
DStem2: 12 33 8 29 0.707107 -0.707107<0 22.6274>
LayerCount: 2
Fore
SplineSet
20 0 m 29x8c
 22 -4 l 25
 20 -8 l 25
 16 -8 l 25x4c
 18 -4 l 25
 16 0 l 29
 20 0 l 29x8c
4 1 m 29x2c
 4 41 l 29
 8 41 l 29
 12 33 l 29
 28 17 l 29
 28 41 l 29
 32 41 l 29x1c
 32 1 l 29
 28 1 l 29x2c
 24 13 l 29x4c
 8 29 l 29
 8 1 l 29
 4 1 l 29x2c
EndSplineSet
Validated: 1
EndChar

StartChar: uni0146
Encoding: 326 326 310
Width: 35
Flags: W
HStem: -20 20G<16 22> -8 21G<16 22> 1 21G<6 10 26 30> 21 4<4 6 10 26>
VStem: 6 4<1 21> 26 4<1 21>
LayerCount: 2
Fore
SplineSet
20 0 m 25x8c
 22 -4 l 25
 20 -8 l 25
 16 -8 l 25x4c
 18 -4 l 25
 16 0 l 25
 20 0 l 25x8c
4 25 m 29x1c
 28 25 l 29
 30 21 l 29x1c
 30 1 l 29
 26 1 l 29x2c
 26 21 l 29
 10 21 l 29x1c
 10 1 l 29
 6 1 l 29x2c
 6 21 l 29
 4 21 l 29
 4 25 l 29x1c
EndSplineSet
Validated: 1
EndChar

StartChar: Ncaron
Encoding: 327 327 311
Width: 35
Flags: W
HStem: 1 21G<4 8 24 32> 21 20G<4 12 28 32>
VStem: 4 4<1 29> 28 4<17 41>
DStem2: 12 33 8 29 0.707107 -0.707107<0 22.6274>
LayerCount: 2
Fore
SplineSet
12 57 m 29x30
 16 57 l 29
 18 53 l 5
 20 57 l 29
 24 57 l 29
 18 45 l 5
 12 57 l 29x30
4 1 m 25xb0
 4 41 l 25
 8 41 l 25
 12 33 l 25
 28 17 l 25
 28 41 l 25
 32 41 l 25x70
 32 1 l 25
 28 1 l 25
 24 13 l 25
 8 29 l 25
 8 1 l 25
 4 1 l 25xb0
EndSplineSet
Validated: 1
EndChar

StartChar: ncaron
Encoding: 328 328 312
Width: 35
Flags: W
HStem: 1 21G<6 10 26 30> 21 20G<12 18 18 24> 21 4<4 6 10 26>
VStem: 6 4<1 21> 26 4<1 21>
LayerCount: 2
Fore
SplineSet
12 41 m 29x58
 16 41 l 29
 18 37 l 5
 20 41 l 29
 24 41 l 29
 18 29 l 5
 12 41 l 29x58
4 25 m 25x38
 28 25 l 25
 30 21 l 25x38
 30 1 l 25
 26 1 l 25x98
 26 21 l 25
 10 21 l 25x38
 10 1 l 25
 6 1 l 25x98
 6 21 l 25
 4 21 l 25
 4 25 l 25x38
EndSplineSet
Validated: 1
EndChar

StartChar: Racute
Encoding: 340 340 313
Width: 35
Flags: W
HStem: 1 21G<4 8 8 32> 21 4<16 28> 37 4<8 28>
VStem: 4 4<1 21 25 37> 28 4<25 37>
DStem2: 16 21 8 21 0.707107 -0.707107<0 22.6274> 12 48 15 45 0.707107 0.707107<0 12.7279>
LayerCount: 2
Fore
SplineSet
12 45 m 5x38
 12 48 l 5
 21 57 l 5
 24 57 l 5
 24 54 l 5
 15 45 l 5
 12 45 l 5x38
8 25 m 25x78
 28 25 l 25
 28 37 l 25
 8 37 l 25
 8 25 l 25x78
4 1 m 25xb8
 4 41 l 25
 28 41 l 25
 32 37 l 25
 32 25 l 25
 28 21 l 25
 16 21 l 25x78
 32 5 l 25
 32 1 l 25
 28 1 l 25xb8
 8 21 l 25x78
 8 1 l 25
 4 1 l 25xb8
EndSplineSet
Validated: 1
EndChar

StartChar: racute
Encoding: 341 341 314
Width: 35
Flags: W
HStem: 1 21G<6 10> 21 20G<12 24> 21 4<14 26>
VStem: 6 4<1 17 21 25> 26 4<17 21>
DStem2: 12 32 15 29 0.707107 0.707107<0 12.7279>
LayerCount: 2
Fore
SplineSet
12 29 m 1x58
 12 32 l 1
 21 41 l 1
 24 41 l 1
 24 38 l 1
 15 29 l 1
 12 29 l 1x58
6 1 m 29x98
 6 25 l 29
 10 25 l 29
 10 21 l 29
 14 25 l 29
 26 25 l 29
 30 21 l 29
 30 17 l 29
 26 17 l 29
 26 21 l 29x38
 14 21 l 29x58
 10 17 l 29
 10 1 l 29
 6 1 l 29x98
EndSplineSet
Validated: 1
EndChar

StartChar: uni0156
Encoding: 342 342 315
Width: 35
Flags: W
HStem: -20 20G<16 22> -8 21G<16 22> 1 21G<4 8 8 32> 21 4<16 28> 37 4<8 28>
VStem: 4 4<1 21 25 37> 28 4<25 37>
DStem2: 16 21 8 21 0.707107 -0.707107<0 22.6274>
LayerCount: 2
Fore
SplineSet
20 0 m 29x8e
 22 -4 l 29
 20 -8 l 29
 16 -8 l 29x4e
 18 -4 l 29
 16 0 l 29
 20 0 l 29x8e
8 25 m 25x1e
 28 25 l 25
 28 37 l 25
 8 37 l 25
 8 25 l 25x1e
4 1 m 25x2e
 4 41 l 25
 28 41 l 25
 32 37 l 25
 32 25 l 25
 28 21 l 25
 16 21 l 25x1e
 32 5 l 25
 32 1 l 25
 28 1 l 25x2e
 8 21 l 25x1e
 8 1 l 25
 4 1 l 25x2e
EndSplineSet
Validated: 1
EndChar

StartChar: Rcaron
Encoding: 344 344 316
Width: 35
Flags: W
HStem: 1 21G<4 8 8 32> 21 4<16 28> 37 4<8 28>
VStem: 4 4<1 21 25 37> 28 4<25 37>
DStem2: 16 21 8 21 0.707107 -0.707107<0 22.6274>
LayerCount: 2
Fore
SplineSet
12 57 m 25x38
 16 57 l 25
 18 53 l 1
 20 57 l 25
 24 57 l 25
 18 45 l 1
 12 57 l 25x38
8 25 m 25x78
 28 25 l 25
 28 37 l 25
 8 37 l 25
 8 25 l 25x78
4 1 m 25xb8
 4 41 l 25
 28 41 l 25
 32 37 l 25
 32 25 l 25
 28 21 l 25
 16 21 l 25x78
 32 5 l 25
 32 1 l 25
 28 1 l 25xb8
 8 21 l 25x78
 8 1 l 25
 4 1 l 25xb8
EndSplineSet
Validated: 1
EndChar

StartChar: rcaron
Encoding: 345 345 317
Width: 35
Flags: W
HStem: 1 21G<6 10> 21 20G<12 18 18 24> 21 4<14 26>
VStem: 6 4<1 17 21 25> 26 4<17 21>
LayerCount: 2
Fore
SplineSet
12 41 m 25x58
 16 41 l 25
 18 37 l 1
 20 41 l 25
 24 41 l 25
 18 29 l 1
 12 41 l 25x58
6 1 m 25x98
 6 25 l 25
 10 25 l 25
 10 21 l 25
 14 25 l 25
 26 25 l 25
 30 21 l 25
 30 17 l 25
 26 17 l 25
 26 21 l 25x38
 14 21 l 25x58
 10 17 l 25
 10 1 l 25
 6 1 l 25x98
EndSplineSet
Validated: 1
EndChar

StartChar: Scedilla
Encoding: 350 350 318
Width: 35
Flags: W
HStem: -20 20G<16 22> -8 21G<16 22> 1 4<10 26> 21 4<10 26> 37 4<10 26>
VStem: 4 4<29 33> 6 4<5 9> 26 4<33 37> 28 4<9 17>
LayerCount: 2
Fore
SplineSet
20 0 m 29x98
 22 -4 l 29
 20 -8 l 29
 16 -8 l 29x58
 18 -4 l 29
 16 0 l 29
 20 0 l 29x98
30 33 m 25x3b
 26 33 l 25
 26 37 l 25
 10 37 l 25x3b
 8 33 l 25
 8 29 l 25x3c
 10 25 l 25
 26 25 l 25
 30 21 l 25x3b
 32 17 l 25
 32 9 l 25x3880
 30 5 l 25
 26 1 l 25
 10 1 l 25
 6 5 l 25
 6 9 l 25
 10 9 l 25
 10 5 l 25
 26 5 l 25x3b
 28 9 l 25
 28 17 l 25x3880
 26 21 l 25
 10 21 l 25
 6 25 l 25x3b
 4 29 l 25
 4 33 l 25x3c
 6 37 l 25
 10 41 l 25
 26 41 l 25
 30 37 l 25
 30 33 l 25x3b
EndSplineSet
Validated: 1
EndChar

StartChar: scedilla
Encoding: 351 351 319
Width: 35
Flags: W
HStem: -20 20G<16 22> -8 21G<16 22> 1 4<6 26> 13 4<10 26> 21 4<10 28>
VStem: 6 4<17 21> 26 4<5 13>
LayerCount: 2
Fore
SplineSet
20 0 m 29x8e
 22 -4 l 29
 20 -8 l 29
 16 -8 l 29x4e
 18 -4 l 29
 16 0 l 29
 20 0 l 29x8e
28 25 m 25
 28 21 l 25
 10 21 l 25
 10 17 l 25
 28 17 l 25
 30 13 l 25
 30 5 l 25
 26 1 l 25
 6 1 l 25
 6 5 l 25
 26 5 l 25
 26 13 l 25
 8 13 l 25
 6 17 l 25x3e
 6 21 l 25
 8 25 l 25
 28 25 l 25
EndSplineSet
Validated: 1
EndChar

StartChar: tcaron
Encoding: 357 357 320
Width: 35
Flags: W
HStem: 1 4<18 26> 21 20G<14 18 26 32> 25 4<6 14 18 26>
VStem: 14 4<5 25 29 41> 26 4<5 9>
LayerCount: 2
Fore
SplineSet
30 41 m 25xd8
 32 37 l 25
 30 33 l 25
 26 33 l 25
 28 37 l 25
 26 41 l 25
 30 41 l 25xd8
14 41 m 25
 18 41 l 25xd8
 18 29 l 25
 26 29 l 25
 26 25 l 25
 18 25 l 25
 18 5 l 25
 26 5 l 25
 26 9 l 25
 30 9 l 25
 30 5 l 25
 26 1 l 25
 18 1 l 25
 14 5 l 25
 14 25 l 25
 6 25 l 25
 6 29 l 25
 14 29 l 25xb8
 14 41 l 25
EndSplineSet
Validated: 1
EndChar

StartChar: Tcaron
Encoding: 356 356 321
Width: 35
Flags: W
HStem: 1 21G<16 20> 37 4<4 16 20 32>
VStem: 16 4<1 37>
LayerCount: 2
Fore
SplineSet
16 1 m 29
 16 37 l 29
 4 37 l 29
 4 41 l 29
 32 41 l 29
 32 37 l 29
 20 37 l 29
 20 1 l 29
 16 1 l 29
EndSplineSet
Validated: 1
EndChar

StartChar: umacron
Encoding: 363 363 322
Width: 35
Flags: W
HStem: 1 4<10 26 30 32> 5 20G<6 10 26 30> 29 4<12 24>
VStem: 6 4<5 25> 26 4<5 25>
LayerCount: 2
Fore
SplineSet
12 29 m 25x38
 12 33 l 1
 24 33 l 25
 24 29 l 1
 12 29 l 25x38
6 25 m 29x78
 10 25 l 29x78
 10 5 l 29
 26 5 l 29xb8
 26 25 l 29
 30 25 l 29x78
 30 5 l 29
 32 5 l 29
 32 1 l 29
 8 1 l 29xb8
 6 5 l 29
 6 25 l 29x78
EndSplineSet
Validated: 1
EndChar

StartChar: Umacron
Encoding: 362 362 323
Width: 35
Flags: W
HStem: 1 4<10 26> 21 20G<4 8 28 32> 45 4<12 24>
VStem: 4 4<9 41> 28 4<9 41>
LayerCount: 2
Fore
SplineSet
12 45 m 29
 12 49 l 5
 24 49 l 29
 24 45 l 5
 12 45 l 29
4 41 m 25
 8 41 l 25
 8 9 l 25
 10 5 l 25
 26 5 l 25
 28 9 l 25
 28 41 l 25
 32 41 l 25
 32 9 l 25
 30 5 l 25
 26 1 l 25
 10 1 l 25
 6 5 l 25
 4 9 l 25
 4 41 l 25
EndSplineSet
Validated: 1
EndChar

StartChar: Uring
Encoding: 366 366 324
Width: 35
Flags: W
HStem: 1 4<10 26> 21 20G<4 8 28 32> 45 4<16 20> 53 4<16 20>
VStem: 4 4<9 41> 12 4<49 53> 20 4<49 53> 28 4<9 41>
LayerCount: 2
Fore
SplineSet
20 53 m 29
 16 53 l 29
 16 49 l 29
 20 49 l 29
 20 53 l 29
12 53 m 29
 16 57 l 29
 20 57 l 29
 24 53 l 29
 24 49 l 29
 20 45 l 29
 16 45 l 29
 12 49 l 29
 12 53 l 29
4 41 m 25
 8 41 l 25
 8 9 l 25
 10 5 l 25
 26 5 l 25
 28 9 l 25
 28 41 l 25
 32 41 l 25
 32 9 l 25
 30 5 l 25
 26 1 l 25
 10 1 l 25
 6 5 l 25
 4 9 l 25
 4 41 l 25
EndSplineSet
Validated: 1
EndChar

StartChar: uring
Encoding: 367 367 325
Width: 35
Flags: W
HStem: 1 4<10 26 30 32> 5 20G<6 10 26 30> 29 4<16 20> 37 4<16 20>
VStem: 6 4<5 25> 12 4<33 37> 20 4<33 37> 26 4<5 25>
LayerCount: 2
Fore
SplineSet
20 37 m 29x3f
 16 37 l 29
 16 33 l 29
 20 33 l 29
 20 37 l 29x3f
12 37 m 29
 16 41 l 29
 20 41 l 29
 24 37 l 29
 24 33 l 29
 20 29 l 29
 16 29 l 29
 12 33 l 29
 12 37 l 29
6 25 m 25x7f
 10 25 l 25x7f
 10 5 l 25
 26 5 l 25xbf
 26 25 l 25
 30 25 l 25x7f
 30 5 l 25
 32 5 l 25
 32 1 l 25
 8 1 l 25xbf
 6 5 l 25
 6 25 l 25x7f
EndSplineSet
Validated: 1
EndChar

StartChar: Uogonek
Encoding: 370 370 326
Width: 35
Flags: W
HStem: -7 21G<16 22> 1 4<10 18 22 26> 21 20G<4 8 28 32>
VStem: 4 4<9 41> 28 4<9 41>
LayerCount: 2
Fore
SplineSet
4 41 m 1x78
 8 41 l 1
 8 9 l 1
 10 5 l 1
 26 5 l 1
 28 9 l 1
 28 41 l 1
 32 41 l 1
 32 9 l 1
 30 5 l 1
 26 1 l 1
 22 1 l 1x78
 20 -3 l 1
 22 -7 l 1
 18 -7 l 1xb8
 16 -3 l 1
 18 1 l 1
 10 1 l 1
 6 5 l 1
 4 9 l 1
 4 41 l 1x78
EndSplineSet
Validated: 1
EndChar

StartChar: uogonek
Encoding: 371 371 327
Width: 35
Flags: W
HStem: -7 21G<26 32> 1 4<10 26> 5 20G<6 10 26 30>
VStem: 6 4<5 25> 26 4<5 25>
LayerCount: 2
Fore
SplineSet
6 25 m 1x38
 10 25 l 1x38
 10 5 l 1
 26 5 l 1x58
 26 25 l 1
 30 25 l 1
 30 5 l 1
 32 5 l 1x38
 32 1 l 5x58
 30 -3 l 5
 32 -7 l 5
 28 -7 l 5x98
 26 -3 l 5
 28 1 l 5
 8 1 l 1x58
 6 5 l 1
 6 25 l 1x38
EndSplineSet
Validated: 1
EndChar

StartChar: Wcircumflex
Encoding: 372 372 328
Width: 35
Flags: W
HStem: 1 21G<4 18 18 32> 21 20G<4 8 28 32>
VStem: 4 4<7 41> 16 4<15 21> 28 4<7 41>
DStem2: 8 7 8 1 0.707107 0.707107<0 9.89949> 20 15 18 11 0.707107 -0.707107<1.41421 11.3137>
CounterMasks: 1 38
LayerCount: 2
Fore
SplineSet
12 45 m 29x38
 18 57 l 5
 24 45 l 29
 20 45 l 29
 18 49 l 5
 16 45 l 29
 12 45 l 29x38
4 41 m 25x78
 8 41 l 25
 8 7 l 25
 16 15 l 25
 16 21 l 25
 20 21 l 25
 20 15 l 25
 28 7 l 25
 28 41 l 25
 32 41 l 25x78
 32 1 l 25
 28 1 l 25
 18 11 l 25
 8 1 l 25
 4 1 l 25xb8
 4 41 l 25x78
EndSplineSet
Validated: 1
EndChar

StartChar: wcircumflex
Encoding: 373 373 329
Width: 35
Flags: W
HStem: 1 21G<4 18 18 32> 5 20G<4 8 28 32> 21 20G<12 24>
VStem: 4 4<13 25> 16 4<13 17> 28 4<13 25>
DStem2: 8 13 4 13 0.447214 -0.894427<0 8.94427> 12 5 14 1 0.447214 0.894427<0 6.26099> 20 13 18 9 0.447214 -0.894427<2.68328 8.94427> 24 5 26 1 0.447214 0.894427<0 8.94427>
CounterMasks: 1 1c
LayerCount: 2
Fore
SplineSet
12 29 m 29x3c
 18 41 l 5
 24 29 l 29
 20 29 l 29
 18 33 l 5
 16 29 l 29
 12 29 l 29x3c
4 25 m 25x5c
 8 25 l 25
 8 13 l 25
 12 5 l 25
 16 13 l 25
 16 17 l 25
 20 17 l 25
 20 13 l 25
 24 5 l 25
 28 13 l 25
 28 25 l 25
 32 25 l 25x5c
 32 13 l 25
 26 1 l 25
 22 1 l 25
 18 9 l 25
 14 1 l 25
 10 1 l 25x9c
 4 13 l 25
 4 25 l 25x5c
EndSplineSet
Validated: 1
EndChar

StartChar: Ycircumflex
Encoding: 374 374 330
Width: 35
Flags: W
HStem: 1 21G<16 20> 21 20G<6 18 18 30>
VStem: 16 4<1 21>
DStem2: 10 41 6 41 0.447214 -0.894427<0 17.8885> 18 25 20 21 0.447214 0.894427<0 17.8885>
LayerCount: 2
Fore
SplineSet
12 45 m 29x20
 18 57 l 5
 24 45 l 29
 20 45 l 29
 18 49 l 5
 16 45 l 29
 12 45 l 29x20
10 41 m 25x60
 18 25 l 25
 26 41 l 25
 30 41 l 25
 20 21 l 25x60
 20 1 l 25
 16 1 l 25xa0
 16 21 l 25
 6 41 l 25
 10 41 l 25x60
EndSplineSet
Validated: 1
EndChar

StartChar: ycircumflex
Encoding: 375 375 331
Width: 35
Flags: W
HStem: -7 4<6 10> 5 20G<8 18 18 28> 21 20G<12 24>
DStem2: 12 25 8 25 0.447214 -0.894427<0 13.4164> 10 -3 12 -7 0.447214 0.894427<0 13.4164 17.8885 31.305>
LayerCount: 2
Fore
SplineSet
12 29 m 29xa0
 18 41 l 5
 24 29 l 29
 20 29 l 29
 18 33 l 5
 16 29 l 29
 12 29 l 29xa0
8 25 m 25xc0
 12 25 l 25
 18 13 l 25
 24 25 l 25
 28 25 l 25
 12 -7 l 25
 6 -7 l 25
 6 -3 l 25
 10 -3 l 1
 16 9 l 25
 8 25 l 25xc0
EndSplineSet
Validated: 1
EndChar

StartChar: zdotaccent
Encoding: 380 380 332
Width: 35
Flags: W
HStem: 1 4<14 30> 21 4<6 22> 28 8<14 22>
VStem: 14 8<28 36>
DStem2: 6 1 14 5 0.624695 0.780869<8.12104 25.6125>
LayerCount: 2
Fore
SplineSet
14 28 m 25
 14 36 l 25
 22 36 l 25
 22 28 l 25
 14 28 l 25
22 21 m 25
 6 21 l 25
 6 25 l 25
 30 25 l 1
 14 5 l 25
 30 5 l 1
 30 1 l 25
 6 1 l 25
 22 21 l 25
EndSplineSet
Validated: 1
EndChar

StartChar: uni0237
Encoding: 567 567 333
Width: 35
Flags: W
HStem: -19 20G<8 12> -7 4<12 20> 21 4<18 22>
VStem: 8 4<-3 1> 18 8<21 25> 22 4<1 21>
LayerCount: 2
Fore
SplineSet
18 25 m 29xb8
 26 25 l 29xb8
 26 1 l 29xb4
 24 -3 l 29
 20 -7 l 29
 12 -7 l 29
 8 -3 l 29x74
 8 1 l 29
 12 1 l 29xb4
 12 -3 l 29
 20 -3 l 29x74
 22 1 l 29
 22 21 l 29xb4
 18 21 l 29
 18 25 l 29xb8
EndSplineSet
Validated: 1
EndChar

StartChar: circumflex
Encoding: 710 710 334
Width: 35
Flags: W
HStem: 45 12
VStem: 12 12
LayerCount: 2
Fore
SplineSet
12 45 m 29
 18 57 l 5
 24 45 l 29
 20 45 l 29
 18 49 l 5
 16 45 l 29
 12 45 l 29
EndSplineSet
Validated: 1
EndChar

StartChar: caron
Encoding: 711 711 335
Width: 35
Flags: W
HStem: 45 12
VStem: 12 12
LayerCount: 2
Fore
SplineSet
12 57 m 25
 16 57 l 25
 18 53 l 1
 20 57 l 25
 24 57 l 25
 18 45 l 1
 12 57 l 25
EndSplineSet
Validated: 1
EndChar

StartChar: breve
Encoding: 728 728 336
Width: 35
Flags: W
HStem: 44 8
VStem: 12 12
LayerCount: 2
Fore
SplineSet
20 52 m 29
 24 52 l 29
 20 45 l 29
 18 44 l 29
 16 45 l 5
 12 52 l 13
 16 52 l 29
 17 49 l 29
 18 48 l 29
 19 49 l 29
 20 52 l 29
EndSplineSet
Validated: 1
EndChar

StartChar: dotaccent
Encoding: 729 729 337
Width: 35
Flags: W
HStem: 44 8<14 22>
VStem: 14 8<44 52>
LayerCount: 2
Fore
SplineSet
14 44 m 29
 14 52 l 29
 22 52 l 29
 22 44 l 29
 14 44 l 29
EndSplineSet
Validated: 1
EndChar

StartChar: ring
Encoding: 730 730 338
Width: 35
Flags: W
HStem: 45 4<16 20> 53 4<16 20>
VStem: 12 4<49 53> 20 4<49 53>
LayerCount: 2
Fore
SplineSet
20 53 m 29
 16 53 l 29
 16 49 l 29
 20 49 l 29
 20 53 l 29
12 53 m 29
 16 57 l 29
 20 57 l 29
 24 53 l 29
 24 49 l 29
 20 45 l 29
 16 45 l 29
 12 49 l 29
 12 53 l 29
EndSplineSet
Validated: 1
EndChar

StartChar: ogonek
Encoding: 731 731 339
Width: 35
Flags: W
HStem: -19 20G<16 22> -7 21G<16 22>
VStem: 16 6
LayerCount: 2
Fore
SplineSet
22 1 m 29xa0
 20 -3 l 29
 22 -7 l 29
 18 -7 l 29x60
 16 -3 l 29
 18 1 l 29
 22 1 l 29xa0
EndSplineSet
Validated: 1
EndChar

StartChar: tilde
Encoding: 732 732 340
Width: 35
Flags: W
HStem: 45 4<20 24> 53 4<12 16>
VStem: 8 4<49 53> 16 4<49 53> 24 4<49 53>
CounterMasks: 1 38
LayerCount: 2
Fore
SplineSet
8 49 m 25
 8 53 l 25
 12 57 l 25
 16 57 l 25
 20 53 l 25
 20 49 l 25
 24 49 l 25
 24 53 l 25
 28 53 l 25
 28 49 l 25
 24 45 l 25
 20 45 l 25
 16 49 l 25
 16 53 l 25
 12 53 l 25
 12 49 l 25
 8 49 l 25
EndSplineSet
Validated: 1
EndChar

StartChar: hungarumlaut
Encoding: 733 733 341
Width: 35
Flags: W
HStem: 45 12
DStem2: 8 48 11 45 0.707107 0.707107<0 12.7279> 18 48 21 45 0.707107 0.707107<0 12.7279>
LayerCount: 2
Fore
SplineSet
18 45 m 5
 18 48 l 5
 27 57 l 5
 30 57 l 5
 30 54 l 5
 21 45 l 5
 18 45 l 5
8 45 m 5
 8 48 l 5
 17 57 l 5
 20 57 l 5
 20 54 l 5
 11 45 l 5
 8 45 l 5
EndSplineSet
Validated: 1
EndChar

StartChar: gravecomb
Encoding: 768 768 342
Width: 35
Flags: W
HStem: 45 12
VStem: 12 12
DStem2: 15 57 12 54 0.707107 -0.707107<0 12.7279>
LayerCount: 2
Fore
SplineSet
24 45 m 5
 21 45 l 5
 12 54 l 5
 12 57 l 5
 15 57 l 5
 24 48 l 5
 24 45 l 5
EndSplineSet
Validated: 1
EndChar

StartChar: acutecomb
Encoding: 769 769 343
Width: 35
Flags: W
HStem: 45 12
VStem: 12 12
DStem2: 12 48 15 45 0.707107 0.707107<0 12.7279>
LayerCount: 2
Fore
SplineSet
12 45 m 5
 12 48 l 5
 21 57 l 5
 24 57 l 5
 24 54 l 5
 15 45 l 5
 12 45 l 5
EndSplineSet
Validated: 1
EndChar

StartChar: uni0302
Encoding: 770 770 344
Width: 35
Flags: W
HStem: 45 12
VStem: 12 12
LayerCount: 2
Fore
SplineSet
12 45 m 29
 18 57 l 5
 24 45 l 29
 20 45 l 29
 18 49 l 5
 16 45 l 29
 12 45 l 29
EndSplineSet
Validated: 1
EndChar

StartChar: tildecomb
Encoding: 771 771 345
Width: 35
Flags: W
HStem: 45 4<20 28> 53 4<8 16>
VStem: 4 4<49 53> 16 4<49 53> 28 4<49 53>
CounterMasks: 1 38
LayerCount: 2
Fore
SplineSet
4 49 m 29
 4 53 l 29
 8 57 l 29
 16 57 l 29
 20 53 l 29
 20 49 l 29
 28 49 l 29
 28 53 l 29
 32 53 l 29
 32 49 l 29
 28 45 l 29
 20 45 l 29
 16 49 l 29
 16 53 l 29
 8 53 l 29
 8 49 l 29
 4 49 l 29
EndSplineSet
Validated: 1
EndChar

StartChar: uni0304
Encoding: 772 772 346
Width: 35
Flags: W
HStem: 45 4<12 24>
VStem: 12 12<45 49>
LayerCount: 2
Fore
SplineSet
12 45 m 29
 12 49 l 5
 24 49 l 29
 24 45 l 5
 12 45 l 29
EndSplineSet
Validated: 1
EndChar

StartChar: uni0306
Encoding: 774 774 347
Width: 35
Flags: W
HStem: 44 8
VStem: 12 12
LayerCount: 2
Fore
SplineSet
20 52 m 29
 24 52 l 29
 20 45 l 29
 18 44 l 29
 16 45 l 5
 12 52 l 13
 16 52 l 29
 17 49 l 29
 18 48 l 29
 19 49 l 29
 20 52 l 29
EndSplineSet
Validated: 1
EndChar

StartChar: uni0307
Encoding: 775 775 348
Width: 35
Flags: W
HStem: 44 8<14 22>
VStem: 14 8<44 52>
LayerCount: 2
Fore
SplineSet
14 44 m 25
 14 52 l 25
 22 52 l 25
 22 44 l 25
 14 44 l 25
EndSplineSet
Validated: 1
EndChar

StartChar: uni0308
Encoding: 776 776 349
Width: 35
Flags: W
HStem: 45 4<12 16 20 24>
VStem: 12 4<45 49> 20 4<45 49>
LayerCount: 2
Fore
SplineSet
20 45 m 5
 20 49 l 5
 24 49 l 5
 24 45 l 5
 20 45 l 5
16 45 m 5
 12 45 l 5
 12 49 l 5
 16 49 l 5
 16 45 l 5
EndSplineSet
Validated: 1
EndChar

StartChar: uni030A
Encoding: 778 778 350
Width: 35
Flags: W
HStem: 45 4<16 20> 53 4<16 20>
VStem: 12 4<49 53> 20 4<49 53>
LayerCount: 2
Fore
SplineSet
20 53 m 29
 16 53 l 29
 16 49 l 29
 20 49 l 29
 20 53 l 29
12 53 m 29
 16 57 l 29
 20 57 l 29
 24 53 l 29
 24 49 l 29
 20 45 l 29
 16 45 l 29
 12 49 l 29
 12 53 l 29
EndSplineSet
Validated: 1
EndChar

StartChar: uni030B
Encoding: 779 779 351
Width: 35
Flags: W
HStem: 45 12
DStem2: 8 48 11 45 0.707107 0.707107<0 12.7279> 18 48 21 45 0.707107 0.707107<0 12.7279>
LayerCount: 2
Fore
SplineSet
18 45 m 5
 18 48 l 5
 27 57 l 5
 30 57 l 5
 30 54 l 5
 21 45 l 5
 18 45 l 5
8 45 m 5
 8 48 l 5
 17 57 l 5
 20 57 l 5
 20 54 l 5
 11 45 l 5
 8 45 l 5
EndSplineSet
Validated: 1
EndChar

StartChar: uni030C
Encoding: 780 780 352
Width: 35
Flags: W
HStem: 45 12
VStem: 12 12
LayerCount: 2
Fore
SplineSet
12 57 m 25
 16 57 l 25
 18 53 l 1
 20 57 l 25
 24 57 l 25
 18 45 l 1
 12 57 l 25
EndSplineSet
Validated: 1
EndChar

StartChar: uni0326
Encoding: 806 806 353
Width: 35
Flags: W
HStem: -8 8<14 18>
VStem: 14 8<-8 0> 16 4<-16 -14.432>
LayerCount: 2
Fore
SplineSet
14 0 m 29xc0
 22 0 l 29
 22 -8 l 29xc0
 20 -16 l 29
 16 -16 l 29xa0
 18 -8 l 29
 14 -8 l 29
 14 0 l 29xc0
EndSplineSet
Validated: 1
EndChar

StartChar: uni0327
Encoding: 807 807 354
Width: 35
Flags: W
HStem: -19 20G<16 22> -7 21G<16 22>
VStem: 16 6
LayerCount: 2
Fore
SplineSet
20 1 m 29xa0
 22 -3 l 29
 20 -7 l 29
 16 -7 l 29x60
 18 -3 l 29
 16 1 l 29
 20 1 l 29xa0
EndSplineSet
Validated: 1
EndChar

StartChar: uni0328
Encoding: 808 808 355
Width: 35
Flags: W
HStem: -19 20G<16 22> -7 21G<16 22>
VStem: 16 6
LayerCount: 2
Fore
SplineSet
22 1 m 29xa0
 20 -3 l 29
 22 -7 l 29
 18 -7 l 29x60
 16 -3 l 29
 18 1 l 29
 22 1 l 29xa0
EndSplineSet
Validated: 1
EndChar

StartChar: Wgrave
Encoding: 7808 7808 356
Width: 35
Flags: W
HStem: 1 21G<4 18 18 32> 21 20G<4 8 28 32>
VStem: 4 4<7 41> 16 4<15 21> 28 4<7 41>
DStem2: 8 7 8 1 0.707107 0.707107<0 9.89949> 15 57 12 54 0.707107 -0.707107<0 12.7279> 20 15 18 11 0.707107 -0.707107<1.41421 11.3137>
CounterMasks: 1 38
LayerCount: 2
Fore
SplineSet
24 45 m 5x38
 21 45 l 5
 12 54 l 5
 12 57 l 5
 15 57 l 5
 24 48 l 5
 24 45 l 5x38
4 41 m 25x78
 8 41 l 25
 8 7 l 25
 16 15 l 25
 16 21 l 25
 20 21 l 25
 20 15 l 25
 28 7 l 25
 28 41 l 25
 32 41 l 25x78
 32 1 l 25
 28 1 l 25
 18 11 l 25
 8 1 l 25
 4 1 l 25xb8
 4 41 l 25x78
EndSplineSet
Validated: 1
EndChar

StartChar: wgrave
Encoding: 7809 7809 357
Width: 35
Flags: W
HStem: 1 21G<4 18 18 32> 5 20G<4 8 28 32> 21 20G<12 24>
VStem: 4 4<13 25> 16 4<13 17> 28 4<13 25>
DStem2: 8 13 4 13 0.447214 -0.894427<0 8.94427> 15 41 12 38 0.707107 -0.707107<0 12.7279> 12 5 14 1 0.447214 0.894427<0 6.26099> 20 13 18 9 0.447214 -0.894427<2.68328 8.94427> 24 5 26 1 0.447214 0.894427<0 8.94427>
CounterMasks: 1 1c
LayerCount: 2
Fore
SplineSet
24 29 m 1x3c
 21 29 l 1
 12 38 l 1
 12 41 l 1
 15 41 l 1
 24 32 l 1
 24 29 l 1x3c
4 25 m 29x5c
 8 25 l 29
 8 13 l 29
 12 5 l 29
 16 13 l 29
 16 17 l 29
 20 17 l 29
 20 13 l 29
 24 5 l 29
 28 13 l 29
 28 25 l 29
 32 25 l 29x5c
 32 13 l 29
 26 1 l 29
 22 1 l 29
 18 9 l 29
 14 1 l 29
 10 1 l 29x9c
 4 13 l 29
 4 25 l 29x5c
EndSplineSet
Validated: 1
EndChar

StartChar: wacute
Encoding: 7811 7811 358
Width: 35
Flags: W
HStem: 1 21G<4 18 18 32> 5 20G<4 8 28 32> 21 20G<12 24>
VStem: 4 4<13 25> 16 4<13 17> 28 4<13 25>
DStem2: 8 13 4 13 0.447214 -0.894427<0 8.94427> 12 32 15 29 0.707107 0.707107<0 12.7279> 12 5 14 1 0.447214 0.894427<0 6.26099> 20 13 18 9 0.447214 -0.894427<2.68328 8.94427> 24 5 26 1 0.447214 0.894427<0 8.94427>
CounterMasks: 1 1c
LayerCount: 2
Fore
SplineSet
12 29 m 5x3c
 12 32 l 5
 21 41 l 5
 24 41 l 5
 24 38 l 5
 15 29 l 5
 12 29 l 5x3c
4 25 m 25x5c
 8 25 l 25
 8 13 l 25
 12 5 l 25
 16 13 l 25
 16 17 l 25
 20 17 l 25
 20 13 l 25
 24 5 l 25
 28 13 l 25
 28 25 l 25
 32 25 l 25x5c
 32 13 l 25
 26 1 l 25
 22 1 l 25
 18 9 l 25
 14 1 l 25
 10 1 l 25x9c
 4 13 l 25
 4 25 l 25x5c
EndSplineSet
Validated: 1
EndChar

StartChar: Wacute
Encoding: 7810 7810 359
Width: 35
Flags: W
HStem: 1 21G<4 18 18 32> 21 20G<4 8 28 32>
VStem: 4 4<7 41> 16 4<15 21> 28 4<7 41>
DStem2: 8 7 8 1 0.707107 0.707107<0 9.89949> 12 48 15 45 0.707107 0.707107<0 12.7279> 20 15 18 11 0.707107 -0.707107<1.41421 11.3137>
CounterMasks: 1 38
LayerCount: 2
Fore
SplineSet
12 45 m 1x38
 12 48 l 1
 21 57 l 1
 24 57 l 1
 24 54 l 1
 15 45 l 1
 12 45 l 1x38
4 41 m 25x78
 8 41 l 25
 8 7 l 25
 16 15 l 25
 16 21 l 25
 20 21 l 25
 20 15 l 25
 28 7 l 25
 28 41 l 25
 32 41 l 25x78
 32 1 l 25
 28 1 l 25
 18 11 l 25
 8 1 l 25
 4 1 l 25xb8
 4 41 l 25x78
EndSplineSet
Validated: 1
EndChar

StartChar: Wdieresis
Encoding: 7812 7812 360
Width: 35
Flags: W
HStem: 1 21G<4 18 18 32> 21 20G<4 8 28 32> 45 4<12 16 20 24>
VStem: 4 4<7 41> 12 4<45 49> 16 4<15 21> 20 4<45 49> 28 4<7 41>
DStem2: 8 7 8 1 0.707107 0.707107<0 9.89949> 20 15 18 11 0.707107 -0.707107<1.41421 11.3137>
LayerCount: 2
Fore
SplineSet
20 45 m 5x33
 20 49 l 5
 24 49 l 5
 24 45 l 5
 20 45 l 5x33
16 45 m 5x39
 12 45 l 5
 12 49 l 5
 16 49 l 5
 16 45 l 5x39
4 41 m 25x75
 8 41 l 25
 8 7 l 25
 16 15 l 25
 16 21 l 25
 20 21 l 25
 20 15 l 25
 28 7 l 25
 28 41 l 25
 32 41 l 25x75
 32 1 l 25
 28 1 l 25
 18 11 l 25
 8 1 l 25
 4 1 l 25xb5
 4 41 l 25x75
EndSplineSet
Validated: 1
EndChar

StartChar: wdieresis
Encoding: 7813 7813 361
Width: 35
Flags: W
HStem: 1 21G<4 18 18 32> 5 20G<4 8 28 32> 29 4<12 16 20 24>
VStem: 4 4<13 25> 12 4<29 33> 16 4<13 17> 20 4<29 33> 28 4<13 25>
DStem2: 8 13 4 13 0.447214 -0.894427<0 8.94427> 12 5 14 1 0.447214 0.894427<0 6.26099> 20 13 18 9 0.447214 -0.894427<2.68328 8.94427> 24 5 26 1 0.447214 0.894427<0 8.94427>
LayerCount: 2
Fore
SplineSet
20 29 m 5x33
 20 33 l 5
 24 33 l 5
 24 29 l 5
 20 29 l 5x33
16 29 m 5x39
 12 29 l 5
 12 33 l 5
 16 33 l 5
 16 29 l 5x39
4 25 m 25x73
 8 25 l 25
 8 13 l 25
 12 5 l 25x7b
 16 13 l 25
 16 17 l 25
 20 17 l 25
 20 13 l 25x75
 24 5 l 25
 28 13 l 25
 28 25 l 25
 32 25 l 25x73
 32 13 l 25
 26 1 l 25
 22 1 l 25
 18 9 l 25
 14 1 l 25
 10 1 l 25xb3
 4 13 l 25
 4 25 l 25x73
EndSplineSet
Validated: 1
EndChar

StartChar: uni1E9E
Encoding: 7838 7838 362
Width: 35
Flags: W
HStem: 1 4<11 28> 13 4<15 28> 37 4<8 24>
VStem: 4 4<1 37> 28 4<5 13>
DStem2: 11 17 15 17 0.544988 0.838444<2.17995 23.8537>
LayerCount: 2
Fore
SplineSet
11 17 m 25
 24 37 l 1
 8 37 l 1
 8 1 l 1
 4 1 l 1
 4 37 l 1
 8 41 l 1
 24 41 l 1
 28 37 l 1
 15 17 l 9
 30 17 l 25
 32 13 l 25
 32 5 l 25
 28 1 l 1
 11 1 l 25
 11 5 l 1
 28 5 l 25
 28 13 l 25
 13 13 l 25
 11 17 l 25
EndSplineSet
Validated: 1
EndChar

StartChar: Ygrave
Encoding: 7922 7922 363
Width: 35
Flags: W
HStem: 1 21G<16 20> 21 20G<6 18 18 30>
VStem: 16 4<1 21>
DStem2: 10 41 6 41 0.447214 -0.894427<0 17.8885> 12 48 15 45 0.707107 0.707107<0 12.7279> 18 25 20 21 0.447214 0.894427<0 17.8885>
LayerCount: 2
Fore
SplineSet
12 45 m 5x20
 12 48 l 5
 21 57 l 5
 24 57 l 5
 24 54 l 5
 15 45 l 5
 12 45 l 5x20
10 41 m 25x60
 18 25 l 25
 26 41 l 25
 30 41 l 25
 20 21 l 25x60
 20 1 l 25
 16 1 l 25xa0
 16 21 l 25
 6 41 l 25
 10 41 l 25x60
EndSplineSet
Validated: 1
EndChar

StartChar: ygrave
Encoding: 7923 7923 364
Width: 35
Flags: W
HStem: -7 4<6 10> 5 20G<8 18 18 28> 21 20G<12 24>
DStem2: 12 25 8 25 0.447214 -0.894427<0 13.4164> 10 -3 12 -7 0.447214 0.894427<0 13.4164 17.8885 31.305> 12 32 15 29 0.707107 0.707107<0 12.7279>
LayerCount: 2
Fore
SplineSet
12 29 m 1xa0
 12 32 l 1
 21 41 l 1
 24 41 l 1
 24 38 l 1
 15 29 l 1
 12 29 l 1xa0
8 25 m 25xc0
 12 25 l 25
 18 13 l 25
 24 25 l 25
 28 25 l 25
 12 -7 l 25
 6 -7 l 25
 6 -3 l 25
 10 -3 l 1
 16 9 l 25
 8 25 l 25xc0
EndSplineSet
Validated: 1
EndChar

StartChar: guilsinglleft
Encoding: 8249 8249 365
Width: 35
Flags: W
VStem: 6 12
DStem2: 12 19 6 19 0.707107 -0.707107<0 8.48528> 6 19 12 19 0.707107 0.707107<4.24264 12.7279>
LayerCount: 2
Fore
SplineSet
18 25 m 1
 12 19 l 1
 18 13 l 1
 15 10 l 1
 6 19 l 1
 15 28 l 1
 18 25 l 1
EndSplineSet
Validated: 1
EndChar

StartChar: guilsinglright
Encoding: 8250 8250 366
Width: 35
Flags: W
VStem: 18 12
DStem2: 21 28 18 25 0.707107 -0.707107<0 8.48528> 18 13 21 10 0.707107 0.707107<0 8.48528>
LayerCount: 2
Fore
SplineSet
21 28 m 1
 30 19 l 25
 21 10 l 1
 18 13 l 1
 24 19 l 1
 18 25 l 1
 21 28 l 1
EndSplineSet
Validated: 1
EndChar

StartChar: uni0157
Encoding: 343 343 367
Width: 35
Flags: W
HStem: -20 20G<16 22> -8 21G<16 22> 1 21G<6 10> 21 4<14 26>
VStem: 6 4<1 17 21 25> 26 4<17 21>
LayerCount: 2
Fore
SplineSet
20 0 m 25x8c
 22 -4 l 25
 20 -8 l 25
 16 -8 l 25x4c
 18 -4 l 25
 16 0 l 25
 20 0 l 25x8c
6 1 m 25x2c
 6 25 l 25
 10 25 l 25
 10 21 l 25
 14 25 l 25
 26 25 l 25
 30 21 l 25
 30 17 l 25
 26 17 l 25
 26 21 l 25
 14 21 l 25x1c
 10 17 l 25
 10 1 l 25
 6 1 l 25x2c
EndSplineSet
Validated: 1
EndChar

StartChar: Cdotaccent
Encoding: 266 266 368
Width: 35
Flags: W
HStem: 1 4<12 24> 37 4<12 24> 44 8<14 22>
VStem: 4 4<13 29> 14 8<44 52> 26 4<9 13 29 33>
DStem2: 4 29 8 29 0.447214 0.894427<1.78885 8.94427> 8 13 4 13 0.447214 -0.894427<0 7.15542>
LayerCount: 2
Fore
SplineSet
14 44 m 29
 14 52 l 29
 22 52 l 29
 22 44 l 29
 14 44 l 29
30 29 m 25
 26 29 l 25
 26 33 l 25
 24 37 l 25
 12 37 l 25
 8 29 l 25
 8 13 l 25
 12 5 l 25
 24 5 l 1
 26 9 l 25
 26 13 l 1
 30 13 l 25
 30 9 l 25
 28 5 l 25
 24 1 l 25
 12 1 l 25
 8 5 l 25
 4 13 l 25
 4 29 l 25
 8 37 l 25
 12 41 l 25
 24 41 l 25
 28 37 l 25
 30 33 l 25
 30 29 l 25
EndSplineSet
Validated: 1
EndChar

StartChar: cdotaccent
Encoding: 267 267 369
Width: 35
Flags: W
HStem: 1 4<10 26> 21 4<10 26> 28 8<14 22>
VStem: 6 4<5 21> 14 8<28 36> 26 4<5 9 17 21>
CounterMasks: 1 1c
LayerCount: 2
Fore
SplineSet
14 28 m 29
 14 36 l 29
 22 36 l 29
 22 28 l 29
 14 28 l 29
30 17 m 25
 26 17 l 25
 26 21 l 25
 10 21 l 25
 10 5 l 25
 26 5 l 25
 26 9 l 25
 30 9 l 25
 30 5 l 25
 26 1 l 25
 10 1 l 25
 6 5 l 25
 6 21 l 25
 10 25 l 25
 26 25 l 25
 30 21 l 25
 30 17 l 25
EndSplineSet
Validated: 1
EndChar

StartChar: Dcaron
Encoding: 270 270 370
Width: 35
Flags: W
HStem: 1 4<8 24> 37 4<8 24>
VStem: 4 4<5 37> 28 4<9 33>
DStem2: 24 41 24 37 0.707107 -0.707107<2.82843 8.48528> 24 5 24 1 0.707107 0.707107<0 5.65685>
LayerCount: 2
Fore
SplineSet
12 57 m 29
 16 57 l 29
 18 53 l 5
 20 57 l 29
 24 57 l 29
 18 45 l 5
 12 57 l 29
8 5 m 25
 24 5 l 25
 28 9 l 25
 28 33 l 25
 24 37 l 25
 8 37 l 25
 8 5 l 25
4 1 m 25
 4 41 l 25
 24 41 l 25
 32 33 l 25
 32 9 l 25
 24 1 l 25
 4 1 l 25
EndSplineSet
Validated: 1
EndChar

StartChar: dcaron
Encoding: 271 271 371
Width: 35
Flags: W
HStem: 1 4<10 26 30 32> 21 20G<12 18 18 24 26 30> 21 4<10 26>
VStem: 6 4<5 21> 26 4<5 21 25 41>
LayerCount: 2
Fore
SplineSet
12 41 m 25xd8
 16 41 l 25
 18 37 l 1
 20 41 l 25
 24 41 l 25
 18 29 l 1
 12 41 l 25xd8
26 21 m 25
 10 21 l 25xb8
 10 5 l 25
 26 5 l 25
 26 21 l 25
26 25 m 25
 26 41 l 25
 30 41 l 25xd8
 30 5 l 25
 32 5 l 25
 32 1 l 25
 8 1 l 25
 6 5 l 25
 6 21 l 25
 10 25 l 25
 26 25 l 25
EndSplineSet
Validated: 1
EndChar
